<svg id="svg" version="1.1" xmlns="http://www.w3.org/2000/svg" xmlns:xlink="http://www.w3.org/1999/xlink" width="400" height="400" viewBox="0, 0, 400,400"><g id="svgg"><path id="path0" d="M379.200 0.600 C 379.200 1.113,378.044 1.200,371.200 1.200 L 363.200 1.200 363.200 2.200 L 363.200 3.200 356.200 3.200 L 349.200 3.200 349.200 4.200 L 349.200 5.200 344.200 5.200 L 339.200 5.200 339.200 6.200 L 339.200 7.200 334.200 7.200 L 329.200 7.200 329.200 8.200 L 329.200 9.200 324.200 9.200 L 319.200 9.200 319.200 10.200 L 319.200 11.200 315.200 11.200 L 311.200 11.200 311.200 12.200 L 311.200 13.200 307.200 13.200 L 303.200 13.200 303.200 14.200 L 303.200 15.200 299.200 15.200 L 295.200 15.200 295.200 16.200 C 295.200 17.178,295.133 17.200,292.200 17.200 C 289.267 17.200,289.200 17.222,289.200 18.200 L 289.200 19.200 285.200 19.200 L 281.200 19.200 281.200 20.200 C 281.200 21.178,281.133 21.200,278.200 21.200 C 275.267 21.200,275.200 21.222,275.200 22.200 C 275.200 23.178,275.133 23.200,272.200 23.200 C 269.267 23.200,269.200 23.222,269.200 24.200 C 269.200 25.133,269.067 25.200,267.200 25.200 C 265.333 25.200,265.200 25.267,265.200 26.200 C 265.200 27.178,265.133 27.200,262.200 27.200 C 259.267 27.200,259.200 27.222,259.200 28.200 C 259.200 29.000,259.000 29.200,258.200 29.200 C 257.400 29.200,257.200 29.400,257.200 30.200 C 257.200 31.000,257.000 31.200,256.200 31.200 C 255.267 31.200,255.200 31.333,255.200 33.200 C 255.200 35.067,255.133 35.200,254.200 35.200 C 253.400 35.200,253.200 35.400,253.200 36.200 C 253.200 37.000,253.000 37.200,252.200 37.200 C 251.400 37.200,251.200 37.400,251.200 38.200 C 251.200 39.000,251.000 39.200,250.200 39.200 C 249.400 39.200,249.200 39.400,249.200 40.200 C 249.200 41.000,249.000 41.200,248.200 41.200 C 247.400 41.200,247.200 41.400,247.200 42.200 C 247.200 43.000,247.000 43.200,246.200 43.200 C 245.400 43.200,245.200 43.400,245.200 44.200 C 245.200 45.000,245.000 45.200,244.200 45.200 C 243.267 45.200,243.200 45.333,243.200 47.200 C 243.200 49.067,243.133 49.200,242.200 49.200 C 241.400 49.200,241.200 49.400,241.200 50.200 C 241.200 51.000,241.000 51.200,240.200 51.200 C 239.400 51.200,239.200 51.400,239.200 52.200 C 239.200 53.000,239.000 53.200,238.200 53.200 C 237.400 53.200,237.200 53.400,237.200 54.200 C 237.200 55.000,237.000 55.200,236.200 55.200 C 235.400 55.200,235.200 55.400,235.200 56.200 C 235.200 57.000,235.000 57.200,234.200 57.200 C 233.400 57.200,233.200 57.400,233.200 58.200 C 233.200 59.000,233.000 59.200,232.200 59.200 C 231.267 59.200,231.200 59.333,231.200 61.200 C 231.200 63.067,231.133 63.200,230.200 63.200 C 229.400 63.200,229.200 63.400,229.200 64.200 C 229.200 65.000,229.000 65.200,228.200 65.200 C 227.400 65.200,227.200 65.400,227.200 66.200 C 227.200 67.000,227.000 67.200,226.200 67.200 C 225.400 67.200,225.200 67.400,225.200 68.200 C 225.200 69.000,225.000 69.200,224.200 69.200 C 223.400 69.200,223.200 69.400,223.200 70.200 C 223.200 71.000,223.000 71.200,222.200 71.200 C 221.400 71.200,221.200 71.400,221.200 72.200 C 221.200 73.000,221.000 73.200,220.200 73.200 C 219.267 73.200,219.200 73.333,219.200 75.200 C 219.200 77.067,219.133 77.200,218.200 77.200 C 217.400 77.200,217.200 77.400,217.200 78.200 C 217.200 79.000,217.000 79.200,216.200 79.200 C 215.400 79.200,215.200 79.400,215.200 80.200 C 215.200 81.000,215.000 81.200,214.200 81.200 C 213.400 81.200,213.200 81.400,213.200 82.200 C 213.200 82.993,212.998 83.200,212.227 83.200 C 211.472 83.200,211.216 83.447,211.087 84.300 C 210.995 84.905,210.893 84.365,210.860 83.100 C 210.803 80.897,210.842 80.800,211.800 80.800 C 212.778 80.800,212.800 80.733,212.800 77.800 C 212.800 74.867,212.822 74.800,213.800 74.800 C 214.733 74.800,214.800 74.667,214.800 72.800 C 214.800 70.933,214.867 70.800,215.800 70.800 C 216.778 70.800,216.800 70.733,216.800 67.800 C 216.800 64.867,216.822 64.800,217.800 64.800 C 218.778 64.800,218.800 64.733,218.800 61.800 C 218.800 58.867,218.822 58.800,219.800 58.800 C 220.778 58.800,220.800 58.733,220.800 55.800 C 220.800 52.867,220.822 52.800,221.800 52.800 C 222.796 52.800,222.800 52.787,222.800 49.000 L 222.800 45.200 221.000 45.200 C 219.347 45.200,219.200 45.281,219.200 46.200 C 219.200 47.133,219.067 47.200,217.200 47.200 C 215.333 47.200,215.200 47.267,215.200 48.200 C 215.200 49.133,215.067 49.200,213.200 49.200 C 211.333 49.200,211.200 49.267,211.200 50.200 C 211.200 51.000,211.000 51.200,210.200 51.200 C 209.400 51.200,209.200 51.400,209.200 52.200 C 209.200 53.133,209.067 53.200,207.200 53.200 C 205.333 53.200,205.200 53.267,205.200 54.200 C 205.200 55.133,205.067 55.200,203.200 55.200 C 201.333 55.200,201.200 55.267,201.200 56.200 C 201.200 57.133,201.067 57.200,199.200 57.200 C 197.333 57.200,197.200 57.267,197.200 58.200 C 197.200 59.000,197.000 59.200,196.200 59.200 C 195.400 59.200,195.200 59.400,195.200 60.200 C 195.200 61.133,195.067 61.200,193.200 61.200 C 191.333 61.200,191.200 61.267,191.200 62.200 C 191.200 63.000,191.000 63.200,190.200 63.200 C 189.400 63.200,189.200 63.400,189.200 64.200 C 189.200 65.133,189.067 65.200,187.200 65.200 C 185.333 65.200,185.200 65.267,185.200 66.200 C 185.200 67.000,185.000 67.200,184.200 67.200 C 183.400 67.200,183.200 67.400,183.200 68.200 C 183.200 69.133,183.067 69.200,181.200 69.200 C 179.333 69.200,179.200 69.267,179.200 70.200 C 179.200 71.000,179.000 71.200,178.200 71.200 C 177.400 71.200,177.200 71.400,177.200 72.200 C 177.200 73.133,177.067 73.200,175.200 73.200 C 173.333 73.200,173.200 73.267,173.200 74.200 C 173.200 75.000,173.000 75.200,172.200 75.200 C 171.400 75.200,171.200 75.400,171.200 76.200 C 171.200 77.000,171.000 77.200,170.200 77.200 C 169.400 77.200,169.200 77.400,169.200 78.200 C 169.200 79.133,169.067 79.200,167.200 79.200 C 165.333 79.200,165.200 79.267,165.200 80.200 C 165.200 81.000,165.000 81.200,164.200 81.200 C 163.400 81.200,163.200 81.400,163.200 82.200 C 163.200 83.000,163.000 83.200,162.200 83.200 C 161.400 83.200,161.200 83.400,161.200 84.200 C 161.200 85.000,161.000 85.200,160.200 85.200 C 159.400 85.200,159.200 85.400,159.200 86.200 C 159.200 87.000,159.000 87.200,158.200 87.200 C 157.400 87.200,157.200 87.400,157.200 88.200 C 157.200 89.133,157.067 89.200,155.200 89.200 C 153.333 89.200,153.200 89.267,153.200 90.200 C 153.200 91.000,153.000 91.200,152.200 91.200 C 151.400 91.200,151.200 91.400,151.200 92.200 C 151.200 93.000,151.000 93.200,150.200 93.200 C 149.400 93.200,149.200 93.400,149.200 94.200 C 149.200 95.000,149.000 95.200,148.200 95.200 C 147.400 95.200,147.200 95.400,147.200 96.200 C 147.200 97.000,147.000 97.200,146.200 97.200 C 145.400 97.200,145.200 97.400,145.200 98.200 C 145.200 99.000,145.000 99.200,144.200 99.200 C 143.400 99.200,143.200 99.400,143.200 100.200 C 143.200 101.000,143.000 101.200,142.200 101.200 C 141.400 101.200,141.200 101.400,141.200 102.200 C 141.200 103.000,141.000 103.200,140.200 103.200 C 139.400 103.200,139.200 103.400,139.200 104.200 C 139.200 105.000,139.000 105.200,138.200 105.200 C 137.400 105.200,137.200 105.400,137.200 106.200 C 137.200 107.000,137.000 107.200,136.200 107.200 C 135.400 107.200,135.200 107.400,135.200 108.200 C 135.200 109.000,135.000 109.200,134.200 109.200 C 133.400 109.200,133.200 109.400,133.200 110.200 C 133.200 111.000,133.000 111.200,132.200 111.200 C 131.400 111.200,131.200 111.400,131.200 112.200 C 131.200 113.000,131.000 113.200,130.200 113.200 C 129.400 113.200,129.200 113.400,129.200 114.200 C 129.200 115.000,129.000 115.200,128.200 115.200 C 127.400 115.200,127.200 115.400,127.200 116.200 C 127.200 117.000,127.000 117.200,126.200 117.200 C 125.400 117.200,125.200 117.400,125.200 118.200 C 125.200 119.000,125.000 119.200,124.200 119.200 C 123.400 119.200,123.200 119.400,123.200 120.200 C 123.200 121.000,123.000 121.200,122.200 121.200 C 121.267 121.200,121.200 121.333,121.200 123.200 C 121.200 125.067,121.133 125.200,120.200 125.200 C 119.400 125.200,119.200 125.400,119.200 126.200 C 119.200 127.000,119.000 127.200,118.200 127.200 C 117.400 127.200,117.200 127.400,117.200 128.200 C 117.200 129.000,117.000 129.200,116.200 129.200 C 115.400 129.200,115.200 129.400,115.200 130.200 C 115.200 131.000,115.000 131.200,114.200 131.200 C 113.267 131.200,113.200 131.333,113.200 133.200 C 113.200 135.067,113.133 135.200,112.200 135.200 C 111.400 135.200,111.200 135.400,111.200 136.200 C 111.200 137.000,111.000 137.200,110.200 137.200 C 109.400 137.200,109.200 137.400,109.200 138.200 C 109.200 139.000,109.000 139.200,108.200 139.200 C 107.400 139.200,107.200 139.400,107.200 140.200 C 107.200 141.000,107.000 141.200,106.200 141.200 C 105.267 141.200,105.200 141.333,105.200 143.200 C 105.200 145.067,105.133 145.200,104.200 145.200 C 103.400 145.200,103.200 145.400,103.200 146.200 C 103.200 147.000,103.000 147.200,102.200 147.200 C 101.267 147.200,101.200 147.333,101.200 149.200 C 101.200 151.067,101.133 151.200,100.200 151.200 C 99.400 151.200,99.200 151.400,99.200 152.200 C 99.200 153.000,99.000 153.200,98.200 153.200 C 97.267 153.200,97.200 153.333,97.200 155.200 C 97.200 157.067,97.133 157.200,96.200 157.200 C 95.400 157.200,95.200 157.400,95.200 158.200 C 95.200 159.000,95.000 159.200,94.200 159.200 C 93.267 159.200,93.200 159.333,93.200 161.200 C 93.200 163.067,93.133 163.200,92.200 163.200 C 91.267 163.200,91.200 163.333,91.200 165.200 C 91.200 167.067,91.133 167.200,90.200 167.200 C 89.400 167.200,89.200 167.400,89.200 168.200 C 89.200 169.000,89.000 169.200,88.200 169.200 C 87.267 169.200,87.200 169.333,87.200 171.200 C 87.200 173.067,87.133 173.200,86.200 173.200 C 85.267 173.200,85.200 173.333,85.200 175.200 C 85.200 177.067,85.133 177.200,84.200 177.200 C 83.267 177.200,83.200 177.333,83.200 179.200 C 83.200 181.067,83.133 181.200,82.200 181.200 C 81.267 181.200,81.200 181.333,81.200 183.200 C 81.200 185.067,81.133 185.200,80.200 185.200 C 79.267 185.200,79.200 185.333,79.200 187.200 C 79.200 189.067,79.133 189.200,78.200 189.200 C 77.267 189.200,77.200 189.333,77.200 191.200 C 77.200 193.067,77.133 193.200,76.200 193.200 C 75.267 193.200,75.200 193.333,75.200 195.200 C 75.200 197.067,75.133 197.200,74.200 197.200 C 73.267 197.200,73.200 197.333,73.200 199.200 C 73.200 201.067,73.133 201.200,72.200 201.200 C 71.267 201.200,71.200 201.333,71.200 203.200 C 71.200 205.067,71.133 205.200,70.200 205.200 C 69.222 205.200,69.200 205.267,69.200 208.200 C 69.200 211.133,69.178 211.200,68.200 211.200 C 67.267 211.200,67.200 211.333,67.200 213.200 C 67.200 215.067,67.133 215.200,66.200 215.200 C 65.222 215.200,65.200 215.267,65.200 218.200 C 65.200 221.133,65.178 221.200,64.200 221.200 C 63.222 221.200,63.200 221.267,63.200 224.200 C 63.200 227.133,63.178 227.200,62.200 227.200 C 61.222 227.200,61.200 227.267,61.200 230.200 C 61.200 233.133,61.178 233.200,60.200 233.200 C 59.222 233.200,59.200 233.267,59.200 236.200 C 59.200 239.133,59.178 239.200,58.200 239.200 C 57.222 239.200,57.200 239.267,57.200 242.200 C 57.200 245.133,57.178 245.200,56.200 245.200 L 55.200 245.200 55.200 249.200 L 55.200 253.200 54.200 253.200 L 53.200 253.200 53.200 257.200 L 53.200 261.200 52.200 261.200 C 51.229 261.200,51.200 261.280,51.200 264.000 L 51.200 266.800 54.000 266.800 L 56.800 266.800 56.800 264.800 C 56.800 262.933,56.867 262.800,57.800 262.800 C 58.600 262.800,58.800 262.600,58.800 261.800 C 58.800 261.000,59.000 260.800,59.800 260.800 C 60.733 260.800,60.800 260.667,60.800 258.800 C 60.800 256.933,60.867 256.800,61.800 256.800 C 62.600 256.800,62.800 256.600,62.800 255.800 C 62.800 255.000,63.000 254.800,63.800 254.800 C 64.600 254.800,64.800 254.600,64.800 253.800 C 64.800 253.000,65.000 252.800,65.800 252.800 C 66.733 252.800,66.800 252.667,66.800 250.800 C 66.800 248.933,66.867 248.800,67.800 248.800 C 68.600 248.800,68.800 248.600,68.800 247.800 C 68.800 247.000,69.000 246.800,69.800 246.800 C 70.600 246.800,70.800 246.600,70.800 245.800 C 70.800 245.000,71.000 244.800,71.800 244.800 C 72.600 244.800,72.800 244.600,72.800 243.800 C 72.800 243.000,73.000 242.800,73.800 242.800 C 74.600 242.800,74.800 242.600,74.800 241.800 C 74.800 241.000,75.000 240.800,75.800 240.800 C 76.733 240.800,76.800 240.667,76.800 238.800 C 76.800 236.933,76.867 236.800,77.800 236.800 C 78.600 236.800,78.800 236.600,78.800 235.800 C 78.800 235.000,79.000 234.800,79.800 234.800 C 80.600 234.800,80.800 234.600,80.800 233.800 C 80.800 233.000,81.000 232.800,81.800 232.800 C 82.600 232.800,82.800 232.600,82.800 231.800 C 82.800 231.000,83.000 230.800,83.800 230.800 C 84.600 230.800,84.800 230.600,84.800 229.800 C 84.800 229.000,85.000 228.800,85.800 228.800 C 86.600 228.800,86.800 228.600,86.800 227.800 C 86.800 227.000,87.000 226.800,87.800 226.800 C 88.600 226.800,88.800 226.600,88.800 225.800 C 88.800 225.000,89.000 224.800,89.800 224.800 C 90.600 224.800,90.800 224.600,90.800 223.800 C 90.800 223.000,91.000 222.800,91.800 222.800 C 92.600 222.800,92.800 222.600,92.800 221.800 C 92.800 221.000,93.000 220.800,93.800 220.800 C 94.600 220.800,94.800 220.600,94.800 219.800 C 94.800 219.000,95.000 218.800,95.800 218.800 C 96.600 218.800,96.800 218.600,96.800 217.800 C 96.800 217.000,97.000 216.800,97.800 216.800 C 98.600 216.800,98.800 216.600,98.800 215.800 C 98.800 215.000,99.000 214.800,99.800 214.800 C 100.600 214.800,100.800 214.600,100.800 213.800 C 100.800 213.000,101.000 212.800,101.800 212.800 C 102.600 212.800,102.800 212.600,102.800 211.800 C 102.800 211.000,103.000 210.800,103.800 210.800 C 104.600 210.800,104.800 210.600,104.800 209.800 C 104.800 209.000,105.000 208.800,105.800 208.800 C 106.600 208.800,106.800 208.600,106.800 207.800 C 106.800 207.000,107.000 206.800,107.800 206.800 C 108.600 206.800,108.800 206.600,108.800 205.800 C 108.800 205.000,109.000 204.800,109.800 204.800 C 110.600 204.800,110.800 204.600,110.800 203.800 C 110.800 203.000,111.000 202.800,111.800 202.800 C 112.600 202.800,112.800 202.600,112.800 201.800 C 112.800 201.000,113.000 200.800,113.800 200.800 C 114.600 200.800,114.800 200.600,114.800 199.800 C 114.800 199.000,115.000 198.800,115.800 198.800 C 116.600 198.800,116.800 198.600,116.800 197.800 C 116.800 197.000,117.000 196.800,117.800 196.800 C 118.600 196.800,118.800 196.600,118.800 195.800 C 118.800 195.000,119.000 194.800,119.800 194.800 C 120.600 194.800,120.800 194.600,120.800 193.800 C 120.800 193.000,121.000 192.800,121.800 192.800 C 122.600 192.800,122.800 192.600,122.800 191.800 C 122.800 190.867,122.933 190.800,124.800 190.800 C 126.667 190.800,126.800 190.733,126.800 189.800 C 126.800 189.000,127.000 188.800,127.800 188.800 C 128.600 188.800,128.800 188.600,128.800 187.800 C 128.800 187.000,129.000 186.800,129.800 186.800 C 130.600 186.800,130.800 186.600,130.800 185.800 C 130.800 185.000,131.000 184.800,131.800 184.800 C 132.600 184.800,132.800 184.600,132.800 183.800 C 132.800 183.000,133.000 182.800,133.800 182.800 C 134.600 182.800,134.800 182.600,134.800 181.800 C 134.800 181.000,135.000 180.800,135.800 180.800 C 136.600 180.800,136.800 180.600,136.800 179.800 C 136.800 178.867,136.933 178.800,138.800 178.800 C 140.667 178.800,140.800 178.733,140.800 177.800 C 140.800 177.000,141.000 176.800,141.800 176.800 C 142.600 176.800,142.800 176.600,142.800 175.800 C 142.800 175.000,143.000 174.800,143.800 174.800 C 144.600 174.800,144.800 174.600,144.800 173.800 C 144.800 173.000,145.000 172.800,145.800 172.800 C 146.600 172.800,146.800 172.600,146.800 171.800 C 146.800 170.867,146.933 170.800,148.800 170.800 C 150.667 170.800,150.800 170.733,150.800 169.800 C 150.800 169.000,151.000 168.800,151.800 168.800 C 152.600 168.800,152.800 168.600,152.800 167.800 C 152.800 167.000,153.000 166.800,153.800 166.800 C 154.600 166.800,154.800 166.600,154.800 165.800 C 154.800 164.867,154.933 164.800,156.800 164.800 C 158.667 164.800,158.800 164.733,158.800 163.800 C 158.800 163.000,159.000 162.800,159.800 162.800 C 160.600 162.800,160.800 162.600,160.800 161.800 C 160.800 161.000,161.000 160.800,161.800 160.800 C 162.600 160.800,162.800 160.600,162.800 159.800 C 162.800 158.867,162.933 158.800,164.800 158.800 C 166.667 158.800,166.800 158.733,166.800 157.800 C 166.800 157.000,167.000 156.800,167.800 156.800 C 168.600 156.800,168.800 156.600,168.800 155.800 C 168.800 155.000,169.000 154.800,169.800 154.800 C 170.600 154.800,170.800 154.600,170.800 153.800 C 170.800 152.867,170.933 152.800,172.800 152.800 C 174.667 152.800,174.800 152.733,174.800 151.800 C 174.800 151.000,175.000 150.800,175.800 150.800 C 176.600 150.800,176.800 150.600,176.800 149.800 C 176.800 148.867,176.933 148.800,178.800 148.800 C 180.667 148.800,180.800 148.733,180.800 147.800 C 180.800 147.000,181.000 146.800,181.800 146.800 C 182.600 146.800,182.800 146.600,182.800 145.800 C 182.800 144.867,182.933 144.800,184.800 144.800 C 186.667 144.800,186.800 144.733,186.800 143.800 C 186.800 143.000,187.000 142.800,187.800 142.800 C 188.600 142.800,188.800 142.600,188.800 141.800 C 188.800 140.867,188.933 140.800,190.800 140.800 C 192.667 140.800,192.800 140.733,192.800 139.800 C 192.800 138.867,192.933 138.800,194.800 138.800 C 196.667 138.800,196.800 138.733,196.800 137.800 C 196.800 137.000,197.000 136.800,197.800 136.800 C 198.600 136.800,198.800 136.600,198.800 135.800 C 198.800 134.867,198.933 134.800,200.800 134.800 C 202.667 134.800,202.800 134.733,202.800 133.800 C 202.800 132.867,202.933 132.800,204.800 132.800 C 206.667 132.800,206.800 132.733,206.800 131.800 C 206.800 130.867,206.933 130.800,208.800 130.800 C 210.667 130.800,210.800 130.733,210.800 129.800 C 210.800 128.867,210.933 128.800,212.800 128.800 C 214.667 128.800,214.800 128.733,214.800 127.800 C 214.800 126.867,214.933 126.800,216.800 126.800 C 218.667 126.800,218.800 126.733,218.800 125.800 C 218.800 124.867,218.933 124.800,220.800 124.800 C 222.667 124.800,222.800 124.733,222.800 123.800 C 222.800 122.867,222.933 122.800,224.800 122.800 C 226.667 122.800,226.800 122.733,226.800 121.800 C 226.800 120.867,226.933 120.800,228.800 120.800 C 230.667 120.800,230.800 120.733,230.800 119.800 C 230.800 118.822,230.867 118.800,233.800 118.800 C 236.733 118.800,236.800 118.778,236.800 117.800 C 236.800 116.867,236.933 116.800,238.800 116.800 C 240.667 116.800,240.800 116.733,240.800 115.800 C 240.800 114.822,240.867 114.800,243.800 114.800 C 246.733 114.800,246.800 114.778,246.800 113.800 C 246.800 112.822,246.867 112.800,249.800 112.800 C 252.722 112.800,252.800 112.774,252.800 111.814 C 252.800 110.838,252.840 110.827,256.900 110.714 C 260.868 110.604,260.998 110.571,260.952 109.700 C 260.906 108.831,261.016 108.803,264.152 108.874 C 266.608 108.930,266.888 108.984,265.300 109.095 C 263.379 109.229,263.200 109.325,263.200 110.221 C 263.200 110.999,262.994 111.200,262.200 111.200 C 261.400 111.200,261.200 111.400,261.200 112.200 C 261.200 113.133,261.067 113.200,259.200 113.200 C 257.333 113.200,257.200 113.267,257.200 114.200 C 257.200 115.000,257.000 115.200,256.200 115.200 C 255.400 115.200,255.200 115.400,255.200 116.200 C 255.200 117.133,255.067 117.200,253.200 117.200 C 251.333 117.200,251.200 117.267,251.200 118.200 C 251.200 119.000,251.000 119.200,250.200 119.200 C 249.400 119.200,249.200 119.400,249.200 120.200 C 249.200 121.133,249.067 121.200,247.200 121.200 C 245.333 121.200,245.200 121.267,245.200 122.200 C 245.200 123.000,245.000 123.200,244.200 123.200 C 243.400 123.200,243.200 123.400,243.200 124.200 C 243.200 125.133,243.067 125.200,241.200 125.200 C 239.333 125.200,239.200 125.267,239.200 126.200 C 239.200 127.000,239.000 127.200,238.200 127.200 C 237.400 127.200,237.200 127.400,237.200 128.200 C 237.200 129.000,237.000 129.200,236.200 129.200 C 235.400 129.200,235.200 129.400,235.200 130.200 C 235.200 131.133,235.067 131.200,233.200 131.200 C 231.333 131.200,231.200 131.267,231.200 132.200 C 231.200 133.000,231.000 133.200,230.200 133.200 C 229.400 133.200,229.200 133.400,229.200 134.200 C 229.200 135.133,229.067 135.200,227.200 135.200 C 225.333 135.200,225.200 135.267,225.200 136.200 C 225.200 137.000,225.000 137.200,224.200 137.200 C 223.400 137.200,223.200 137.400,223.200 138.200 C 223.200 139.000,223.000 139.200,222.200 139.200 C 221.400 139.200,221.200 139.400,221.200 140.200 C 221.200 141.133,221.067 141.200,219.200 141.200 C 217.333 141.200,217.200 141.267,217.200 142.200 C 217.200 143.000,217.000 143.200,216.200 143.200 C 215.400 143.200,215.200 143.400,215.200 144.200 C 215.200 145.133,215.067 145.200,213.200 145.200 C 211.333 145.200,211.200 145.267,211.200 146.200 C 211.200 147.000,211.000 147.200,210.200 147.200 C 209.400 147.200,209.200 147.400,209.200 148.200 C 209.200 149.000,209.000 149.200,208.200 149.200 C 207.400 149.200,207.200 149.400,207.200 150.200 C 207.200 151.133,207.067 151.200,205.200 151.200 C 203.333 151.200,203.200 151.267,203.200 152.200 C 203.200 153.000,203.000 153.200,202.200 153.200 C 201.400 153.200,201.200 153.400,201.200 154.200 C 201.200 155.000,201.000 155.200,200.200 155.200 C 199.400 155.200,199.200 155.400,199.200 156.200 C 199.200 157.000,199.000 157.200,198.200 157.200 C 197.400 157.200,197.200 157.400,197.200 158.200 C 197.200 159.133,197.067 159.200,195.200 159.200 C 193.333 159.200,193.200 159.267,193.200 160.200 C 193.200 161.000,193.000 161.200,192.200 161.200 C 191.400 161.200,191.200 161.400,191.200 162.200 C 191.200 163.000,191.000 163.200,190.200 163.200 C 189.400 163.200,189.200 163.400,189.200 164.200 C 189.200 165.000,189.000 165.200,188.200 165.200 C 187.400 165.200,187.200 165.400,187.200 166.200 C 187.200 167.133,187.067 167.200,185.200 167.200 C 183.333 167.200,183.200 167.267,183.200 168.200 C 183.200 169.000,183.000 169.200,182.200 169.200 C 181.400 169.200,181.200 169.400,181.200 170.200 C 181.200 171.000,181.000 171.200,180.200 171.200 C 179.400 171.200,179.200 171.400,179.200 172.200 C 179.200 173.000,179.000 173.200,178.200 173.200 C 177.400 173.200,177.200 173.400,177.200 174.200 C 177.200 175.133,177.067 175.200,175.200 175.200 C 173.333 175.200,173.200 175.267,173.200 176.200 C 173.200 177.000,173.000 177.200,172.200 177.200 C 171.400 177.200,171.200 177.400,171.200 178.200 C 171.200 179.000,171.000 179.200,170.200 179.200 C 169.400 179.200,169.200 179.400,169.200 180.200 C 169.200 181.000,169.000 181.200,168.200 181.200 C 167.400 181.200,167.200 181.400,167.200 182.200 C 167.200 183.000,167.000 183.200,166.200 183.200 C 165.400 183.200,165.200 183.400,165.200 184.200 C 165.200 185.133,165.067 185.200,163.200 185.200 C 161.333 185.200,161.200 185.267,161.200 186.200 C 161.200 187.000,161.000 187.200,160.200 187.200 C 159.400 187.200,159.200 187.400,159.200 188.200 C 159.200 189.000,159.000 189.200,158.200 189.200 C 157.400 189.200,157.200 189.400,157.200 190.200 C 157.200 191.000,157.000 191.200,156.200 191.200 C 155.400 191.200,155.200 191.400,155.200 192.200 C 155.200 193.000,155.000 193.200,154.200 193.200 C 153.400 193.200,153.200 193.400,153.200 194.200 C 153.200 195.000,153.000 195.200,152.200 195.200 C 151.400 195.200,151.200 195.400,151.200 196.200 C 151.200 197.000,151.000 197.200,150.200 197.200 C 149.400 197.200,149.200 197.400,149.200 198.200 C 149.200 199.133,149.067 199.200,147.200 199.200 C 145.333 199.200,145.200 199.267,145.200 200.200 C 145.200 201.000,145.000 201.200,144.200 201.200 C 143.400 201.200,143.200 201.400,143.200 202.200 C 143.200 203.000,143.000 203.200,142.200 203.200 C 141.400 203.200,141.200 203.400,141.200 204.200 C 141.200 205.000,141.000 205.200,140.200 205.200 C 139.400 205.200,139.200 205.400,139.200 206.200 C 139.200 207.000,139.000 207.200,138.200 207.200 C 137.400 207.200,137.200 207.400,137.200 208.200 C 137.200 209.000,137.000 209.200,136.200 209.200 C 135.400 209.200,135.200 209.400,135.200 210.200 C 135.200 211.000,135.000 211.200,134.200 211.200 C 133.400 211.200,133.200 211.400,133.200 212.200 C 133.200 213.000,133.000 213.200,132.200 213.200 C 131.400 213.200,131.200 213.400,131.200 214.200 C 131.200 215.000,131.000 215.200,130.200 215.200 C 129.400 215.200,129.200 215.400,129.200 216.200 C 129.200 217.000,129.000 217.200,128.200 217.200 C 127.400 217.200,127.200 217.400,127.200 218.200 C 127.200 219.000,127.000 219.200,126.200 219.200 C 125.400 219.200,125.200 219.400,125.200 220.200 C 125.200 221.000,125.000 221.200,124.200 221.200 C 123.400 221.200,123.200 221.400,123.200 222.200 C 123.200 223.000,123.000 223.200,122.200 223.200 C 121.400 223.200,121.200 223.400,121.200 224.200 C 121.200 225.000,121.000 225.200,120.200 225.200 C 119.400 225.200,119.200 225.400,119.200 226.200 C 119.200 227.000,119.000 227.200,118.200 227.200 C 117.400 227.200,117.200 227.400,117.200 228.200 C 117.200 229.000,117.000 229.200,116.200 229.200 C 115.400 229.200,115.200 229.400,115.200 230.200 C 115.200 231.000,115.000 231.200,114.200 231.200 C 113.400 231.200,113.200 231.400,113.200 232.200 C 113.200 233.000,113.000 233.200,112.200 233.200 C 111.400 233.200,111.200 233.400,111.200 234.200 C 111.200 235.000,111.000 235.200,110.200 235.200 C 109.400 235.200,109.200 235.400,109.200 236.200 C 109.200 237.000,109.000 237.200,108.200 237.200 C 107.400 237.200,107.200 237.400,107.200 238.200 C 107.200 239.000,107.000 239.200,106.200 239.200 C 105.400 239.200,105.200 239.400,105.200 240.200 C 105.200 241.000,105.000 241.200,104.200 241.200 C 103.400 241.200,103.200 241.400,103.200 242.200 C 103.200 243.000,103.000 243.200,102.200 243.200 C 101.400 243.200,101.200 243.400,101.200 244.200 C 101.200 245.000,101.000 245.200,100.200 245.200 C 99.400 245.200,99.200 245.400,99.200 246.200 C 99.200 247.000,99.000 247.200,98.200 247.200 C 97.400 247.200,97.200 247.400,97.200 248.200 C 97.200 249.000,97.000 249.200,96.200 249.200 C 95.400 249.200,95.200 249.400,95.200 250.200 C 95.200 251.000,95.000 251.200,94.200 251.200 C 93.400 251.200,93.200 251.400,93.200 252.200 C 93.200 253.000,93.000 253.200,92.200 253.200 C 91.400 253.200,91.200 253.400,91.200 254.200 C 91.200 255.000,91.000 255.200,90.200 255.200 C 89.400 255.200,89.200 255.400,89.200 256.200 C 89.200 257.000,89.000 257.200,88.200 257.200 C 87.400 257.200,87.200 257.400,87.200 258.200 C 87.200 259.000,87.000 259.200,86.200 259.200 C 85.267 259.200,85.200 259.333,85.200 261.200 C 85.200 263.067,85.133 263.200,84.200 263.200 C 83.400 263.200,83.200 263.400,83.200 264.200 C 83.200 265.000,83.000 265.200,82.200 265.200 C 81.400 265.200,81.200 265.400,81.200 266.200 C 81.200 267.000,81.000 267.200,80.200 267.200 C 79.400 267.200,79.200 267.400,79.200 268.200 C 79.200 269.000,79.000 269.200,78.200 269.200 C 77.400 269.200,77.200 269.400,77.200 270.200 C 77.200 271.000,77.000 271.200,76.200 271.200 C 75.400 271.200,75.200 271.400,75.200 272.200 C 75.200 273.000,75.000 273.200,74.200 273.200 C 73.267 273.200,73.200 273.333,73.200 275.200 C 73.200 277.067,73.133 277.200,72.200 277.200 C 71.400 277.200,71.200 277.400,71.200 278.200 C 71.200 279.000,71.000 279.200,70.200 279.200 C 69.400 279.200,69.200 279.400,69.200 280.200 C 69.200 281.000,69.000 281.200,68.200 281.200 C 67.400 281.200,67.200 281.400,67.200 282.200 C 67.200 283.000,67.000 283.200,66.200 283.200 C 65.400 283.200,65.200 283.400,65.200 284.200 C 65.200 285.000,65.000 285.200,64.200 285.200 C 63.267 285.200,63.200 285.333,63.200 287.200 C 63.200 289.067,63.133 289.200,62.200 289.200 C 61.400 289.200,61.200 289.400,61.200 290.200 C 61.200 291.000,61.000 291.200,60.200 291.200 C 59.400 291.200,59.200 291.400,59.200 292.200 C 59.200 293.000,59.000 293.200,58.200 293.200 C 57.400 293.200,57.200 293.400,57.200 294.200 C 57.200 295.000,57.000 295.200,56.200 295.200 C 55.267 295.200,55.200 295.333,55.200 297.200 C 55.200 299.067,55.133 299.200,54.200 299.200 C 53.400 299.200,53.200 299.400,53.200 300.200 C 53.200 301.000,53.000 301.200,52.200 301.200 C 51.400 301.200,51.200 301.400,51.200 302.200 C 51.200 303.000,51.000 303.200,50.200 303.200 C 49.267 303.200,49.200 303.333,49.200 305.200 C 49.200 307.067,49.133 307.200,48.200 307.200 C 47.400 307.200,47.200 307.400,47.200 308.200 C 47.200 309.000,47.000 309.200,46.200 309.200 C 45.400 309.200,45.200 309.400,45.200 310.200 C 45.200 311.000,45.000 311.200,44.200 311.200 C 43.267 311.200,43.200 311.333,43.200 313.200 C 43.200 315.067,43.133 315.200,42.200 315.200 C 41.400 315.200,41.200 315.400,41.200 316.200 C 41.200 317.000,41.000 317.200,40.200 317.200 C 39.267 317.200,39.200 317.333,39.200 319.200 C 39.200 321.067,39.133 321.200,38.200 321.200 C 37.400 321.200,37.200 321.400,37.200 322.200 C 37.200 323.000,37.000 323.200,36.200 323.200 C 35.267 323.200,35.200 323.333,35.200 325.200 C 35.200 327.067,35.133 327.200,34.200 327.200 C 33.400 327.200,33.200 327.400,33.200 328.200 C 33.200 329.000,33.000 329.200,32.200 329.200 C 31.267 329.200,31.200 329.333,31.200 331.200 C 31.200 333.067,31.133 333.200,30.200 333.200 C 29.400 333.200,29.200 333.400,29.200 334.200 C 29.200 335.000,29.000 335.200,28.200 335.200 C 27.267 335.200,27.200 335.333,27.200 337.200 C 27.200 339.067,27.133 339.200,26.200 339.200 C 25.400 339.200,25.200 339.400,25.200 340.200 C 25.200 341.000,25.000 341.200,24.200 341.200 C 23.267 341.200,23.200 341.333,23.200 343.200 C 23.200 345.067,23.133 345.200,22.200 345.200 C 21.400 345.200,21.200 345.400,21.200 346.200 C 21.200 347.000,21.000 347.200,20.200 347.200 C 19.267 347.200,19.200 347.333,19.200 349.200 C 19.200 351.067,19.133 351.200,18.200 351.200 C 17.267 351.200,17.200 351.333,17.200 353.200 C 17.200 355.067,17.133 355.200,16.200 355.200 C 15.267 355.200,15.200 355.333,15.200 357.200 C 15.200 359.067,15.133 359.200,14.200 359.200 C 13.400 359.200,13.200 359.400,13.200 360.200 C 13.200 361.000,13.000 361.200,12.200 361.200 C 11.267 361.200,11.200 361.333,11.200 363.200 C 11.200 365.067,11.133 365.200,10.200 365.200 C 9.267 365.200,9.200 365.333,9.200 367.200 C 9.200 369.067,9.133 369.200,8.200 369.200 C 7.267 369.200,7.200 369.333,7.200 371.200 C 7.200 373.067,7.133 373.200,6.200 373.200 C 5.267 373.200,5.200 373.333,5.200 375.200 C 5.200 377.067,5.133 377.200,4.200 377.200 C 3.267 377.200,3.200 377.333,3.200 379.200 C 3.200 381.067,3.133 381.200,2.200 381.200 C 1.222 381.200,1.200 381.267,1.200 384.200 C 1.200 386.600,1.080 387.200,0.600 387.200 C 0.092 387.200,0.000 388.178,0.000 393.600 L 0.000 400.000 2.400 400.000 C 4.267 400.000,4.800 399.867,4.800 399.400 C 4.800 399.027,5.178 398.800,5.800 398.800 C 6.600 398.800,6.800 398.600,6.800 397.800 C 6.800 397.000,7.000 396.800,7.800 396.800 C 8.733 396.800,8.800 396.667,8.800 394.800 C 8.800 392.933,8.867 392.800,9.800 392.800 C 10.600 392.800,10.800 392.600,10.800 391.800 C 10.800 391.000,11.000 390.800,11.800 390.800 C 12.600 390.800,12.800 390.600,12.800 389.800 C 12.800 389.000,13.000 388.800,13.800 388.800 C 14.600 388.800,14.800 388.600,14.800 387.800 C 14.800 387.000,15.000 386.800,15.800 386.800 C 16.600 386.800,16.800 386.600,16.800 385.800 C 16.800 385.000,17.000 384.800,17.800 384.800 C 18.600 384.800,18.800 384.600,18.800 383.800 C 18.800 383.000,19.000 382.800,19.800 382.800 C 20.733 382.800,20.800 382.667,20.800 380.800 C 20.800 378.933,20.867 378.800,21.800 378.800 C 22.600 378.800,22.800 378.600,22.800 377.800 C 22.800 377.000,23.000 376.800,23.800 376.800 C 24.600 376.800,24.800 376.600,24.800 375.800 C 24.800 375.000,25.000 374.800,25.800 374.800 C 26.600 374.800,26.800 374.600,26.800 373.800 C 26.800 373.000,27.000 372.800,27.800 372.800 C 28.600 372.800,28.800 372.600,28.800 371.800 C 28.800 371.000,29.000 370.800,29.800 370.800 C 30.600 370.800,30.800 370.600,30.800 369.800 C 30.800 369.000,31.000 368.800,31.800 368.800 C 32.733 368.800,32.800 368.667,32.800 366.800 C 32.800 364.933,32.867 364.800,33.800 364.800 C 34.600 364.800,34.800 364.600,34.800 363.800 C 34.800 363.000,35.000 362.800,35.800 362.800 C 36.600 362.800,36.800 362.600,36.800 361.800 C 36.800 361.000,37.000 360.800,37.800 360.800 C 38.600 360.800,38.800 360.600,38.800 359.800 C 38.800 359.000,39.000 358.800,39.800 358.800 C 40.600 358.800,40.800 358.600,40.800 357.800 C 40.800 357.000,41.000 356.800,41.800 356.800 C 42.733 356.800,42.800 356.667,42.800 354.800 C 42.800 352.933,42.867 352.800,43.800 352.800 C 44.600 352.800,44.800 352.600,44.800 351.800 C 44.800 351.000,45.000 350.800,45.800 350.800 C 46.600 350.800,46.800 350.600,46.800 349.800 C 46.800 349.000,47.000 348.800,47.800 348.800 C 48.600 348.800,48.800 348.600,48.800 347.800 C 48.800 347.000,49.000 346.800,49.800 346.800 C 50.600 346.800,50.800 346.600,50.800 345.800 C 50.800 345.000,51.000 344.800,51.800 344.800 C 52.600 344.800,52.800 344.600,52.800 343.800 C 52.800 343.000,53.000 342.800,53.800 342.800 C 54.733 342.800,54.800 342.667,54.800 340.800 C 54.800 338.933,54.867 338.800,55.800 338.800 C 56.600 338.800,56.800 338.600,56.800 337.800 C 56.800 337.000,57.000 336.800,57.800 336.800 C 58.600 336.800,58.800 336.600,58.800 335.800 C 58.800 335.000,59.000 334.800,59.800 334.800 C 60.600 334.800,60.800 334.600,60.800 333.800 C 60.800 333.000,61.000 332.800,61.800 332.800 C 62.600 332.800,62.800 332.600,62.800 331.800 C 62.800 331.000,63.000 330.800,63.800 330.800 C 64.733 330.800,64.800 330.667,64.800 328.800 C 64.800 326.933,64.867 326.800,65.800 326.800 C 66.600 326.800,66.800 326.600,66.800 325.800 C 66.800 325.000,67.000 324.800,67.800 324.800 C 68.600 324.800,68.800 324.600,68.800 323.800 C 68.800 323.000,69.000 322.800,69.800 322.800 C 70.600 322.800,70.800 322.600,70.800 321.800 C 70.800 321.000,71.000 320.800,71.800 320.800 C 72.600 320.800,72.800 320.600,72.800 319.800 C 72.800 319.000,73.000 318.800,73.800 318.800 C 74.600 318.800,74.800 318.600,74.800 317.800 C 74.800 317.000,75.000 316.800,75.800 316.800 C 76.733 316.800,76.800 316.667,76.800 314.800 L 76.800 312.800 81.800 312.800 L 86.800 312.800 86.800 311.800 L 86.800 310.800 94.800 310.800 L 102.800 310.800 102.800 309.800 L 102.800 308.800 107.800 308.800 L 112.800 308.800 112.800 307.800 L 112.800 306.800 117.800 306.800 L 122.800 306.800 122.800 305.800 L 122.800 304.800 126.800 304.800 L 130.800 304.800 130.800 303.800 L 130.800 302.800 134.800 302.800 L 138.800 302.800 138.800 301.800 C 138.800 300.822,138.867 300.800,141.800 300.800 C 144.733 300.800,144.800 300.778,144.800 299.800 C 144.800 298.822,144.867 298.800,147.800 298.800 C 150.733 298.800,150.800 298.778,150.800 297.800 C 150.800 296.822,150.867 296.800,153.800 296.800 C 156.733 296.800,156.800 296.778,156.800 295.800 C 156.800 294.822,156.867 294.800,159.800 294.800 C 162.733 294.800,162.800 294.778,162.800 293.800 C 162.800 292.867,162.933 292.800,164.800 292.800 C 166.667 292.800,166.800 292.733,166.800 291.800 C 166.800 290.822,166.867 290.800,169.800 290.800 C 172.733 290.800,172.800 290.778,172.800 289.800 C 172.800 288.867,172.933 288.800,174.800 288.800 C 176.667 288.800,176.800 288.733,176.800 287.800 C 176.800 286.867,176.933 286.800,178.800 286.800 C 180.667 286.800,180.800 286.733,180.800 285.800 C 180.800 284.867,180.933 284.800,182.800 284.800 C 184.667 284.800,184.800 284.733,184.800 283.800 C 184.800 282.867,184.933 282.800,186.800 282.800 C 188.667 282.800,188.800 282.733,188.800 281.800 C 188.800 280.867,188.933 280.800,190.800 280.800 C 192.667 280.800,192.800 280.733,192.800 279.800 C 192.800 278.867,192.933 278.800,194.800 278.800 C 196.667 278.800,196.800 278.733,196.800 277.800 C 196.800 276.867,196.933 276.800,198.800 276.800 C 200.667 276.800,200.800 276.733,200.800 275.800 C 200.800 274.867,200.933 274.800,202.800 274.800 C 204.667 274.800,204.800 274.733,204.800 273.800 C 204.800 272.867,204.933 272.800,206.800 272.800 C 208.667 272.800,208.800 272.733,208.800 271.800 C 208.800 270.867,208.933 270.800,210.800 270.800 C 212.667 270.800,212.800 270.733,212.800 269.800 C 212.800 268.867,212.933 268.800,214.800 268.800 C 216.667 268.800,216.800 268.733,216.800 267.800 C 216.800 267.000,217.000 266.800,217.800 266.800 C 218.600 266.800,218.800 266.600,218.800 265.800 C 218.800 264.867,218.933 264.800,220.800 264.800 C 222.667 264.800,222.800 264.733,222.800 263.800 C 222.800 262.867,222.933 262.800,224.800 262.800 C 226.667 262.800,226.800 262.733,226.800 261.800 C 226.800 261.000,227.000 260.800,227.800 260.800 C 228.600 260.800,228.800 260.600,228.800 259.800 C 228.800 258.867,228.933 258.800,230.800 258.800 C 232.667 258.800,232.800 258.733,232.800 257.800 C 232.800 257.000,233.000 256.800,233.800 256.800 C 234.600 256.800,234.800 256.600,234.800 255.800 C 234.800 254.867,234.933 254.800,236.800 254.800 C 238.667 254.800,238.800 254.733,238.800 253.800 C 238.800 253.000,239.000 252.800,239.800 252.800 C 240.600 252.800,240.800 252.600,240.800 251.800 C 240.800 250.867,240.933 250.800,242.800 250.800 C 244.667 250.800,244.800 250.733,244.800 249.800 C 244.800 249.000,245.000 248.800,245.800 248.800 C 246.600 248.800,246.800 248.600,246.800 247.800 C 246.800 246.867,246.933 246.800,248.800 246.800 C 250.667 246.800,250.800 246.733,250.800 245.800 C 250.800 245.000,251.000 244.800,251.800 244.800 C 252.593 244.800,252.800 244.598,252.800 243.827 C 252.800 243.062,253.036 242.826,253.900 242.727 C 254.692 242.635,254.999 242.376,254.997 241.800 C 254.995 241.133,255.327 240.967,256.997 240.800 C 258.669 240.633,258.999 240.468,258.995 239.800 C 258.992 239.264,259.322 238.933,259.995 238.796 C 260.666 238.660,260.998 238.328,260.995 237.796 C 260.992 237.265,261.324 236.932,261.995 236.796 C 262.666 236.660,262.998 236.328,262.995 235.796 C 262.992 235.265,263.324 234.932,263.995 234.796 C 264.665 234.660,264.999 234.327,264.997 233.796 C 264.995 233.133,265.330 232.966,266.997 232.800 C 268.669 232.633,268.999 232.468,268.995 231.800 C 268.992 231.264,269.322 230.933,269.995 230.796 C 270.666 230.660,270.998 230.328,270.995 229.796 C 270.992 229.265,271.324 228.932,271.995 228.796 C 272.666 228.660,272.998 228.328,272.995 227.796 C 272.992 227.265,273.324 226.932,273.995 226.796 C 274.665 226.660,274.999 226.327,274.997 225.796 C 274.995 225.133,275.330 224.966,276.997 224.800 C 278.669 224.633,278.999 224.468,278.995 223.800 C 278.992 223.264,279.322 222.933,279.995 222.796 C 280.666 222.660,280.998 222.328,280.995 221.796 C 280.992 221.265,281.324 220.932,281.995 220.796 C 282.666 220.660,282.998 220.328,282.995 219.796 C 282.992 219.265,283.324 218.932,283.995 218.796 C 284.666 218.660,284.998 218.328,284.995 217.796 C 284.992 217.265,285.324 216.932,285.995 216.796 C 286.666 216.660,286.998 216.328,286.995 215.796 C 286.992 215.265,287.324 214.932,287.995 214.796 C 288.666 214.660,288.998 214.328,288.995 213.796 C 288.992 213.265,289.324 212.932,289.995 212.796 C 290.666 212.660,290.998 212.328,290.995 211.796 C 290.992 211.265,291.324 210.932,291.995 210.796 C 292.666 210.660,292.998 210.328,292.995 209.796 C 292.992 209.265,293.324 208.932,293.995 208.796 C 294.665 208.660,294.999 208.327,294.997 207.796 C 294.995 207.133,295.330 206.966,296.997 206.800 C 298.669 206.633,298.999 206.468,298.995 205.800 C 298.992 205.264,299.322 204.933,299.995 204.796 C 300.666 204.660,300.998 204.328,300.995 203.796 C 300.992 203.265,301.325 202.931,301.995 202.794 C 302.728 202.644,302.987 202.346,302.952 201.694 C 302.915 201.007,303.123 200.800,303.852 200.800 C 304.597 200.800,304.800 200.585,304.800 199.800 C 304.800 199.000,305.000 198.800,305.800 198.800 C 306.600 198.800,306.800 198.600,306.800 197.800 C 306.800 197.000,307.000 196.800,307.800 196.800 C 308.600 196.800,308.800 196.600,308.800 195.800 C 308.800 195.000,309.000 194.800,309.800 194.800 C 310.733 194.800,310.800 194.667,310.800 192.800 C 310.800 190.933,310.867 190.800,311.800 190.800 C 312.600 190.800,312.800 190.600,312.800 189.800 C 312.800 189.000,313.000 188.800,313.800 188.800 C 314.600 188.800,314.800 188.600,314.800 187.800 C 314.800 187.000,315.000 186.800,315.800 186.800 C 316.600 186.800,316.800 186.600,316.800 185.800 C 316.800 185.000,317.000 184.800,317.800 184.800 C 318.600 184.800,318.800 184.600,318.800 183.800 C 318.800 183.000,319.000 182.800,319.800 182.800 C 320.600 182.800,320.800 182.600,320.800 181.800 C 320.800 181.000,321.000 180.800,321.800 180.800 C 322.600 180.800,322.800 180.600,322.800 179.800 C 322.800 179.000,323.000 178.800,323.800 178.800 C 324.600 178.800,324.800 178.600,324.800 177.800 C 324.800 177.000,325.000 176.800,325.800 176.800 C 326.600 176.800,326.800 176.600,326.800 175.800 C 326.800 175.000,327.000 174.800,327.800 174.800 C 328.733 174.800,328.800 174.667,328.800 172.800 C 328.800 170.933,328.867 170.800,329.800 170.800 C 330.600 170.800,330.800 170.600,330.800 169.800 C 330.800 169.000,331.000 168.800,331.800 168.800 C 332.600 168.800,332.800 168.600,332.800 167.800 C 332.800 167.000,333.000 166.800,333.800 166.800 C 334.600 166.800,334.800 166.600,334.800 165.800 C 334.800 165.000,335.000 164.800,335.800 164.800 C 336.600 164.800,336.800 164.600,336.800 163.800 C 336.800 163.000,337.000 162.800,337.800 162.800 C 338.771 162.800,338.800 162.720,338.800 160.000 C 338.800 157.280,338.771 157.200,337.800 157.200 C 337.000 157.200,336.800 157.000,336.800 156.200 L 336.800 155.200 314.700 155.127 C 302.545 155.086,294.040 154.951,295.800 154.827 C 298.659 154.624,299.000 154.515,298.997 153.800 C 298.995 153.133,299.327 152.967,300.997 152.800 C 302.767 152.623,302.994 152.495,302.952 151.700 C 302.907 150.844,303.048 150.800,305.852 150.800 C 308.730 150.800,308.800 150.776,308.800 149.800 C 308.800 148.822,308.867 148.800,311.800 148.800 C 314.733 148.800,314.800 148.778,314.800 147.800 C 314.800 146.867,314.933 146.800,316.800 146.800 C 318.667 146.800,318.800 146.733,318.800 145.800 C 318.800 144.822,318.867 144.800,321.800 144.800 C 324.733 144.800,324.800 144.778,324.800 143.800 C 324.800 142.822,324.867 142.800,327.800 142.800 C 330.733 142.800,330.800 142.778,330.800 141.800 C 330.800 140.867,330.933 140.800,332.800 140.800 C 334.667 140.800,334.800 140.733,334.800 139.800 C 334.800 138.822,334.867 138.800,337.800 138.800 C 340.733 138.800,340.800 138.778,340.800 137.800 C 340.800 136.822,340.867 136.800,343.800 136.800 C 346.733 136.800,346.800 136.778,346.800 135.800 C 346.800 134.867,346.933 134.800,348.800 134.800 C 350.667 134.800,350.800 134.733,350.800 133.800 C 350.800 132.822,350.867 132.800,353.800 132.800 C 356.733 132.800,356.800 132.778,356.800 131.800 C 356.800 130.867,356.933 130.800,358.800 130.800 L 360.800 130.800 360.800 128.800 C 360.800 126.933,360.867 126.800,361.800 126.800 C 362.600 126.800,362.800 126.600,362.800 125.800 C 362.800 125.000,363.000 124.800,363.800 124.800 C 364.733 124.800,364.800 124.667,364.800 122.800 C 364.800 120.933,364.867 120.800,365.800 120.800 C 366.733 120.800,366.800 120.667,366.800 118.800 C 366.800 116.933,366.867 116.800,367.800 116.800 C 368.600 116.800,368.800 116.600,368.800 115.800 C 368.800 115.000,369.000 114.800,369.800 114.800 C 370.733 114.800,370.800 114.667,370.800 112.800 C 370.800 110.933,370.867 110.800,371.800 110.800 C 372.733 110.800,372.800 110.667,372.800 108.800 C 372.800 106.933,372.867 106.800,373.800 106.800 C 374.733 106.800,374.800 106.667,374.800 104.800 C 374.800 102.933,374.867 102.800,375.800 102.800 C 376.733 102.800,376.800 102.667,376.800 100.800 C 376.800 98.933,376.867 98.800,377.800 98.800 C 378.733 98.800,378.800 98.667,378.800 96.800 C 378.800 94.933,378.867 94.800,379.800 94.800 C 380.733 94.800,380.800 94.667,380.800 92.800 C 380.800 90.933,380.867 90.800,381.800 90.800 C 382.733 90.800,382.800 90.667,382.800 88.800 C 382.800 86.933,382.867 86.800,383.800 86.800 C 384.778 86.800,384.800 86.733,384.800 83.800 C 384.800 80.867,384.822 80.800,385.800 80.800 C 386.733 80.800,386.800 80.667,386.800 78.800 C 386.800 76.933,386.867 76.800,387.800 76.800 C 388.778 76.800,388.800 76.733,388.800 73.800 C 388.800 70.867,388.822 70.800,389.800 70.800 C 390.778 70.800,390.800 70.733,390.800 67.800 C 390.800 64.867,390.822 64.800,391.800 64.800 C 392.778 64.800,392.800 64.733,392.800 61.800 C 392.800 58.867,392.822 58.800,393.800 58.800 C 394.778 58.800,394.800 58.733,394.800 55.800 C 394.800 52.867,394.822 52.800,395.800 52.800 L 396.800 52.800 396.800 47.800 L 396.800 42.800 397.800 42.800 L 398.800 42.800 398.800 37.800 C 398.800 33.622,398.899 32.800,399.400 32.800 C 399.924 32.800,400.000 30.711,400.000 16.400 L 400.000 0.000 389.600 0.000 C 380.622 0.000,379.200 0.082,379.200 0.600 M209.076 88.700 C 208.975 89.085,208.893 88.770,208.893 88.000 C 208.893 87.230,208.975 86.915,209.076 87.300 C 209.176 87.685,209.176 88.315,209.076 88.700 M385.200 326.200 C 385.200 327.000,385.000 327.200,384.200 327.200 C 383.400 327.200,383.200 327.400,383.200 328.200 C 383.200 329.133,383.067 329.200,381.200 329.200 C 379.333 329.200,379.200 329.267,379.200 330.200 C 379.200 331.133,379.067 331.200,377.200 331.200 C 375.333 331.200,375.200 331.267,375.200 332.200 C 375.200 333.178,375.133 333.200,372.200 333.200 C 369.267 333.200,369.200 333.222,369.200 334.200 C 369.200 335.133,369.067 335.200,367.200 335.200 C 365.333 335.200,365.200 335.267,365.200 336.200 C 365.200 337.178,365.133 337.200,362.200 337.200 C 359.267 337.200,359.200 337.222,359.200 338.200 C 359.200 339.133,359.067 339.200,357.200 339.200 C 355.333 339.200,355.200 339.267,355.200 340.200 C 355.200 341.133,355.067 341.200,353.200 341.200 C 351.333 341.200,351.200 341.267,351.200 342.200 C 351.200 343.178,351.133 343.200,348.200 343.200 C 345.267 343.200,345.200 343.222,345.200 344.200 C 345.200 345.133,345.067 345.200,343.200 345.200 C 341.333 345.200,341.200 345.267,341.200 346.200 C 341.200 347.178,341.133 347.200,338.200 347.200 C 335.267 347.200,335.200 347.222,335.200 348.200 C 335.200 349.133,335.067 349.200,333.200 349.200 C 331.333 349.200,331.200 349.267,331.200 350.200 C 331.200 351.133,331.067 351.200,329.200 351.200 C 327.333 351.200,327.200 351.267,327.200 352.200 C 327.200 353.178,327.133 353.200,324.200 353.200 C 321.267 353.200,321.200 353.222,321.200 354.200 C 321.200 355.133,321.067 355.200,319.200 355.200 C 317.333 355.200,317.200 355.267,317.200 356.200 C 317.200 357.178,317.133 357.200,314.200 357.200 C 311.267 357.200,311.200 357.222,311.200 358.200 C 311.200 359.133,311.067 359.200,309.200 359.200 C 307.333 359.200,307.200 359.267,307.200 360.200 C 307.200 361.178,307.133 361.200,304.200 361.200 C 301.267 361.200,301.200 361.222,301.200 362.200 C 301.200 363.133,301.067 363.200,299.200 363.200 C 297.333 363.200,297.200 363.267,297.200 364.200 C 297.200 365.133,297.067 365.200,295.200 365.200 C 293.333 365.200,293.200 365.267,293.200 366.200 C 293.200 367.178,293.133 367.200,290.200 367.200 C 287.267 367.200,287.200 367.222,287.200 368.200 L 287.200 369.200 283.200 369.200 L 279.200 369.200 279.200 370.200 L 279.200 371.200 272.200 371.200 L 265.200 371.200 265.200 372.200 L 265.200 373.200 251.000 373.200 L 236.800 373.200 236.800 372.000 C 236.800 370.987,236.956 370.800,237.800 370.800 C 238.600 370.800,238.800 370.600,238.800 369.800 C 238.800 369.000,239.000 368.800,239.800 368.800 C 240.733 368.800,240.800 368.667,240.800 366.800 C 240.800 364.933,240.867 364.800,241.800 364.800 C 242.778 364.800,242.800 364.733,242.800 361.800 C 242.800 358.867,242.822 358.800,243.800 358.800 L 244.800 358.800 244.800 352.000 L 244.800 345.200 243.800 345.200 C 242.867 345.200,242.800 345.067,242.800 343.200 C 242.800 341.333,242.733 341.200,241.800 341.200 C 241.000 341.200,240.800 341.000,240.800 340.200 C 240.800 339.400,240.600 339.200,239.800 339.200 C 239.000 339.200,238.800 339.000,238.800 338.200 C 238.800 337.400,238.600 337.200,237.800 337.200 C 237.000 337.200,236.800 337.000,236.800 336.200 C 236.800 335.400,236.600 335.200,235.800 335.200 C 235.000 335.200,234.800 335.000,234.800 334.200 C 234.800 333.267,234.667 333.200,232.800 333.200 C 230.933 333.200,230.800 333.133,230.800 332.200 L 230.800 331.200 226.800 331.200 L 222.800 331.200 222.800 330.200 L 222.800 329.200 202.000 329.200 L 181.200 329.200 181.200 330.200 L 181.200 331.200 173.200 331.200 L 165.200 331.200 165.200 332.200 L 165.200 333.200 159.200 333.200 L 153.200 333.200 153.200 334.200 L 153.200 335.200 149.200 335.200 L 145.200 335.200 145.200 336.200 L 145.200 337.200 141.200 337.200 L 137.200 337.200 137.200 338.200 L 137.200 339.200 133.200 339.200 L 129.200 339.200 129.200 340.200 C 129.200 341.178,129.133 341.200,126.200 341.200 C 123.267 341.200,123.200 341.222,123.200 342.200 C 123.200 343.178,123.133 343.200,120.200 343.200 C 117.267 343.200,117.200 343.222,117.200 344.200 C 117.200 345.178,117.133 345.200,114.200 345.200 C 111.267 345.200,111.200 345.222,111.200 346.200 C 111.200 347.133,111.067 347.200,109.200 347.200 C 107.333 347.200,107.200 347.267,107.200 348.200 C 107.200 349.178,107.133 349.200,104.200 349.200 C 101.267 349.200,101.200 349.222,101.200 350.200 C 101.200 351.178,101.133 351.200,98.200 351.200 C 95.267 351.200,95.200 351.222,95.200 352.200 C 95.200 353.133,95.067 353.200,93.200 353.200 C 91.333 353.200,91.200 353.267,91.200 354.200 C 91.200 355.133,91.067 355.200,89.200 355.200 C 87.333 355.200,87.200 355.267,87.200 356.200 C 87.200 357.178,87.133 357.200,84.200 357.200 C 81.267 357.200,81.200 357.222,81.200 358.200 C 81.200 359.133,81.067 359.200,79.200 359.200 C 77.333 359.200,77.200 359.267,77.200 360.200 C 77.200 361.133,77.067 361.200,75.200 361.200 C 73.333 361.200,73.200 361.267,73.200 362.200 C 73.200 363.133,73.067 363.200,71.200 363.200 C 69.333 363.200,69.200 363.267,69.200 364.200 C 69.200 365.133,69.067 365.200,67.200 365.200 C 65.333 365.200,65.200 365.267,65.200 366.200 C 65.200 367.133,65.067 367.200,63.200 367.200 C 61.333 367.200,61.200 367.267,61.200 368.200 C 61.200 369.133,61.067 369.200,59.200 369.200 C 57.333 369.200,57.200 369.267,57.200 370.200 C 57.200 371.000,57.000 371.200,56.200 371.200 C 55.400 371.200,55.200 371.400,55.200 372.200 C 55.200 373.133,55.067 373.200,53.200 373.200 C 51.333 373.200,51.200 373.267,51.200 374.200 C 51.200 375.133,51.067 375.200,49.200 375.200 C 47.333 375.200,47.200 375.267,47.200 376.200 C 47.200 377.133,47.067 377.200,45.200 377.200 C 43.333 377.200,43.200 377.267,43.200 378.200 C 43.200 379.000,43.000 379.200,42.200 379.200 C 41.400 379.200,41.200 379.400,41.200 380.200 C 41.200 381.133,41.067 381.200,39.200 381.200 C 37.333 381.200,37.200 381.267,37.200 382.200 C 37.200 383.000,37.000 383.200,36.200 383.200 C 35.229 383.200,35.200 383.280,35.200 386.000 L 35.200 388.800 39.000 388.800 C 42.787 388.800,42.800 388.796,42.800 387.800 C 42.800 386.867,42.933 386.800,44.800 386.800 C 46.667 386.800,46.800 386.733,46.800 385.800 C 46.800 384.867,46.933 384.800,48.800 384.800 C 50.667 384.800,50.800 384.733,50.800 383.800 C 50.800 382.867,50.933 382.800,52.800 382.800 C 54.667 382.800,54.800 382.733,54.800 381.800 C 54.800 380.822,54.867 380.800,57.800 380.800 C 60.733 380.800,60.800 380.778,60.800 379.800 C 60.800 378.867,60.933 378.800,62.800 378.800 C 64.667 378.800,64.800 378.733,64.800 377.800 C 64.800 376.822,64.867 376.800,67.800 376.800 C 70.733 376.800,70.800 376.778,70.800 375.800 C 70.800 374.867,70.933 374.800,72.800 374.800 C 74.667 374.800,74.800 374.733,74.800 373.800 C 74.800 372.822,74.867 372.800,77.800 372.800 C 80.733 372.800,80.800 372.778,80.800 371.800 C 80.800 370.822,80.867 370.800,83.800 370.800 C 86.733 370.800,86.800 370.778,86.800 369.800 C 86.800 368.822,86.867 368.800,89.800 368.800 C 92.733 368.800,92.800 368.778,92.800 367.800 C 92.800 366.822,92.867 366.800,95.800 366.800 C 98.733 366.800,98.800 366.778,98.800 365.800 C 98.800 364.822,98.867 364.800,101.800 364.800 C 104.733 364.800,104.800 364.778,104.800 363.800 C 104.800 362.822,104.867 362.800,107.800 362.800 C 110.733 362.800,110.800 362.778,110.800 361.800 L 110.800 360.800 114.800 360.800 L 118.800 360.800 118.800 359.800 C 118.800 358.822,118.867 358.800,121.800 358.800 C 124.733 358.800,124.800 358.778,124.800 357.800 L 124.800 356.800 128.800 356.800 L 132.800 356.800 132.800 355.800 L 132.800 354.800 137.800 354.800 L 142.800 354.800 142.800 353.800 L 142.800 352.800 146.800 352.800 L 150.800 352.800 150.800 351.800 L 150.800 350.800 156.800 350.800 L 162.800 350.800 162.800 349.800 L 162.800 348.800 169.800 348.800 L 176.800 348.800 176.800 347.800 L 176.800 346.800 197.000 346.800 L 217.200 346.800 217.200 347.800 C 217.200 348.778,217.267 348.800,220.200 348.800 C 223.133 348.800,223.200 348.822,223.200 349.800 C 223.200 350.600,223.400 350.800,224.200 350.800 C 225.183 350.800,225.200 350.853,225.200 354.000 C 225.200 357.147,225.183 357.200,224.200 357.200 C 223.400 357.200,223.200 357.400,223.200 358.200 C 223.200 359.000,223.000 359.200,222.200 359.200 C 221.267 359.200,221.200 359.333,221.200 361.200 C 221.200 363.067,221.133 363.200,220.200 363.200 C 219.400 363.200,219.200 363.400,219.200 364.200 C 219.200 365.000,219.000 365.200,218.200 365.200 C 217.267 365.200,217.200 365.333,217.200 367.200 C 217.200 369.067,217.133 369.200,216.200 369.200 C 215.222 369.200,215.200 369.267,215.200 372.200 C 215.200 375.133,215.178 375.200,214.200 375.200 C 213.229 375.200,213.200 375.280,213.200 378.000 C 213.200 380.720,213.229 380.800,214.200 380.800 C 215.133 380.800,215.200 380.933,215.200 382.800 L 215.200 384.800 217.200 384.800 C 219.067 384.800,219.200 384.867,219.200 385.800 C 219.200 386.733,219.333 386.800,221.200 386.800 C 223.067 386.800,223.200 386.867,223.200 387.800 L 223.200 388.800 238.000 388.800 L 252.800 388.800 252.800 387.821 C 252.800 386.922,252.972 386.832,254.900 386.721 C 256.694 386.618,257.000 386.483,256.997 385.800 C 256.995 385.133,257.327 384.967,258.997 384.800 C 260.667 384.633,261.000 384.467,260.998 383.800 C 260.997 383.089,261.329 382.978,263.998 382.800 C 266.668 382.622,267.000 382.511,266.997 381.800 C 266.995 381.133,267.327 380.967,268.997 380.800 C 270.667 380.633,271.000 380.467,270.998 379.800 C 270.997 379.089,271.329 378.978,273.998 378.800 C 276.668 378.622,277.000 378.511,276.997 377.800 C 276.995 377.133,277.327 376.967,278.997 376.800 C 280.667 376.633,281.000 376.467,280.998 375.800 C 280.997 375.089,281.329 374.978,283.998 374.800 L 287.000 374.600 286.946 372.400 C 286.917 371.190,286.974 370.793,287.073 371.517 L 287.253 372.834 290.127 372.717 C 292.695 372.612,293.000 372.515,292.999 371.800 C 292.998 371.067,293.330 370.983,296.999 370.800 C 300.840 370.608,300.998 370.564,300.952 369.700 C 300.907 368.844,301.048 368.800,303.852 368.800 C 306.730 368.800,306.800 368.776,306.800 367.800 C 306.800 366.822,306.867 366.800,309.800 366.800 C 312.733 366.800,312.800 366.778,312.800 365.800 C 312.800 364.822,312.867 364.800,315.800 364.800 C 318.733 364.800,318.800 364.778,318.800 363.800 C 318.800 362.822,318.867 362.800,321.800 362.800 C 324.733 362.800,324.800 362.778,324.800 361.800 C 324.800 360.867,324.933 360.800,326.800 360.800 C 328.667 360.800,328.800 360.733,328.800 359.800 C 328.800 358.822,328.867 358.800,331.800 358.800 C 334.733 358.800,334.800 358.778,334.800 357.800 C 334.800 356.867,334.933 356.800,336.800 356.800 C 338.667 356.800,338.800 356.733,338.800 355.800 C 338.800 354.867,338.933 354.800,340.800 354.800 C 342.667 354.800,342.800 354.733,342.800 353.800 C 342.800 352.822,342.867 352.800,345.800 352.800 C 348.733 352.800,348.800 352.778,348.800 351.800 C 348.800 350.867,348.933 350.800,350.800 350.800 C 352.667 350.800,352.800 350.733,352.800 349.800 C 352.800 348.867,352.933 348.800,354.800 348.800 C 356.667 348.800,356.800 348.733,356.800 347.800 C 356.800 346.867,356.933 346.800,358.800 346.800 C 360.667 346.800,360.800 346.733,360.800 345.800 C 360.800 344.867,360.933 344.800,362.800 344.800 C 364.667 344.800,364.800 344.733,364.800 343.800 C 364.800 342.867,364.933 342.800,366.800 342.800 C 368.667 342.800,368.800 342.733,368.800 341.800 C 368.800 340.867,368.933 340.800,370.800 340.800 C 372.667 340.800,372.800 340.733,372.800 339.800 C 372.800 339.000,373.000 338.800,373.800 338.800 C 374.600 338.800,374.800 338.600,374.800 337.800 C 374.800 336.867,374.933 336.800,376.800 336.800 C 378.667 336.800,378.800 336.733,378.800 335.800 C 378.800 334.867,378.933 334.800,380.800 334.800 C 382.667 334.800,382.800 334.733,382.800 333.800 C 382.800 332.867,382.933 332.800,384.800 332.800 C 386.667 332.800,386.800 332.733,386.800 331.800 C 386.800 330.822,386.867 330.800,389.800 330.800 L 392.800 330.800 392.800 328.000 L 392.800 325.200 389.000 325.200 C 385.213 325.200,385.200 325.204,385.200 326.200 " stroke="none" fill="#848484" fill-rule="evenodd"></path><path id="path1" d="M286.901 371.800 C 286.905 372.680,286.987 372.993,287.083 372.495 C 287.179 371.998,287.175 371.278,287.075 370.895 C 286.975 370.513,286.896 370.920,286.901 371.800 " stroke="none" fill="#888484" fill-rule="evenodd"></path></g></svg>