<svg id="svg" version="1.1" xmlns="http://www.w3.org/2000/svg" xmlns:xlink="http://www.w3.org/1999/xlink" width="400" height="422.3880597014926" viewBox="0, 0, 400,422.3880597014926"><g id="svgg"><path id="path0" d="M184.800 50.000 C 184.800 50.220,183.810 50.400,182.600 50.400 C 181.390 50.400,180.400 50.580,180.400 50.800 C 180.400 51.020,179.500 51.200,178.400 51.200 C 177.300 51.200,176.400 51.362,176.400 51.559 C 176.400 51.757,175.139 52.045,173.598 52.200 C 172.058 52.355,170.697 52.643,170.575 52.841 C 170.453 53.038,169.733 53.200,168.976 53.200 C 168.219 53.200,167.600 53.380,167.600 53.600 C 167.600 53.820,167.060 54.000,166.400 54.000 C 165.740 54.000,165.200 54.180,165.200 54.400 C 165.200 54.620,164.930 54.800,164.600 54.800 C 164.270 54.800,164.000 54.980,164.000 55.200 C 164.000 55.420,163.460 55.600,162.800 55.600 C 162.140 55.600,161.600 55.780,161.600 56.000 C 161.600 56.220,161.060 56.400,160.400 56.400 C 159.740 56.400,159.200 56.560,159.200 56.757 C 159.200 57.105,157.297 57.796,156.700 57.666 C 156.535 57.630,156.400 57.780,156.400 58.000 C 156.400 58.220,156.040 58.400,155.600 58.400 C 155.160 58.400,154.800 58.580,154.800 58.800 C 154.800 59.020,154.440 59.200,154.000 59.200 C 153.560 59.200,153.200 59.380,153.200 59.600 C 153.200 59.820,152.930 60.000,152.600 60.000 C 152.270 60.000,152.000 60.180,152.000 60.400 C 152.000 60.620,151.640 60.800,151.200 60.800 C 150.760 60.800,150.400 60.980,150.400 61.200 C 150.400 61.420,150.040 61.600,149.600 61.600 C 149.160 61.600,148.800 61.780,148.800 62.000 C 148.800 62.220,148.459 62.400,148.043 62.400 C 147.626 62.400,147.182 62.670,147.055 63.000 C 146.929 63.330,146.459 63.600,146.013 63.600 C 145.566 63.600,145.200 63.780,145.200 64.000 C 145.200 64.220,144.945 64.400,144.634 64.400 C 144.323 64.400,143.558 64.940,142.935 65.600 C 142.312 66.260,141.617 66.800,141.390 66.800 C 141.162 66.800,140.717 67.160,140.400 67.600 C 140.083 68.040,139.511 68.400,139.130 68.400 C 138.748 68.400,137.986 68.850,137.436 69.400 C 136.886 69.950,136.326 70.400,136.192 70.400 C 136.058 70.400,135.080 71.291,134.020 72.379 C 132.960 73.468,131.981 74.248,131.846 74.113 C 131.711 73.977,131.600 74.077,131.600 74.333 C 131.600 74.590,131.330 74.800,131.000 74.800 C 130.670 74.800,130.400 75.083,130.400 75.429 C 130.400 76.157,129.701 76.931,128.700 77.310 C 128.315 77.456,128.000 77.760,128.000 77.986 C 128.000 78.211,126.470 79.923,124.600 81.789 C 122.730 83.654,121.200 85.334,121.200 85.521 C 121.200 85.708,120.750 86.283,120.200 86.800 C 119.650 87.317,119.200 88.028,119.200 88.381 C 119.200 88.735,118.840 89.283,118.400 89.600 C 117.960 89.917,117.600 90.367,117.600 90.600 C 117.600 90.833,117.240 91.283,116.800 91.600 C 116.360 91.917,116.000 92.457,116.000 92.800 C 116.000 93.143,115.640 93.683,115.200 94.000 C 114.760 94.317,114.400 94.903,114.400 95.301 C 114.400 95.699,114.130 96.129,113.800 96.255 C 113.470 96.382,113.200 96.826,113.200 97.243 C 113.200 97.659,113.020 98.000,112.800 98.000 C 112.580 98.000,112.400 98.360,112.400 98.800 C 112.400 99.240,112.220 99.600,112.000 99.600 C 111.780 99.600,111.600 99.960,111.600 100.400 C 111.600 100.840,111.420 101.200,111.200 101.200 C 110.980 101.200,110.800 101.470,110.800 101.800 C 110.800 102.130,110.620 102.400,110.400 102.400 C 110.180 102.400,110.000 102.760,110.000 103.200 C 110.000 103.640,109.820 104.000,109.600 104.000 C 109.380 104.000,109.200 104.360,109.200 104.800 C 109.200 105.240,109.040 105.600,108.845 105.600 C 108.649 105.600,108.371 106.230,108.226 107.000 C 108.082 107.770,107.792 108.400,107.582 108.400 C 107.372 108.400,107.200 108.940,107.200 109.600 C 107.200 110.260,107.020 110.800,106.800 110.800 C 106.580 110.800,106.400 111.250,106.400 111.800 C 106.400 112.350,106.220 112.800,106.000 112.800 C 105.780 112.800,105.600 113.340,105.600 114.000 C 105.600 114.660,105.420 115.200,105.200 115.200 C 104.980 115.200,104.800 115.740,104.800 116.400 C 104.800 117.060,104.620 117.600,104.400 117.600 C 104.180 117.600,104.000 118.050,104.000 118.600 C 104.000 119.150,103.841 119.600,103.647 119.600 C 103.453 119.600,103.167 120.950,103.013 122.600 C 102.858 124.250,102.567 125.600,102.366 125.600 C 102.165 125.600,102.000 126.399,102.000 127.376 C 102.000 128.353,101.820 129.264,101.600 129.400 C 101.380 129.536,101.200 130.717,101.200 132.024 C 101.200 133.341,101.022 134.400,100.800 134.400 C 100.543 134.400,100.400 138.400,100.400 145.600 C 100.400 152.800,100.543 156.800,100.800 156.800 C 101.026 156.800,101.200 157.933,101.200 159.400 C 101.200 160.867,101.374 162.000,101.600 162.000 C 101.822 162.000,102.000 163.067,102.000 164.400 C 102.000 165.720,102.162 166.800,102.359 166.800 C 102.557 166.800,102.845 168.061,103.000 169.602 C 103.155 171.142,103.443 172.503,103.641 172.625 C 103.838 172.747,104.000 173.287,104.000 173.824 C 104.000 174.361,104.180 174.800,104.400 174.800 C 104.620 174.800,104.800 175.239,104.800 175.776 C 104.800 176.313,104.980 176.864,105.200 177.000 C 105.420 177.136,105.600 177.687,105.600 178.224 C 105.600 178.761,105.780 179.200,106.000 179.200 C 106.220 179.200,106.400 179.639,106.400 180.176 C 106.400 180.713,106.580 181.264,106.800 181.400 C 107.020 181.536,107.200 181.997,107.200 182.424 C 107.200 182.851,107.378 183.200,107.595 183.200 C 107.813 183.200,108.106 183.924,108.248 184.809 C 108.389 185.694,108.661 186.514,108.853 186.632 C 109.044 186.751,109.200 187.197,109.200 187.624 C 109.200 188.051,109.380 188.400,109.600 188.400 C 109.820 188.400,110.000 188.670,110.000 189.000 C 110.000 189.330,110.180 189.600,110.400 189.600 C 110.620 189.600,110.800 189.960,110.800 190.400 C 110.800 190.840,110.980 191.200,111.200 191.200 C 111.420 191.200,111.600 191.520,111.600 191.912 C 111.600 192.303,111.960 192.883,112.400 193.200 C 112.840 193.517,113.200 194.007,113.200 194.288 C 113.200 194.570,113.380 194.800,113.600 194.800 C 113.820 194.800,114.000 195.147,114.000 195.571 C 114.000 195.996,114.270 196.613,114.600 196.943 C 114.930 197.273,115.200 197.786,115.200 198.083 C 115.200 198.380,115.560 198.883,116.000 199.200 C 116.440 199.517,116.800 199.967,116.800 200.200 C 116.800 200.433,117.160 200.883,117.600 201.200 C 118.040 201.517,118.400 202.020,118.400 202.317 C 118.400 202.614,118.625 203.108,118.900 203.415 C 119.989 204.629,120.400 205.177,120.400 205.414 C 120.400 205.551,121.120 206.354,122.000 207.200 C 122.880 208.046,123.600 209.021,123.600 209.369 C 123.600 209.716,123.780 210.000,124.000 210.000 C 124.220 210.000,124.400 210.168,124.400 210.373 C 124.400 210.753,122.846 211.423,122.300 211.279 C 122.135 211.236,122.000 211.380,122.000 211.600 C 122.000 211.820,121.449 212.000,120.776 212.000 C 120.063 212.000,119.656 212.167,119.800 212.400 C 119.936 212.620,119.677 212.800,119.224 212.800 C 118.771 212.800,118.400 212.980,118.400 213.200 C 118.400 213.420,118.040 213.600,117.600 213.600 C 117.160 213.600,116.800 213.780,116.800 214.000 C 116.800 214.220,116.440 214.400,116.000 214.400 C 115.560 214.400,115.200 214.580,115.200 214.800 C 115.200 215.020,114.930 215.200,114.600 215.200 C 114.270 215.200,114.000 215.364,114.000 215.565 C 114.000 215.766,113.280 216.051,112.400 216.200 C 111.520 216.349,110.800 216.634,110.800 216.835 C 110.800 217.036,110.440 217.200,110.000 217.200 C 109.560 217.200,109.200 217.380,109.200 217.600 C 109.200 217.820,108.930 218.000,108.600 218.000 C 108.270 218.000,108.000 218.180,108.000 218.400 C 108.000 218.620,107.640 218.800,107.200 218.800 C 106.760 218.800,106.400 218.980,106.400 219.200 C 106.400 219.420,106.080 219.600,105.688 219.600 C 105.297 219.600,104.717 219.960,104.400 220.400 C 104.083 220.840,103.593 221.200,103.312 221.200 C 103.030 221.200,102.800 221.380,102.800 221.600 C 102.800 221.820,102.453 222.000,102.029 222.000 C 101.604 222.000,101.012 222.225,100.713 222.500 C 99.875 223.270,98.474 224.000,97.832 224.000 C 97.514 224.000,97.140 224.360,97.000 224.800 C 96.860 225.240,96.398 225.600,95.973 225.600 C 95.548 225.600,95.200 225.780,95.200 226.000 C 95.200 226.220,94.840 226.400,94.400 226.400 C 93.960 226.400,93.600 226.568,93.600 226.773 C 93.600 226.978,93.199 227.273,92.708 227.429 C 92.217 227.585,91.335 228.227,90.748 228.856 C 90.160 229.485,89.431 230.000,89.128 230.000 C 88.825 230.000,88.317 230.360,88.000 230.800 C 87.683 231.240,87.185 231.600,86.893 231.600 C 86.601 231.600,85.945 232.050,85.435 232.600 C 84.925 233.150,84.336 233.600,84.124 233.600 C 83.913 233.600,83.034 234.317,82.170 235.193 C 81.307 236.070,80.465 236.790,80.301 236.793 C 80.136 236.797,79.334 237.430,78.518 238.200 C 77.701 238.970,76.711 239.600,76.317 239.600 C 75.922 239.600,75.600 239.775,75.600 239.989 C 75.600 240.521,69.571 246.400,69.025 246.400 C 68.440 246.400,61.600 253.555,61.600 254.168 C 61.600 254.533,61.263 254.800,60.800 254.800 C 60.360 254.800,60.000 255.026,60.000 255.302 C 60.000 255.577,59.010 256.842,57.800 258.111 C 56.590 259.380,55.600 260.513,55.600 260.628 C 55.600 260.742,55.195 261.252,54.700 261.759 C 52.897 263.609,52.000 264.819,52.000 265.403 C 52.000 265.731,51.848 266.000,51.661 266.000 C 51.108 266.000,49.600 267.454,49.600 267.986 C 49.600 268.257,49.085 268.960,48.456 269.548 C 47.827 270.135,47.185 271.017,47.029 271.508 C 46.873 271.999,46.578 272.400,46.373 272.400 C 46.168 272.400,46.000 272.720,46.000 273.112 C 46.000 273.503,45.640 274.083,45.200 274.400 C 44.760 274.717,44.400 275.220,44.400 275.517 C 44.400 276.194,43.381 277.247,43.048 276.914 C 42.911 276.778,42.800 277.057,42.800 277.533 C 42.800 278.010,42.623 278.400,42.408 278.400 C 42.192 278.400,41.893 278.895,41.744 279.500 C 41.594 280.105,41.172 280.870,40.806 281.200 C 40.439 281.530,39.884 282.385,39.572 283.100 C 39.260 283.815,38.869 284.400,38.702 284.400 C 38.536 284.400,38.400 284.760,38.400 285.200 C 38.400 285.640,38.220 286.000,38.000 286.000 C 37.780 286.000,37.600 286.270,37.600 286.600 C 37.600 286.930,37.234 287.566,36.788 288.013 C 36.341 288.459,35.868 289.359,35.737 290.012 C 35.607 290.666,35.343 291.200,35.150 291.200 C 34.958 291.200,34.800 291.560,34.800 292.000 C 34.800 292.440,34.620 292.800,34.400 292.800 C 34.180 292.800,34.000 293.250,34.000 293.800 C 34.000 294.350,33.820 294.800,33.600 294.800 C 33.380 294.800,33.200 295.160,33.200 295.600 C 33.200 296.040,33.020 296.400,32.800 296.400 C 32.580 296.400,32.400 296.760,32.400 297.200 C 32.400 297.640,32.220 298.000,32.000 298.000 C 31.780 298.000,31.600 298.270,31.600 298.600 C 31.600 298.930,31.426 299.200,31.214 299.200 C 31.001 299.200,30.708 300.100,30.562 301.200 C 30.416 302.300,30.140 303.200,29.948 303.200 C 29.757 303.200,29.600 303.470,29.600 303.800 C 29.600 304.130,29.420 304.400,29.200 304.400 C 28.980 304.400,28.800 304.814,28.800 305.320 C 28.800 306.374,27.947 308.392,27.500 308.397 C 27.335 308.399,27.200 308.839,27.200 309.376 C 27.200 309.913,27.020 310.464,26.800 310.600 C 26.580 310.736,26.400 311.276,26.400 311.800 C 26.400 312.324,26.238 312.853,26.039 312.976 C 25.841 313.098,25.553 314.279,25.400 315.599 C 25.247 316.920,24.959 318.000,24.761 318.000 C 24.562 318.000,24.400 318.540,24.400 319.200 C 24.400 319.860,24.220 320.400,24.000 320.400 C 23.780 320.400,23.600 321.030,23.600 321.800 C 23.600 322.570,23.420 323.200,23.200 323.200 C 22.980 323.200,22.800 323.830,22.800 324.600 C 22.800 325.370,22.620 326.000,22.400 326.000 C 22.180 326.000,22.000 326.900,22.000 328.000 C 22.000 329.100,21.820 330.000,21.600 330.000 C 21.380 330.000,21.200 330.810,21.200 331.800 C 21.200 332.790,21.020 333.600,20.800 333.600 C 20.569 333.600,20.400 334.856,20.400 336.567 C 20.400 338.509,20.235 339.588,19.923 339.692 C 19.567 339.811,19.401 344.006,19.272 356.126 L 19.098 372.400 197.002 372.400 L 374.905 372.400 374.725 355.992 C 374.595 344.124,374.414 339.454,374.072 339.112 C 373.809 338.849,373.600 337.524,373.600 336.120 C 373.600 334.707,373.424 333.600,373.200 333.600 C 372.980 333.600,372.800 332.790,372.800 331.800 C 372.800 330.810,372.620 330.000,372.400 330.000 C 372.180 330.000,372.000 329.100,372.000 328.000 C 372.000 326.900,371.820 326.000,371.600 326.000 C 371.380 326.000,371.200 325.370,371.200 324.600 C 371.200 323.830,371.020 323.200,370.800 323.200 C 370.580 323.200,370.400 322.570,370.400 321.800 C 370.400 321.030,370.245 320.400,370.056 320.400 C 369.867 320.400,369.607 319.384,369.479 318.143 C 369.351 316.902,369.056 315.696,368.823 315.463 C 368.590 315.230,368.400 314.536,368.400 313.920 C 368.400 313.304,368.220 312.800,368.000 312.800 C 367.780 312.800,367.600 312.260,367.600 311.600 C 367.600 310.940,367.420 310.400,367.200 310.400 C 366.980 310.400,366.800 309.950,366.800 309.400 C 366.800 308.850,366.620 308.400,366.400 308.400 C 366.180 308.400,366.000 307.860,366.000 307.200 C 366.000 306.540,365.820 306.000,365.600 306.000 C 365.380 306.000,365.200 305.629,365.200 305.176 C 365.200 304.723,365.043 304.450,364.851 304.569 C 364.658 304.688,364.382 303.888,364.237 302.792 C 364.091 301.697,363.799 300.800,363.586 300.800 C 363.374 300.800,363.200 300.350,363.200 299.800 C 363.200 299.250,363.020 298.800,362.800 298.800 C 362.580 298.800,362.400 298.440,362.400 298.000 C 362.400 297.560,362.220 297.200,362.000 297.200 C 361.780 297.200,361.600 296.840,361.600 296.400 C 361.600 295.960,361.420 295.600,361.200 295.600 C 360.980 295.600,360.800 295.240,360.800 294.800 C 360.800 294.360,360.620 294.000,360.400 294.000 C 360.180 294.000,360.000 293.730,360.000 293.400 C 360.000 293.070,359.820 292.800,359.600 292.800 C 359.380 292.800,359.200 292.440,359.200 292.000 C 359.200 291.560,359.036 291.200,358.835 291.200 C 358.634 291.200,358.349 290.480,358.200 289.600 C 358.051 288.720,357.766 288.000,357.565 288.000 C 357.364 288.000,357.200 287.730,357.200 287.400 C 357.200 287.070,357.020 286.800,356.800 286.800 C 356.580 286.800,356.400 286.440,356.400 286.000 C 356.400 285.560,356.220 285.200,356.000 285.200 C 355.780 285.200,355.600 284.880,355.600 284.488 C 355.600 284.097,355.240 283.517,354.800 283.200 C 354.360 282.883,354.000 282.393,354.000 282.112 C 354.000 281.830,353.820 281.600,353.600 281.600 C 353.380 281.600,353.200 281.240,353.200 280.800 C 353.200 280.360,353.009 280.000,352.776 280.000 C 352.543 280.000,352.464 279.820,352.600 279.600 C 352.736 279.380,352.657 279.200,352.424 279.200 C 352.191 279.200,352.000 278.917,352.000 278.571 C 352.000 277.826,351.003 276.731,350.648 277.086 C 350.511 277.222,350.400 276.983,350.400 276.555 C 350.400 276.127,350.040 275.517,349.600 275.200 C 349.160 274.883,348.800 274.343,348.800 274.000 C 348.800 273.657,348.440 273.117,348.000 272.800 C 347.560 272.483,347.200 272.001,347.200 271.730 C 347.200 271.458,346.750 270.786,346.200 270.236 C 345.650 269.686,345.200 268.958,345.200 268.618 C 345.200 268.278,345.016 268.000,344.792 268.000 C 344.568 268.000,344.466 267.550,344.566 267.000 C 344.665 266.450,344.579 266.000,344.374 266.000 C 344.168 266.000,343.986 266.315,343.968 266.700 C 343.944 267.232,343.882 267.261,343.709 266.823 C 343.584 266.505,343.103 265.839,342.641 265.342 C 341.146 263.736,340.800 263.243,340.796 262.717 C 340.794 262.433,340.299 261.810,339.696 261.334 C 337.509 259.607,336.800 258.897,336.800 258.436 C 336.800 257.920,336.276 257.218,334.891 255.879 C 333.712 254.739,329.785 250.824,329.342 250.347 C 329.154 250.144,328.010 249.008,326.800 247.822 C 325.590 246.636,324.394 245.426,324.143 245.133 C 323.039 243.844,320.725 242.000,320.213 242.000 C 319.906 242.000,319.540 241.640,319.400 241.200 C 319.260 240.760,318.878 240.400,318.549 240.400 C 318.221 240.400,318.044 240.253,318.155 240.073 C 318.266 239.893,317.985 239.488,317.530 239.173 C 317.074 238.858,316.467 238.375,316.180 238.100 C 315.892 237.825,315.374 237.600,315.029 237.600 C 314.683 237.600,314.397 237.465,314.394 237.300 C 314.382 236.778,312.115 234.400,311.629 234.400 C 311.373 234.400,310.714 233.950,310.164 233.400 C 309.614 232.850,308.942 232.400,308.670 232.400 C 308.399 232.400,307.917 232.040,307.600 231.600 C 307.283 231.160,306.775 230.800,306.472 230.800 C 306.169 230.800,305.417 230.260,304.800 229.600 C 304.183 228.940,303.503 228.400,303.288 228.400 C 303.074 228.400,302.674 228.130,302.400 227.800 C 302.126 227.470,301.604 227.200,301.239 227.200 C 300.875 227.200,300.317 226.840,300.000 226.400 C 299.683 225.960,299.103 225.600,298.712 225.600 C 298.320 225.600,298.000 225.420,298.000 225.200 C 298.000 224.980,297.770 224.800,297.488 224.800 C 297.207 224.800,296.717 224.440,296.400 224.000 C 296.083 223.560,295.503 223.200,295.112 223.200 C 294.720 223.200,294.400 223.020,294.400 222.800 C 294.400 222.580,294.053 222.400,293.629 222.400 C 293.204 222.400,292.587 222.130,292.257 221.800 C 291.927 221.470,291.464 221.200,291.229 221.200 C 290.993 221.200,290.800 221.020,290.800 220.800 C 290.800 220.580,290.480 220.400,290.088 220.400 C 289.697 220.400,289.117 220.040,288.800 219.600 C 288.464 219.134,287.765 218.800,287.126 218.800 C 286.438 218.800,285.868 218.502,285.600 218.000 C 285.365 217.560,284.908 217.200,284.586 217.200 C 284.264 217.200,284.000 217.036,284.000 216.835 C 284.000 216.634,283.280 216.349,282.400 216.200 C 281.520 216.051,280.800 215.766,280.800 215.565 C 280.800 215.364,280.530 215.200,280.200 215.200 C 279.870 215.200,279.600 215.020,279.600 214.800 C 279.600 214.580,279.240 214.400,278.800 214.400 C 278.360 214.400,278.000 214.220,278.000 214.000 C 278.000 213.780,277.640 213.600,277.200 213.600 C 276.760 213.600,276.400 213.420,276.400 213.200 C 276.400 212.980,275.950 212.800,275.400 212.800 C 274.850 212.800,274.400 212.620,274.400 212.400 C 274.400 212.180,274.040 212.000,273.600 212.000 C 273.160 212.000,272.800 211.836,272.800 211.635 C 272.800 211.434,272.080 211.149,271.200 211.000 C 269.808 210.765,268.890 210.000,270.000 210.000 C 270.220 210.000,270.400 209.716,270.400 209.369 C 270.400 209.021,271.120 208.046,272.000 207.200 C 272.880 206.354,273.600 205.512,273.600 205.327 C 273.600 205.143,274.050 204.507,274.600 203.913 C 275.150 203.320,275.600 202.629,275.600 202.378 C 275.600 202.127,276.140 201.417,276.800 200.800 C 277.460 200.183,278.000 199.481,278.000 199.240 C 278.000 198.998,278.180 198.800,278.400 198.800 C 278.620 198.800,278.800 198.450,278.800 198.023 C 278.800 197.595,279.136 197.010,279.546 196.723 C 279.957 196.435,280.413 195.650,280.561 194.978 C 280.709 194.305,281.183 193.501,281.615 193.189 C 282.047 192.878,282.400 192.303,282.400 191.912 C 282.400 191.520,282.580 191.200,282.800 191.200 C 283.020 191.200,283.200 190.840,283.200 190.400 C 283.200 189.960,283.380 189.600,283.600 189.600 C 283.820 189.600,284.000 189.330,284.000 189.000 C 284.000 188.670,284.180 188.400,284.400 188.400 C 284.620 188.400,284.800 188.040,284.800 187.600 C 284.800 187.160,284.956 186.800,285.147 186.800 C 285.338 186.800,285.597 186.039,285.722 185.109 C 285.846 184.178,286.140 183.353,286.374 183.275 C 286.608 183.197,286.800 182.788,286.800 182.367 C 286.800 181.945,286.980 181.600,287.200 181.600 C 287.420 181.600,287.600 181.060,287.600 180.400 C 287.600 179.740,287.780 179.200,288.000 179.200 C 288.220 179.200,288.400 178.750,288.400 178.200 C 288.400 177.650,288.580 177.200,288.800 177.200 C 289.020 177.200,289.200 176.660,289.200 176.000 C 289.200 175.340,289.380 174.800,289.600 174.800 C 289.820 174.800,290.000 174.361,290.000 173.824 C 290.000 173.287,290.180 172.736,290.400 172.600 C 290.620 172.464,290.800 171.748,290.800 171.010 C 290.800 170.271,290.979 169.607,291.198 169.533 C 291.416 169.460,291.713 167.735,291.857 165.700 C 292.002 163.665,292.273 162.000,292.460 162.000 C 292.647 162.000,292.800 160.830,292.800 159.400 C 292.800 157.933,292.974 156.800,293.200 156.800 C 293.457 156.800,293.600 152.792,293.600 145.576 C 293.600 138.196,293.463 134.437,293.200 134.600 C 292.948 134.756,292.800 133.796,292.800 132.000 C 292.800 130.434,292.645 129.248,292.457 129.365 C 292.268 129.482,291.990 128.097,291.840 126.289 C 291.691 124.480,291.395 122.940,291.184 122.867 C 290.973 122.793,290.800 122.028,290.800 121.167 C 290.800 120.305,290.620 119.600,290.400 119.600 C 290.180 119.600,290.000 119.150,290.000 118.600 C 290.000 118.050,289.820 117.600,289.600 117.600 C 289.380 117.600,289.200 117.060,289.200 116.400 C 289.200 115.740,289.020 115.200,288.800 115.200 C 288.580 115.200,288.400 114.660,288.400 114.000 C 288.400 113.340,288.220 112.800,288.000 112.800 C 287.780 112.800,287.600 112.350,287.600 111.800 C 287.600 111.250,287.420 110.800,287.200 110.800 C 286.980 110.800,286.800 110.260,286.800 109.600 C 286.800 108.940,286.640 108.400,286.445 108.400 C 286.249 108.400,285.971 107.770,285.826 107.000 C 285.682 106.230,285.392 105.600,285.182 105.600 C 284.972 105.600,284.800 105.240,284.800 104.800 C 284.800 104.360,284.620 104.000,284.400 104.000 C 284.180 104.000,284.000 103.640,284.000 103.200 C 284.000 102.760,283.820 102.400,283.600 102.400 C 283.380 102.400,283.200 102.130,283.200 101.800 C 283.200 101.470,283.020 101.200,282.800 101.200 C 282.580 101.200,282.400 100.840,282.400 100.400 C 282.400 99.960,282.220 99.600,282.000 99.600 C 281.780 99.600,281.600 99.240,281.600 98.800 C 281.600 98.360,281.420 98.000,281.200 98.000 C 280.980 98.000,280.800 97.634,280.800 97.187 C 280.800 96.741,280.530 96.271,280.200 96.145 C 279.870 96.018,279.600 95.613,279.600 95.246 C 279.600 94.878,279.240 94.317,278.800 94.000 C 278.360 93.683,278.000 93.146,278.000 92.808 C 278.000 92.469,277.640 91.968,277.200 91.693 C 276.760 91.418,276.400 90.964,276.400 90.685 C 276.400 90.405,276.040 89.917,275.600 89.600 C 275.160 89.283,274.800 88.780,274.800 88.483 C 274.800 88.186,274.575 87.692,274.300 87.385 C 273.229 86.191,272.800 85.625,272.800 85.405 C 272.800 85.279,271.739 84.112,270.443 82.811 C 269.147 81.511,268.187 80.346,268.310 80.224 C 268.433 80.101,268.328 80.000,268.077 80.000 C 267.428 80.000,264.120 76.610,263.808 75.624 C 263.664 75.171,263.288 74.800,262.973 74.800 C 262.658 74.800,262.400 74.590,262.400 74.333 C 262.400 74.077,262.289 73.977,262.154 74.113 C 262.019 74.248,261.040 73.468,259.980 72.379 C 258.920 71.291,257.942 70.400,257.808 70.400 C 257.674 70.400,257.114 69.950,256.564 69.400 C 256.014 68.850,255.252 68.400,254.870 68.400 C 254.489 68.400,253.917 68.040,253.600 67.600 C 253.283 67.160,252.865 66.800,252.672 66.800 C 252.479 66.800,251.817 66.260,251.200 65.600 C 250.583 64.940,249.791 64.400,249.440 64.400 C 249.088 64.400,248.800 64.220,248.800 64.000 C 248.800 63.780,248.434 63.600,247.987 63.600 C 247.541 63.600,247.071 63.330,246.945 63.000 C 246.818 62.670,246.374 62.400,245.957 62.400 C 245.541 62.400,245.200 62.220,245.200 62.000 C 245.200 61.780,244.840 61.600,244.400 61.600 C 243.960 61.600,243.600 61.420,243.600 61.200 C 243.600 60.980,243.240 60.800,242.800 60.800 C 242.360 60.800,242.000 60.620,242.000 60.400 C 242.000 60.180,241.730 60.000,241.400 60.000 C 241.070 60.000,240.800 59.820,240.800 59.600 C 240.800 59.380,240.440 59.200,240.000 59.200 C 239.560 59.200,239.200 59.020,239.200 58.800 C 239.200 58.580,238.840 58.400,238.400 58.400 C 237.960 58.400,237.600 58.240,237.600 58.045 C 237.600 57.849,236.970 57.571,236.200 57.426 C 235.430 57.282,234.800 56.992,234.800 56.782 C 234.800 56.572,234.260 56.400,233.600 56.400 C 232.940 56.400,232.400 56.220,232.400 56.000 C 232.400 55.780,231.950 55.600,231.400 55.600 C 230.850 55.600,230.400 55.420,230.400 55.200 C 230.400 54.980,230.040 54.800,229.600 54.800 C 229.160 54.800,228.800 54.620,228.800 54.400 C 228.800 54.180,228.260 54.000,227.600 54.000 C 226.940 54.000,226.400 53.820,226.400 53.600 C 226.400 53.380,225.770 53.200,225.000 53.200 C 224.230 53.200,223.600 53.041,223.600 52.847 C 223.600 52.653,222.250 52.367,220.600 52.213 C 218.950 52.058,217.600 51.767,217.600 51.566 C 217.600 51.365,216.790 51.200,215.800 51.200 C 214.810 51.200,214.000 51.020,214.000 50.800 C 214.000 50.578,212.933 50.400,211.600 50.400 C 210.267 50.400,209.200 50.222,209.200 50.000 C 209.200 49.742,204.867 49.600,197.000 49.600 C 189.133 49.600,184.800 49.742,184.800 50.000 M206.400 75.200 C 206.400 75.420,207.390 75.600,208.600 75.600 C 209.810 75.600,210.800 75.780,210.800 76.000 C 210.800 76.220,211.610 76.400,212.600 76.400 C 213.590 76.400,214.400 76.580,214.400 76.800 C 214.400 77.020,214.940 77.200,215.600 77.200 C 216.260 77.200,216.800 77.380,216.800 77.600 C 216.800 77.820,217.340 78.000,218.000 78.000 C 218.660 78.000,219.200 78.180,219.200 78.400 C 219.200 78.620,219.639 78.800,220.176 78.800 C 220.713 78.800,221.251 78.959,221.371 79.154 C 221.492 79.348,222.402 79.629,223.395 79.778 C 224.388 79.927,225.200 80.218,225.200 80.425 C 225.200 80.631,225.650 80.800,226.200 80.800 C 226.750 80.800,227.200 80.980,227.200 81.200 C 227.200 81.420,227.560 81.600,228.000 81.600 C 228.440 81.600,228.800 81.780,228.800 82.000 C 228.800 82.220,229.160 82.400,229.600 82.400 C 230.040 82.400,230.400 82.560,230.400 82.757 C 230.400 82.953,230.850 83.226,231.400 83.364 C 231.950 83.502,232.400 83.801,232.400 84.028 C 232.400 84.256,232.940 84.630,233.600 84.860 C 234.260 85.090,234.800 85.441,234.800 85.639 C 234.800 85.838,235.070 86.000,235.400 86.000 C 235.730 86.000,236.000 86.180,236.000 86.400 C 236.000 86.620,236.288 86.800,236.640 86.800 C 236.991 86.800,237.783 87.340,238.400 88.000 C 239.017 88.660,239.746 89.200,240.020 89.200 C 240.295 89.200,241.131 89.830,241.879 90.600 C 242.627 91.370,243.400 92.000,243.598 92.000 C 244.132 92.000,250.400 98.282,250.400 98.818 C 250.400 99.359,252.709 101.600,253.266 101.600 C 253.476 101.600,253.536 101.780,253.400 102.000 C 253.264 102.220,253.343 102.400,253.576 102.400 C 253.809 102.400,254.000 102.636,254.000 102.925 C 254.000 103.213,254.360 103.836,254.800 104.308 C 255.240 104.780,255.600 105.432,255.600 105.756 C 255.600 106.081,255.960 106.460,256.400 106.600 C 256.840 106.740,257.200 107.125,257.200 107.456 C 257.200 107.786,257.470 108.327,257.800 108.657 C 258.130 108.987,258.400 109.604,258.400 110.029 C 258.400 110.453,258.546 110.800,258.725 110.800 C 258.904 110.800,259.298 111.430,259.600 112.200 C 259.902 112.970,260.296 113.600,260.475 113.600 C 260.654 113.600,260.800 113.960,260.800 114.400 C 260.800 114.840,260.946 115.200,261.125 115.200 C 261.304 115.200,261.698 115.830,262.000 116.600 C 262.302 117.370,262.696 118.000,262.875 118.000 C 263.054 118.000,263.200 118.360,263.200 118.800 C 263.200 119.240,263.357 119.600,263.548 119.600 C 263.740 119.600,264.015 120.493,264.160 121.584 C 264.305 122.675,264.598 123.675,264.812 123.807 C 265.025 123.939,265.200 124.577,265.200 125.224 C 265.200 125.871,265.380 126.400,265.600 126.400 C 265.820 126.400,266.000 127.030,266.000 127.800 C 266.000 128.570,266.180 129.200,266.400 129.200 C 266.620 129.200,266.800 130.100,266.800 131.200 C 266.800 132.300,266.980 133.200,267.200 133.200 C 267.420 133.200,267.600 134.089,267.600 135.176 C 267.600 136.263,267.780 137.264,268.000 137.400 C 268.247 137.552,268.400 140.937,268.400 146.224 C 268.400 151.675,268.254 154.800,268.000 154.800 C 267.780 154.800,267.600 155.779,267.600 156.976 C 267.600 158.173,267.420 159.264,267.200 159.400 C 266.980 159.536,266.800 160.357,266.800 161.224 C 266.800 162.091,266.620 162.800,266.400 162.800 C 266.180 162.800,266.000 163.340,266.000 164.000 C 266.000 164.660,265.820 165.200,265.600 165.200 C 265.380 165.200,265.200 165.819,265.200 166.576 C 265.200 167.333,265.041 168.051,264.846 168.171 C 264.652 168.292,264.371 169.202,264.222 170.195 C 264.073 171.188,263.782 172.000,263.575 172.000 C 263.369 172.000,263.200 172.450,263.200 173.000 C 263.200 173.550,263.020 174.000,262.800 174.000 C 262.580 174.000,262.400 174.234,262.400 174.520 C 262.400 175.256,261.459 177.193,261.100 177.197 C 260.935 177.199,260.800 177.470,260.800 177.800 C 260.800 178.130,260.620 178.400,260.400 178.400 C 260.180 178.400,260.000 178.760,260.000 179.200 C 260.000 179.640,259.820 180.000,259.600 180.000 C 259.380 180.000,259.200 180.360,259.200 180.800 C 259.200 181.240,259.009 181.600,258.776 181.600 C 258.543 181.600,258.464 181.780,258.600 182.000 C 258.736 182.220,258.657 182.400,258.424 182.400 C 258.191 182.400,258.000 182.670,258.000 183.000 C 258.000 183.330,257.820 183.600,257.600 183.600 C 257.380 183.600,257.200 183.888,257.200 184.240 C 257.200 184.591,256.660 185.383,256.000 186.000 C 255.340 186.617,254.800 187.343,254.800 187.615 C 254.800 187.886,254.350 188.525,253.800 189.035 C 253.250 189.545,252.800 190.162,252.800 190.407 C 252.800 190.652,251.855 191.743,250.700 192.833 C 249.545 193.922,248.420 194.997,248.200 195.222 C 243.124 200.407,241.865 201.601,241.471 201.604 C 241.212 201.606,240.575 202.146,240.055 202.804 C 239.535 203.462,238.810 204.000,238.443 204.000 C 238.077 204.000,237.522 204.353,237.211 204.785 C 236.899 205.217,236.158 205.677,235.564 205.808 C 234.969 205.939,234.166 206.395,233.779 206.823 C 233.393 207.250,232.744 207.600,232.338 207.600 C 231.932 207.600,231.600 207.780,231.600 208.000 C 231.600 208.220,231.330 208.400,231.000 208.400 C 230.670 208.400,230.400 208.580,230.400 208.800 C 230.400 209.020,230.106 209.200,229.747 209.200 C 229.388 209.200,228.803 209.531,228.447 209.936 C 228.091 210.341,227.081 210.786,226.203 210.926 C 225.325 211.067,224.545 211.365,224.470 211.591 C 224.395 211.816,223.808 212.000,223.167 212.000 C 222.525 212.000,222.000 212.180,222.000 212.400 C 222.000 212.620,221.640 212.800,221.200 212.800 C 220.760 212.800,220.400 212.980,220.400 213.200 C 220.400 213.420,219.950 213.600,219.400 213.600 C 218.850 213.600,218.400 213.780,218.400 214.000 C 218.400 214.220,217.680 214.400,216.800 214.400 C 215.920 214.400,215.200 214.580,215.200 214.800 C 215.200 215.020,214.585 215.200,213.833 215.200 C 213.082 215.200,212.407 215.371,212.333 215.580 C 212.260 215.789,210.085 216.085,207.500 216.238 C 204.915 216.392,202.800 216.671,202.800 216.859 C 202.800 217.046,200.190 217.200,197.000 217.200 C 193.810 217.200,191.200 217.046,191.200 216.859 C 191.200 216.671,189.085 216.392,186.500 216.238 C 183.915 216.085,181.740 215.789,181.667 215.580 C 181.593 215.371,180.918 215.200,180.167 215.200 C 179.415 215.200,178.800 215.020,178.800 214.800 C 178.800 214.580,178.080 214.400,177.200 214.400 C 176.320 214.400,175.600 214.220,175.600 214.000 C 175.600 213.780,175.150 213.600,174.600 213.600 C 174.050 213.600,173.600 213.420,173.600 213.200 C 173.600 212.980,173.240 212.800,172.800 212.800 C 172.360 212.800,172.000 212.659,172.000 212.487 C 172.000 212.315,171.515 212.134,170.922 212.085 C 170.330 212.036,169.730 211.811,169.590 211.584 C 169.450 211.357,168.630 211.059,167.768 210.922 C 166.905 210.784,165.930 210.372,165.600 210.006 C 165.270 209.639,164.415 209.084,163.700 208.772 C 162.985 208.460,162.400 208.069,162.400 207.902 C 162.400 207.736,162.106 207.600,161.747 207.600 C 161.388 207.600,160.803 207.264,160.447 206.854 C 160.091 206.443,159.249 205.987,158.577 205.839 C 157.905 205.691,157.101 205.217,156.789 204.785 C 156.478 204.353,155.975 204.000,155.672 204.000 C 155.369 204.000,154.617 203.460,154.000 202.800 C 153.383 202.140,152.765 201.600,152.625 201.600 C 152.351 201.600,151.746 201.075,148.473 197.999 C 147.304 196.900,146.473 196.000,146.627 196.000 C 146.782 196.000,146.389 195.599,145.754 195.108 C 143.914 193.687,141.600 191.182,141.600 190.612 C 141.600 190.325,141.062 189.665,140.404 189.145 C 139.746 188.625,139.206 187.957,139.204 187.660 C 139.202 187.364,138.660 186.617,138.000 186.000 C 137.340 185.383,136.800 184.591,136.800 184.240 C 136.800 183.888,136.620 183.600,136.400 183.600 C 136.180 183.600,136.000 183.352,136.000 183.049 C 136.000 182.746,135.730 182.274,135.400 182.000 C 135.070 181.726,134.800 181.164,134.800 180.751 C 134.800 180.338,134.620 180.000,134.400 180.000 C 134.180 180.000,134.000 179.640,134.000 179.200 C 134.000 178.760,133.820 178.400,133.600 178.400 C 133.380 178.400,133.200 178.130,133.200 177.800 C 133.200 177.470,133.020 177.200,132.800 177.200 C 132.580 177.200,132.400 176.840,132.400 176.400 C 132.400 175.960,132.220 175.600,132.000 175.600 C 131.780 175.600,131.600 175.240,131.600 174.800 C 131.600 174.360,131.443 174.000,131.251 174.000 C 131.059 174.000,130.781 173.240,130.632 172.312 C 130.484 171.384,130.192 170.518,129.983 170.390 C 129.775 170.261,129.564 169.670,129.515 169.078 C 129.466 168.485,129.285 168.000,129.113 168.000 C 128.941 168.000,128.800 167.370,128.800 166.600 C 128.800 165.830,128.620 165.200,128.400 165.200 C 128.180 165.200,128.000 164.660,128.000 164.000 C 128.000 163.340,127.820 162.800,127.600 162.800 C 127.380 162.800,127.200 161.990,127.200 161.000 C 127.200 160.010,127.020 159.200,126.800 159.200 C 126.580 159.200,126.400 158.210,126.400 157.000 C 126.400 155.790,126.220 154.800,126.000 154.800 C 125.746 154.800,125.600 151.667,125.600 146.200 C 125.600 140.733,125.746 137.600,126.000 137.600 C 126.220 137.600,126.400 136.610,126.400 135.400 C 126.400 134.190,126.580 133.200,126.800 133.200 C 127.020 133.200,127.200 132.300,127.200 131.200 C 127.200 130.100,127.380 129.200,127.600 129.200 C 127.820 129.200,128.000 128.570,128.000 127.800 C 128.000 127.030,128.180 126.400,128.400 126.400 C 128.620 126.400,128.800 125.860,128.800 125.200 C 128.800 124.540,128.980 124.000,129.200 124.000 C 129.420 124.000,129.600 123.550,129.600 123.000 C 129.600 122.450,129.757 122.000,129.948 122.000 C 130.140 122.000,130.416 121.100,130.562 120.000 C 130.708 118.900,131.001 118.000,131.214 118.000 C 131.426 118.000,131.600 117.730,131.600 117.400 C 131.600 117.070,131.780 116.800,132.000 116.800 C 132.220 116.800,132.400 116.440,132.400 116.000 C 132.400 115.560,132.580 115.200,132.800 115.200 C 133.020 115.200,133.200 114.840,133.200 114.400 C 133.200 113.960,133.380 113.600,133.600 113.600 C 133.820 113.600,134.000 113.330,134.000 113.000 C 134.000 112.670,134.180 112.400,134.400 112.400 C 134.620 112.400,134.800 112.040,134.800 111.600 C 134.800 111.160,134.980 110.800,135.200 110.800 C 135.420 110.800,135.600 110.453,135.600 110.029 C 135.600 109.604,135.870 108.987,136.200 108.657 C 136.530 108.327,136.800 107.786,136.800 107.456 C 136.800 107.125,137.160 106.740,137.600 106.600 C 138.040 106.460,138.400 106.038,138.400 105.661 C 138.400 105.285,138.760 104.717,139.200 104.400 C 139.640 104.083,140.000 103.586,140.000 103.297 C 140.000 103.007,140.810 101.983,141.800 101.021 C 142.790 100.059,143.600 99.082,143.600 98.849 C 143.600 98.297,149.100 92.800,149.653 92.800 C 149.888 92.800,150.844 91.990,151.780 91.000 C 152.715 90.010,153.705 89.200,153.979 89.200 C 154.254 89.200,154.983 88.660,155.600 88.000 C 156.217 87.340,157.009 86.800,157.360 86.800 C 157.712 86.800,158.000 86.620,158.000 86.400 C 158.000 86.180,158.193 86.000,158.429 86.000 C 158.664 86.000,159.127 85.730,159.457 85.400 C 159.787 85.070,160.404 84.800,160.829 84.800 C 161.253 84.800,161.600 84.620,161.600 84.400 C 161.600 84.180,161.883 84.000,162.229 84.000 C 162.974 84.000,164.069 83.003,163.714 82.648 C 163.578 82.511,163.857 82.400,164.333 82.400 C 164.810 82.400,165.200 82.220,165.200 82.000 C 165.200 81.780,165.560 81.600,166.000 81.600 C 166.440 81.600,166.800 81.420,166.800 81.200 C 166.800 80.980,167.340 80.800,168.000 80.800 C 168.660 80.800,169.200 80.622,169.200 80.405 C 169.200 80.187,169.924 79.894,170.809 79.752 C 171.694 79.611,172.514 79.339,172.632 79.147 C 172.751 78.956,173.287 78.800,173.824 78.800 C 174.361 78.800,174.800 78.620,174.800 78.400 C 174.800 78.180,175.340 78.000,176.000 78.000 C 176.660 78.000,177.200 77.820,177.200 77.600 C 177.200 77.380,177.740 77.200,178.400 77.200 C 179.060 77.200,179.600 77.020,179.600 76.800 C 179.600 76.580,180.410 76.400,181.400 76.400 C 182.390 76.400,183.200 76.220,183.200 76.000 C 183.200 75.780,184.190 75.600,185.400 75.600 C 186.610 75.600,187.600 75.420,187.600 75.200 C 187.600 74.945,191.000 74.800,197.000 74.800 C 203.000 74.800,206.400 74.945,206.400 75.200 M148.000 229.600 C 148.000 229.820,148.320 230.000,148.712 230.000 C 149.103 230.000,149.683 230.360,150.000 230.800 C 150.317 231.240,150.897 231.600,151.288 231.600 C 151.680 231.600,152.000 231.769,152.000 231.975 C 152.000 232.182,152.810 232.472,153.800 232.621 C 154.790 232.769,155.600 233.050,155.600 233.245 C 155.600 233.440,155.960 233.600,156.400 233.600 C 156.840 233.600,157.200 233.780,157.200 234.000 C 157.200 234.220,157.571 234.400,158.024 234.400 C 158.477 234.400,158.736 234.580,158.600 234.800 C 158.464 235.020,158.723 235.200,159.176 235.200 C 159.629 235.200,160.000 235.380,160.000 235.600 C 160.000 235.820,160.540 236.000,161.200 236.000 C 161.860 236.000,162.400 236.180,162.400 236.400 C 162.400 236.620,162.762 236.800,163.205 236.800 C 163.962 236.800,165.555 237.507,166.000 238.039 C 166.110 238.171,167.280 238.402,168.600 238.553 C 169.920 238.704,171.060 239.001,171.133 239.214 C 171.207 239.426,171.972 239.600,172.833 239.600 C 173.695 239.600,174.400 239.780,174.400 240.000 C 174.400 240.220,175.030 240.400,175.800 240.400 C 176.570 240.400,177.200 240.580,177.200 240.800 C 177.200 241.020,178.190 241.200,179.400 241.200 C 180.610 241.200,181.600 241.380,181.600 241.600 C 181.600 241.835,183.000 242.000,185.000 242.000 C 187.000 242.000,188.400 242.165,188.400 242.400 C 188.400 242.654,191.533 242.800,197.000 242.800 C 202.467 242.800,205.600 242.654,205.600 242.400 C 205.600 242.167,206.925 242.000,208.776 242.000 C 210.523 242.000,212.064 241.820,212.200 241.600 C 212.336 241.380,213.427 241.200,214.624 241.200 C 215.821 241.200,216.800 241.020,216.800 240.800 C 216.800 240.580,217.430 240.400,218.200 240.400 C 218.970 240.400,219.600 240.220,219.600 240.000 C 219.600 239.780,220.320 239.600,221.200 239.600 C 222.080 239.600,222.800 239.429,222.800 239.220 C 222.800 239.011,223.884 238.717,225.209 238.567 C 226.534 238.417,227.714 238.138,227.833 237.947 C 227.951 237.756,228.397 237.600,228.824 237.600 C 229.251 237.600,229.600 237.420,229.600 237.200 C 229.600 236.980,230.050 236.800,230.600 236.800 C 231.150 236.800,231.600 236.620,231.600 236.400 C 231.600 236.180,232.140 236.000,232.800 236.000 C 233.460 236.000,234.000 235.820,234.000 235.600 C 234.000 235.380,234.360 235.200,234.800 235.200 C 235.240 235.200,235.600 235.020,235.600 234.800 C 235.600 234.580,235.870 234.400,236.200 234.400 C 236.530 234.400,236.800 234.220,236.800 234.000 C 236.800 233.780,237.160 233.600,237.600 233.600 C 238.040 233.600,238.400 233.444,238.400 233.253 C 238.400 233.062,239.161 232.803,240.091 232.678 C 241.022 232.554,241.847 232.260,241.925 232.026 C 242.003 231.792,242.372 231.600,242.745 231.600 C 243.118 231.600,243.683 231.240,244.000 230.800 C 244.317 230.360,244.897 230.000,245.288 230.000 C 245.680 230.000,246.000 229.820,246.000 229.600 C 246.000 229.380,246.450 229.200,247.000 229.200 C 247.550 229.200,248.000 229.380,248.000 229.600 C 248.000 229.820,248.540 230.000,249.200 230.000 C 249.860 230.000,250.400 230.180,250.400 230.400 C 250.400 230.620,250.940 230.800,251.600 230.800 C 252.260 230.800,252.800 230.980,252.800 231.200 C 252.800 231.420,253.139 231.600,253.554 231.600 C 253.969 231.600,254.824 231.869,255.454 232.198 C 256.084 232.526,256.915 232.796,257.300 232.798 C 257.685 232.799,258.000 232.980,258.000 233.200 C 258.000 233.420,258.450 233.600,259.000 233.600 C 259.550 233.600,260.000 233.780,260.000 234.000 C 260.000 234.220,260.540 234.400,261.200 234.400 C 261.860 234.400,262.400 234.580,262.400 234.800 C 262.400 235.020,262.760 235.200,263.200 235.200 C 263.640 235.200,264.000 235.380,264.000 235.600 C 264.000 235.820,264.270 236.000,264.600 236.000 C 264.930 236.000,265.200 236.180,265.200 236.400 C 265.200 236.620,265.560 236.800,266.000 236.800 C 266.440 236.800,266.800 236.980,266.800 237.200 C 266.800 237.420,267.160 237.600,267.600 237.600 C 268.040 237.600,268.400 237.772,268.400 237.982 C 268.400 238.192,269.030 238.482,269.800 238.626 C 270.570 238.771,271.200 239.049,271.200 239.245 C 271.200 239.440,271.560 239.600,272.000 239.600 C 272.440 239.600,272.800 239.780,272.800 240.000 C 272.800 240.220,273.160 240.400,273.600 240.400 C 274.040 240.400,274.400 240.536,274.400 240.702 C 274.400 240.869,274.985 241.264,275.700 241.580 C 276.415 241.897,277.339 242.471,277.754 242.858 C 278.169 243.244,278.989 243.666,279.576 243.795 C 280.164 243.924,280.899 244.383,281.211 244.815 C 281.522 245.247,282.009 245.600,282.294 245.600 C 282.987 245.600,284.441 246.438,285.243 247.300 C 285.601 247.685,286.055 248.000,286.251 248.000 C 286.447 248.000,287.093 248.450,287.687 249.000 C 288.280 249.550,289.003 250.000,289.294 250.000 C 289.585 250.000,290.083 250.360,290.400 250.800 C 290.717 251.240,291.327 251.600,291.755 251.600 C 292.183 251.600,292.422 251.711,292.286 251.848 C 291.977 252.156,292.984 253.200,293.590 253.200 C 293.835 253.200,294.486 253.650,295.036 254.200 C 295.586 254.750,296.222 255.200,296.450 255.200 C 296.677 255.200,297.554 255.920,298.400 256.800 C 299.246 257.680,300.145 258.400,300.399 258.400 C 300.653 258.400,302.189 259.750,303.813 261.400 C 305.436 263.050,306.972 264.400,307.226 264.400 C 307.794 264.400,314.400 271.059,314.400 271.632 C 314.400 271.859,315.480 273.104,316.800 274.400 C 318.120 275.696,319.200 276.946,319.200 277.178 C 319.200 277.410,319.410 277.600,319.667 277.600 C 319.923 277.600,320.021 277.712,319.885 277.849 C 319.748 277.985,320.348 278.781,321.218 279.617 C 322.088 280.453,322.800 281.421,322.800 281.769 C 322.800 282.116,322.952 282.400,323.139 282.400 C 323.819 282.400,325.079 283.828,325.344 284.900 C 325.493 285.505,325.792 286.000,326.008 286.000 C 326.223 286.000,326.400 286.230,326.400 286.512 C 326.400 286.793,326.760 287.283,327.200 287.600 C 327.640 287.917,328.000 288.457,328.000 288.800 C 328.000 289.143,328.360 289.683,328.800 290.000 C 329.240 290.317,329.600 290.885,329.600 291.261 C 329.600 291.638,329.951 292.057,330.380 292.194 C 330.860 292.346,331.072 292.668,330.932 293.032 C 330.806 293.361,331.081 293.950,331.553 294.359 C 332.019 294.763,332.400 295.388,332.400 295.747 C 332.400 296.106,332.546 296.400,332.725 296.400 C 332.904 296.400,333.298 297.030,333.600 297.800 C 333.902 298.570,334.296 299.200,334.475 299.200 C 334.654 299.200,334.800 299.560,334.800 300.000 C 334.800 300.440,334.957 300.800,335.150 300.800 C 335.343 300.800,335.607 301.334,335.738 301.988 C 335.868 302.641,336.341 303.541,336.788 303.988 C 337.234 304.434,337.600 305.250,337.600 305.800 C 337.600 306.350,337.780 306.800,338.000 306.800 C 338.220 306.800,338.400 307.160,338.400 307.600 C 338.400 308.040,338.580 308.400,338.800 308.400 C 339.020 308.400,339.200 308.670,339.200 309.000 C 339.200 309.330,339.380 309.600,339.600 309.600 C 339.820 309.600,340.000 309.960,340.000 310.400 C 340.000 310.840,340.180 311.200,340.400 311.200 C 340.620 311.200,340.800 311.740,340.800 312.400 C 340.800 313.060,340.957 313.600,341.149 313.600 C 341.341 313.600,341.616 314.340,341.761 315.244 C 341.905 316.147,342.378 317.621,342.812 318.519 C 343.245 319.416,343.600 320.476,343.600 320.875 C 343.600 321.274,343.780 321.600,344.000 321.600 C 344.220 321.600,344.400 322.320,344.400 323.200 C 344.400 324.080,344.580 324.800,344.800 324.800 C 345.020 324.800,345.200 325.250,345.200 325.800 C 345.200 326.350,345.380 326.800,345.600 326.800 C 345.820 326.800,346.000 327.520,346.000 328.400 C 346.000 329.280,346.157 330.000,346.348 330.000 C 346.540 330.000,346.822 331.437,346.975 333.193 C 347.128 334.949,347.422 336.490,347.627 336.617 C 347.832 336.743,348.000 338.007,348.000 339.424 C 348.000 340.875,348.175 342.000,348.400 342.000 C 348.626 342.000,348.800 343.133,348.800 344.600 L 348.800 347.200 197.000 347.200 L 45.200 347.200 45.200 344.600 C 45.200 343.133,45.374 342.000,45.600 342.000 C 45.822 342.000,46.000 340.933,46.000 339.600 C 46.000 338.280,46.157 337.200,46.348 337.200 C 46.540 337.200,46.822 335.760,46.976 334.000 C 47.129 332.240,47.423 330.800,47.627 330.800 C 47.832 330.800,48.000 330.080,48.000 329.200 C 48.000 328.320,48.180 327.600,48.400 327.600 C 48.620 327.600,48.800 326.970,48.800 326.200 C 48.800 325.430,48.980 324.800,49.200 324.800 C 49.420 324.800,49.600 324.260,49.600 323.600 C 49.600 322.940,49.780 322.400,50.000 322.400 C 50.220 322.400,50.400 321.950,50.400 321.400 C 50.400 320.850,50.580 320.400,50.800 320.400 C 51.020 320.400,51.200 319.860,51.200 319.200 C 51.200 318.540,51.380 318.000,51.600 318.000 C 51.820 318.000,52.000 317.475,52.000 316.833 C 52.000 316.192,52.192 315.603,52.426 315.525 C 52.660 315.447,52.954 314.622,53.078 313.691 C 53.203 312.761,53.462 312.000,53.653 312.000 C 53.844 312.000,54.000 311.640,54.000 311.200 C 54.000 310.760,54.180 310.400,54.400 310.400 C 54.620 310.400,54.800 310.130,54.800 309.800 C 54.800 309.470,54.980 309.200,55.200 309.200 C 55.420 309.200,55.600 308.660,55.600 308.000 C 55.600 307.340,55.780 306.800,56.000 306.800 C 56.220 306.800,56.400 306.440,56.400 306.000 C 56.400 305.560,56.580 305.200,56.800 305.200 C 57.020 305.200,57.200 304.840,57.200 304.400 C 57.200 303.960,57.372 303.600,57.582 303.600 C 57.792 303.600,58.082 302.970,58.226 302.200 C 58.371 301.430,58.649 300.800,58.845 300.800 C 59.040 300.800,59.200 300.452,59.200 300.027 C 59.200 299.602,59.560 299.140,60.000 299.000 C 60.440 298.860,60.800 298.398,60.800 297.973 C 60.800 297.548,60.980 297.200,61.200 297.200 C 61.420 297.200,61.600 296.840,61.600 296.400 C 61.600 295.960,61.780 295.600,62.000 295.600 C 62.220 295.600,62.400 295.306,62.400 294.947 C 62.400 294.588,62.734 294.003,63.143 293.647 C 63.551 293.291,64.013 292.595,64.170 292.100 C 64.326 291.605,64.622 291.200,64.827 291.200 C 65.032 291.200,65.200 290.840,65.200 290.400 C 65.200 289.778,65.467 289.600,66.400 289.600 C 67.333 289.600,67.600 289.422,67.600 288.800 C 67.600 288.360,67.392 288.000,67.139 288.000 C 66.885 288.000,67.065 287.664,67.539 287.253 C 68.012 286.842,68.400 286.295,68.400 286.036 C 68.400 285.595,68.694 285.160,69.900 283.815 C 70.175 283.508,70.400 283.085,70.400 282.874 C 70.400 282.663,70.938 282.065,71.596 281.545 C 72.254 281.025,72.794 280.367,72.796 280.082 C 72.798 279.797,73.205 279.130,73.700 278.601 C 74.195 278.072,74.801 277.405,75.046 277.119 C 75.292 276.834,75.877 276.335,76.346 276.012 C 76.816 275.688,77.200 275.191,77.200 274.908 C 77.200 274.297,90.182 261.200,90.788 261.200 C 91.017 261.200,92.003 260.390,92.979 259.400 C 93.955 258.410,94.968 257.600,95.230 257.600 C 95.737 257.600,97.200 256.089,97.200 255.566 C 97.200 255.261,98.282 254.795,98.921 254.824 C 99.098 254.833,99.755 254.291,100.382 253.620 C 101.008 252.949,101.717 252.400,101.957 252.400 C 102.197 252.400,102.618 252.040,102.893 251.600 C 103.168 251.160,103.627 250.800,103.914 250.800 C 104.201 250.800,104.886 250.350,105.436 249.800 C 105.986 249.250,106.698 248.800,107.018 248.800 C 107.338 248.800,107.600 248.620,107.600 248.400 C 107.600 248.180,107.920 248.000,108.312 248.000 C 108.703 248.000,109.283 247.640,109.600 247.200 C 109.917 246.760,110.457 246.400,110.800 246.400 C 111.143 246.400,111.683 246.040,112.000 245.600 C 112.317 245.160,112.897 244.800,113.288 244.800 C 113.680 244.800,114.000 244.620,114.000 244.400 C 114.000 244.180,114.257 244.000,114.571 244.000 C 114.886 244.000,115.388 243.775,115.687 243.500 C 116.548 242.709,117.933 242.000,118.618 242.000 C 118.964 242.000,119.136 241.820,119.000 241.600 C 118.864 241.380,119.123 241.200,119.576 241.200 C 120.029 241.200,120.400 241.020,120.400 240.800 C 120.400 240.580,120.760 240.400,121.200 240.400 C 121.640 240.400,122.000 240.220,122.000 240.000 C 122.000 239.780,122.360 239.600,122.800 239.600 C 123.240 239.600,123.600 239.440,123.600 239.243 C 123.600 239.047,124.050 238.774,124.600 238.636 C 125.150 238.498,125.600 238.208,125.600 237.992 C 125.600 237.777,126.140 237.600,126.800 237.600 C 127.460 237.600,128.000 237.420,128.000 237.200 C 128.000 236.980,128.360 236.800,128.800 236.800 C 129.240 236.800,129.600 236.620,129.600 236.400 C 129.600 236.180,129.870 236.000,130.200 236.000 C 130.530 236.000,130.800 235.820,130.800 235.600 C 130.800 235.380,131.160 235.200,131.600 235.200 C 132.040 235.200,132.400 235.020,132.400 234.800 C 132.400 234.580,132.940 234.400,133.600 234.400 C 134.260 234.400,134.800 234.220,134.800 234.000 C 134.800 233.780,135.070 233.600,135.400 233.600 C 135.730 233.600,136.000 233.443,136.000 233.252 C 136.000 233.060,136.900 232.784,138.000 232.638 C 139.100 232.492,140.000 232.199,140.000 231.986 C 140.000 231.774,140.450 231.600,141.000 231.600 C 141.550 231.600,142.000 231.420,142.000 231.200 C 142.000 230.980,142.540 230.800,143.200 230.800 C 143.860 230.800,144.400 230.620,144.400 230.400 C 144.400 230.180,144.760 230.000,145.200 230.000 C 145.640 230.000,146.000 229.820,146.000 229.600 C 146.000 229.380,146.450 229.200,147.000 229.200 C 147.550 229.200,148.000 229.380,148.000 229.600 " stroke="none" fill="#848484" fill-rule="evenodd"></path><path id="path1" d="" stroke="none" fill="#888484" fill-rule="evenodd"></path></g></svg>