<svg width="98" height="98" viewBox="0 0 98 98" fill="none" xmlns="http://www.w3.org/2000/svg">
<g clip-path="url(#clip0_1_18)">
<path d="M10.0785 68.9145C17.2771 69.5735 24.7276 71.4119 32.1465 74.4295V82.1898L1.72266 76.7782V12.4282L10.0785 13.9131V68.9145ZM48.9816 83.5519V85.1838L42.867 84.0959V79.6409C44.9177 80.8043 46.9525 82.0608 48.9696 83.4089V83.5678C48.9736 83.5618 48.9776 83.5578 48.9816 83.5519Z" stroke="#888888" stroke-opacity="0.8" stroke-width="10" stroke-miterlimit="10" stroke-linecap="round" stroke-linejoin="round"/>
<path d="M49.2104 22.5302V83.5684L49.0959 83.5483L49.0301 83.5368L48.9958 83.531L48.9815 83.5282L48.97 83.5253V22.8166C48.9729 22.8109 48.9786 22.8051 48.9815 22.7994V22.4901L48.9987 22.4929L49.0303 22.4987L49.0961 22.5101L49.1735 22.5245L49.2104 22.5302ZM16.0324 62.5043C20.7494 62.403 26.4352 64.0132 32.1467 67.3344V74.4297C24.7278 71.4122 17.2771 69.5737 10.0787 68.9147V7.8781C12.0462 8.05668 14.0334 8.32675 16.0324 8.68411V62.5043ZM48.9696 83.2045V83.4089C46.9526 82.0609 44.9177 80.8043 42.867 79.6409V75.7756C45.0131 77.9772 47.0678 80.4548 48.9696 83.2045Z" stroke="#888888" stroke-opacity="0.8" stroke-width="10" stroke-miterlimit="10" stroke-linecap="round" stroke-linejoin="round"/>
<path d="M49.2103 22.5302V83.5684C49.1931 83.5569 49.1788 83.5456 49.1617 83.5368C49.1389 83.5195 49.1188 83.5052 49.0959 83.4908C49.0787 83.4793 49.0616 83.4681 49.0442 83.4592C49.0241 83.442 49.0013 83.4277 48.9812 83.4164C48.9784 83.4135 48.9726 83.4106 48.9697 83.4078V22.8166C48.9726 22.8108 48.9784 22.8051 48.9812 22.7994V22.4699C48.9439 22.4125 48.9068 22.3555 48.8639 22.3009C48.9041 22.3237 48.941 22.3496 48.9812 22.3781C49.0184 22.4008 49.0584 22.4267 49.0957 22.4525C49.1185 22.4669 49.1386 22.481 49.1615 22.4985C49.1673 22.5013 49.1759 22.5071 49.1816 22.5099C49.1904 22.5189 49.2019 22.5247 49.2103 22.5302Z" stroke="#888888" stroke-opacity="0.8" stroke-width="10" stroke-miterlimit="10" stroke-linecap="round" stroke-linejoin="round"/>
<path d="M48.9817 22.4696V22.7992C48.9776 22.8051 48.9738 22.811 48.9698 22.817V83.2043C47.068 80.4548 45.0132 77.9772 42.8672 75.7754C39.4466 72.2654 35.7917 69.4504 32.1469 67.3342C26.4353 64.013 20.7496 62.4028 16.0326 62.5041V1.75156C25.2103 1.55901 38.0589 7.84039 47.6338 20.5936C48.0507 21.1494 48.4635 21.7193 48.8647 22.3009C48.9061 22.3564 48.944 22.4121 48.9817 22.4696Z" stroke="#888888" stroke-opacity="0.8" stroke-width="10" stroke-miterlimit="10" stroke-linecap="round" stroke-linejoin="round"/>
<path d="M49.2221 22.8166V83.5682C49.2192 83.5624 49.2134 83.5567 49.2106 83.5509C49.2048 83.5452 49.202 83.5366 49.1962 83.5308C49.179 83.5081 49.1646 83.4822 49.1476 83.4592C49.1304 83.4334 49.1133 83.4106 49.0959 83.3876C49.0586 83.3304 49.0215 83.2761 48.9815 83.2215C48.9815 83.2158 48.9757 83.21 48.97 83.2043V22.8166C48.9728 22.8108 48.9786 22.8051 48.9815 22.7994V22.4699C48.9901 22.4786 48.9958 22.4843 48.9987 22.4927C49.0044 22.4985 49.0073 22.5042 49.0102 22.5099C49.0159 22.5157 49.0188 22.5186 49.0188 22.5243C49.0473 22.5616 49.0731 22.5988 49.0959 22.6361C49.1361 22.6904 49.1731 22.7448 49.2104 22.7994C49.2132 22.8051 49.219 22.8108 49.2221 22.8166Z" stroke="#888888" stroke-opacity="0.8" stroke-width="10" stroke-miterlimit="10" stroke-linecap="round" stroke-linejoin="round"/>
<path d="M96.4687 12.4274V76.7788L49.2103 85.1834V83.5511C49.2132 83.5569 49.2189 83.5626 49.2218 83.5683V83.4079C61.9306 74.9116 75.4154 70.0778 88.1127 68.9152V13.9135L96.4687 12.4274Z" stroke="#888888" stroke-opacity="0.8" stroke-width="10" stroke-miterlimit="10" stroke-linecap="round" stroke-linejoin="round"/>
<path d="M49.222 22.8166V83.5253L49.2105 83.5282L49.1961 83.531L49.1619 83.5368L49.096 83.5483L48.9816 83.5684V22.5302L49.0187 22.5245L49.0958 22.5101L49.1617 22.4986L49.1933 22.4929L49.2105 22.49V22.7993C49.2132 22.8051 49.2189 22.8108 49.222 22.8166Z" stroke="#888888" stroke-opacity="0.8" stroke-width="10" stroke-miterlimit="10" stroke-linecap="round" stroke-linejoin="round"/>
<path d="M88.1127 7.87714V68.9152C75.4154 70.0778 61.9306 74.9116 49.2218 83.4079V83.2047C58.9066 69.1987 72.546 62.3002 82.1592 62.5035V8.68468C84.158 8.32675 86.1454 8.05744 88.1127 7.87714Z" stroke="#888888" stroke-opacity="0.8" stroke-width="10" stroke-miterlimit="10" stroke-linecap="round" stroke-linejoin="round"/>
<path d="M49.2103 22.7994C49.2132 22.8051 49.2189 22.8108 49.2218 22.8166V83.4078C49.2189 83.4106 49.2132 83.4135 49.2103 83.4164C49.1902 83.4279 49.1674 83.4422 49.1473 83.4593C49.1301 83.4679 49.1131 83.4793 49.0957 83.4908C49.0729 83.5052 49.0528 83.5194 49.0298 83.5368C49.0126 83.5454 48.9982 83.5569 48.9812 83.5684V22.5302C48.9898 22.5245 49.0013 22.5188 49.0097 22.5101C49.0155 22.5073 49.0241 22.5015 49.0298 22.4987C49.0526 22.4814 49.0727 22.4671 49.0957 22.4527C49.133 22.4269 49.1728 22.401 49.2101 22.3783C49.2503 22.3497 49.2875 22.3239 49.3275 22.3011C49.2846 22.3555 49.2473 22.4127 49.2101 22.4701V22.7994H49.2103Z" stroke="#888888" stroke-opacity="0.8" stroke-width="10" stroke-miterlimit="10" stroke-linecap="round" stroke-linejoin="round"/>
<path d="M82.1593 1.75174V62.5033C72.5461 62.3 58.9067 69.1983 49.2219 83.2045V22.8166C49.219 22.8108 49.2133 22.8051 49.2104 22.7993V22.4699C49.2477 22.4125 49.2849 22.3555 49.3277 22.3009C49.7316 21.7196 50.141 21.1496 50.5619 20.5942C60.1351 7.83999 72.9815 1.55996 82.1593 1.75174ZM42.867 75.7756V96.444L37.5069 91.0839L32.1467 96.444V67.3342C35.7917 69.4506 39.4464 72.2656 42.867 75.7756Z" stroke="#888888" stroke-opacity="0.8" stroke-width="10" stroke-miterlimit="10" stroke-linecap="round" stroke-linejoin="round"/>
</g>
<defs>
<clipPath id="clip0_1_18">
<rect width="98" height="98" fill="white"/>
</clipPath>
</defs>
</svg>
