<svg xmlns="http://www.w3.org/2000/svg" xmlns:xlink="http://www.w3.org/1999/xlink" xmlns:inkscape="http://www.inkscape.org/namespaces/inkscape" version="1.1" width="841.8898" height="595.2756" viewBox="0 0 841.8898 595.2756">
<path transform="matrix(1,0,0,-1,0,595.2756)" d="M482.5315 465.6515C482.7022 466.4894 482.4156 465.8162 482.8975 466.4557L494.606 478.0358C494.9195 478.3178 495.2239 478.6075 495.5346 478.8561L496.5704 479.7482C497.8454 481.1641 497.9347 480.6816 499.5496 482.3609L499.7988 482.6203C499.8243 482.6429 499.8637 482.6758 499.8903 482.6976 499.9173 482.72 499.9603 482.7489 499.9884 482.7708 500.0176 482.7932 500.0624 482.8198 500.0922 482.8422L504.2015 486.1188C504.6673 486.5437 504.7778 486.1542 506.3349 487.4777L509.2211 489.3599C509.6633 489.606 509.7421 489.731 510.2294 490.049 511.221 490.6959 514.0766 492.7022 514.9423 492.9046L529.1056 500.5369C529.6 500.7943 530.0657 500.8263 530.5184 501.0559 531.5066 501.5574 530.5572 501.3643 531.6834 501.6141L532.9006 502.1697C533.6235 502.6243 534.759 502.8945 535.5573 503.1768 536.1823 503.3976 536.2152 503.5961 536.688 503.7763 537.0338 503.9082 537.1413 503.8773 537.5001 504.0289L548.5422 507.7029C548.803 507.8123 548.623 507.803 549.1358 507.9716 549.7512 508.1743 549.9094 508.1105 550.4939 508.3634 551.5194 508.8073 552.2505 508.8186 553.3696 509.1449 553.7738 509.2625 554.3005 509.5015 554.671 509.578L565.4302 511.6397C566.3852 511.7562 567.8053 511.6958 568.7906 511.9648 570.9302 512.549 579.6031 513.0082 582.2388 513.0317 586.6917 513.0709 592.4081 513.3149 596.7431 512.9697 597.7497 512.8894 599.0213 512.6927 600.0806 512.6465 603.8957 512.481 604.8746 511.9404 606.5583 511.8316L612.8362 510.9191C613.5457 510.781 613.5687 510.5466 614.1832 510.3833 614.5889 510.2756 615.3197 510.2683 615.7539 510.2087 617.4074 509.9822 616.3007 509.8167 618.7844 509.5483 620.8169 509.3286 622.7943 508.4345 624.7599 508.1292L627.6402 507.333C628.3655 507.1513 628.3664 506.9653 628.9818 506.768L637.0104 503.9476C637.482 503.7684 638.0269 503.7653 638.4291 503.5895L639.7191 502.9673C641.2201 502.4636 642.6173 501.6603 644.1182 501.0687 644.4567 500.9352 644.4629 500.9757 644.813 500.8629 645.4877 500.6455 645.245 500.563 645.9497 500.2688 646.2309 500.1514 646.5118 500.1052 646.7397 500.0043L647.7851 499.4609C647.8251 499.4447 647.8747 499.432 647.9135 499.4155 648.2582 499.2681 648.1315 499.314 648.4442 499.1057 648.9916 498.742 649.1863 498.778 649.7385 498.4665 650.8046 497.865 651.9283 497.0293 653.0814 496.5636 654.374 496.0417 654.664 495.6778 655.6844 494.9983L662.4028 491.1951C662.5338 491.1041 662.5962 491.0372 662.6832 490.9615L665.1255 489.2085C665.3718 489.0529 665.443 489.0501 665.6879 488.893 665.8257 488.8049 666.0663 488.6223 666.1911 488.5155L674.5246 482.3439C675.6993 481.4901 676.7283 480.2845 677.9177 479.448L680.6486 477.0765C680.6716 477.0513 680.7042 477.0111 680.728 476.987L681.1999 476.61C683.3597 474.9812 683.784 474.4063 685.6313 472.6267L693.5916 464.1435C693.6165 464.118 693.6531 464.08 693.6783 464.0545 693.7033 464.0292 693.7379 463.9898 693.7631 463.9646L694.3113 463.4813C694.3397 463.4569 694.3802 463.4237 694.4083 463.3985L694.5925 463.2233C694.7141 463.1063 694.8558 462.9626 695.031 462.7879 695.0565 462.7627 695.0934 462.7261 695.1186 462.7003L695.2924 462.5212C695.3281 462.4846 695.4282 462.3766 695.463 462.3392 695.8675 461.9018 695.9412 461.7193 696.3126 461.2618 696.3355 461.2334 696.369 461.194 696.3925 461.1657L702.6732 453.0909C702.8765 452.7785 703.211 452.5583 703.5466 452.2283 704.7564 451.0397 705.3681 449.2953 706.5856 447.9199L707.3484 446.9423C707.7453 446.4082 707.6928 446.2155 707.9797 445.6517L709.422 443.4171C709.662 443.0778 709.6136 443.2133 709.8537 442.8057 709.9563 442.6313 709.9132 442.6608 710.0419 442.4604L714.1453 435.3769C714.8659 434.0974 715.2678 432.5505 716.0791 431.35L716.8728 429.8451C717.3564 428.5721 718.1396 427.3671 718.7547 426.1618L722.7516 416.6402C723.3381 415.0831 723.2108 415.7334 723.8982 414.1587L724.3775 412.6805C724.5334 411.98 725.4763 410.2322 725.7889 408.8523 726.0973 407.4925 727.8313 402.9585 728.0419 401.8708L729.2265 397.8343C729.4484 397.1854 729.5374 397.1563 729.6177 396.3368 729.688 395.6204 729.6769 395.4135 729.9249 394.8412 730.3388 393.8859 730.2628 392.7249 730.4372 391.6451 730.5335 391.0484 730.7901 390.6831 730.8879 390.1839 730.9953 389.6374 730.9273 389.065 731.0242 388.5301 731.2252 387.4207 731.6476 387.4674 731.7819 385.681 731.8165 385.2201 731.9092 384.4423 732.022 383.9698 732.835 380.5679 733.0578 374.9686 733.5743 372.9081 734.0689 370.9355 733.8793 368.3908 734.1843 366.1872 734.8428 361.4309 734.9899 349.2094 734.559 345.0019 734.4408 343.8465 734.5488 342.6106 734.3972 341.4728 734.2495 340.3641 734.0114 339.3797 733.9669 338.2741 733.8951 336.4909 733.9969 334.6104 733.6151 332.9807 732.9453 330.1231 733.3534 330.7096 733.07 328.091 732.922 326.7204 732.6281 326.2504 732.5144 324.9714 732.3253 322.8398 732.1292 323.1924 731.8834 321.9506 731.668 320.8615 731.7357 319.9459 731.4392 318.8863 730.7804 316.531 730.6892 314.4447 729.7092 311.7064 729.6953 311.6673 729.6769 311.6225 729.6644 311.5823L729.3478 309.9643C729.0547 309.1555 729.0873 309.8667 728.8761 308.7405 728.6031 307.2855 728.3937 305.3574 727.666 303.9486 727.2561 303.1551 727.4409 302.1871 727.0767 301.3835 726.5254 300.1669 726.2864 298.5092 725.8331 297.1871 725.6248 296.5796 725.457 296.6553 725.2631 296.0433 725.0627 295.4103 725.1126 295.0954 724.8427 294.5149 724.6358 294.0698 724.5366 293.9281 724.3129 293.3169L723.2176 290.7201C722.8012 290.0248 723.0591 289.9987 722.8383 289.1659 722.6813 288.5737 722.5166 288.6537 722.2952 287.9524 721.9242 286.7766 722.1997 287.4546 721.7025 286.6311 721.2546 285.8893 721.0131 284.8 720.6999 283.9385 720.0536 282.1598 719.8033 281.8256 718.9773 280.2529L715.9657 274.3444C715.9453 274.3163 715.9096 274.2789 715.8903 274.2506L710.0717 263.6178C709.812 263.211 709.7148 262.8397 709.4044 262.351L703.9616 254.1572C702.8002 251.8566 700.6195 250.0594 699.1569 247.9484L694.3932 242.2196C694.3697 242.191 694.3371 242.1505 694.313 242.1218 694.2889 242.0935 694.2546 242.0549 694.2297 242.0271L692.5978 239.9811C692.424 239.792 692.3738 239.7609 692.1774 239.5315 691.079 238.2463 690.2938 237.3568 688.9745 236.2496 688.6993 236.0188 688.8121 236.1308 688.57 235.8057L686.7833 234.0584C686.5186 233.8336 686.6362 233.947 686.3406 233.6516L686.1645 233.4722C686.1387 233.4464 686.1005 233.4104 686.0747 233.3846L683.284 230.5981C683.2582 230.5706 683.2222 230.5332 683.1961 230.5057L681.9829 229.2531C681.8145 229.0924 681.9659 229.2248 681.6883 229.0062 680.0862 227.7437 679.8223 226.9616 678.6187 225.9768 675.8932 223.7465 673.941 221.9165 671.0556 219.7256L670.0343 218.8315C669.7545 218.6447 669.7315 218.6875 669.471 218.5169 669.2142 218.3491 669.2102 218.2989 668.971 218.137 668.1328 217.5704 667.0721 216.9799 666.3087 216.2361 665.5895 215.5357 664.9223 215.3293 664.1521 214.7253L659.1203 211.2177C659.0843 211.1981 659.0395 211.1729 659.0044 211.1528L649.4519 205.8197C649.2036 205.6842 649.086 205.6847 648.8223 205.5708L639.879 201.0458C639.8439 201.0268 639.8022 200.9982 639.7688 200.9786L636.6166 199.6129C636.2065 199.4471 636.3394 199.4559 636.0406 199.3133L634.9011 198.8476C633.7247 198.1681 632.9716 198.3804 631.9429 197.8007L625.0654 195.6183C624.6167 195.4865 624.1122 195.4159 623.6391 195.3096 622.8204 195.126 622.804 194.9528 622.3697 194.8215 621.864 194.6687 621.2699 194.6979 620.7129 194.5332L616.5181 193.3163C615.9917 193.208 615.4189 193.163 614.9166 192.9779L614.4372 192.7624C614.399 192.7485 614.3542 192.7301 614.3145 192.7176 614.0985 192.651 613.8266 192.6201 613.5891 192.5853L611.3412 192.1663C610.1342 191.6575 608.9029 191.8712 607.5652 191.4129 606.3406 190.993 605.7235 191.1515 604.3292 190.9817 603.0952 190.8315 602.4132 190.5545 601.2417 190.402 600.116 190.2555 598.9368 190.2886 597.797 190.2515 596.8619 190.2209 596.795 190.1336 596.2102 189.9422 595.6594 189.7617 595.3337 189.7645 594.6803 189.7002 591.6356 189.4005 590.5902 188.9578 588.1782 188.8271 586.9874 188.7627 586.3209 188.3707 585.1312 188.2193 584.5473 188.1448 583.9243 188.1105 583.4622 187.979 581.1469 187.3193 576.9978 186.7785 575.8997 186.4655 574.289 186.0069 573.7969 186.1353 571.5043 185.4459 571.032 185.3042 570.5011 185.2903 570.0257 185.1721 569.3604 185.0071 569.2637 184.8268 568.5826 184.7004 568.0012 184.5924 567.633 184.5825 567.0652 184.4563 566.0637 184.2341 565.4506 183.9529 564.1449 183.7086 563.0947 183.5118 562.4376 183.1873 561.282 182.918L558.4569 182.0795C556.835 181.5551 555.7003 181.0913 554.0797 180.8538 553.1386 180.7157 553.5476 180.6228 552.8438 180.3475L548.6386 179.1218C548.1782 178.9529 547.7423 178.7522 547.3599 178.6706 543.6391 177.878 544.729 177.4709 543.2805 177.1963 542.1421 176.9805 541.5182 176.6293 540.3983 176.3881 539.3517 176.1627 539.9124 176.1409 539.1454 175.8756L536.4867 174.8877C535.3415 174.5745 536.0927 174.5677 535.1511 174.3086L533.8375 173.821C533.2578 173.4814 532.355 173.4976 531.735 173.1112 531.0009 172.6537 530.553 172.8377 529.7179 172.5299L525.9056 170.9082C525.4274 170.6426 525.0297 170.6474 524.4769 170.4197L521.9614 169.2635C521.7386 169.1708 521.4827 169.1348 521.2885 169.0688L517.0164 167.0445C516.4191 166.8362 516.183 166.8889 515.6087 166.6494L510.027 164.0211C509.934 163.9667 509.8195 163.8964 509.7039 163.8201L505.5778 161.6647C504.5318 161.0019 504.3178 161.21 503.4073 160.6663L493.962 155.4114C493.7669 155.2754 493.827 155.3264 493.6541 155.1801L490.6176 153.3467C490.1641 153.072 489.8976 153.0683 489.4118 152.7908L486.053 150.5628C485.2293 150.0318 484.505 149.7294 483.8587 149.0579 483.5767 148.7645 483.2501 148.5533 482.889 148.322 480.9747 147.0966 481.0323 147.4398 478.4839 145.5338 477.5873 144.8631 476.496 144.3557 475.6388 143.6437L475.2836 143.2936C474.709 142.7502 473.7163 142.3806 472.9983 141.9069 471.5501 140.9522 470.3031 139.6868 468.9167 138.6632L466.7576 137.1283C466.2947 136.7303 466.4169 136.722 465.8383 136.3147 464.5086 135.3784 463.5941 134.3083 462.3514 133.3361L460.8187 132.0695C459.3838 131.1985 458.2874 129.7361 457.0033 128.6983L454.1587 126.1199C453.7494 125.7369 453.4963 125.6783 453.0614 125.2947L451.3037 123.5443C451.279 123.5194 451.245 123.4806 451.2197 123.4568L445.6675 118.1639C445.604 118.0953 445.5805 118.0641 445.5006 117.9726L445.3415 117.7815C445.3183 117.7549 445.2863 117.7146 445.2627 117.6888 444.9943 117.3943 445.1068 117.5389 444.8251 117.2571L443.143 115.6156C443.1192 115.5883 443.0874 115.5467 443.0636 115.52 442.6194 115.024 441.7764 113.989 441.1327 113.9063 440.4648 115.1031 440.8036 121.0853 440.8019 123.1112L440.7718 342.6437C440.7642 348.5129 440.5521 360.7475 441.1984 366.2178 441.2883 366.9792 441.481 367.3341 441.5128 368.3509 441.5791 370.4754 441.3923 373.1117 441.9074 374.9528 442.3555 376.5546 442.1951 377.5 442.2898 379.368 442.3436 380.4341 442.9497 381.7514 442.9596 381.8086 442.9848 381.9566 442.986 382.155 443.0004 382.3146 443.111 383.5321 443.622 383.978 443.679 385.3199 443.7082 386.0118 443.721 386.7287 443.8902 387.3257 444.1952 388.4012 444.4804 387.8932 444.5232 389.1711 444.5799 390.8659 445.1924 391.4493 445.2301 393.2084 445.2528 394.2604 445.396 394.1362 445.7137 394.8979 446.0567 395.7211 445.7843 396.0731 446.1695 396.883 446.7577 398.12 446.5794 399.8869 447.0724 400.8694 447.3887 401.5006 447.3366 402.6223 447.6988 403.1977L447.8519 403.4132C447.8746 403.4565 447.9009 403.4962 447.9208 403.5436 448.105 403.9838 448.0342 404.1853 448.098 404.6658 448.2683 405.9437 448.52 405.2032 448.7233 406.2983 448.9123 407.3165 448.611 407.3723 449.1561 408.2267 449.553 408.8486 449.619 409.426 449.6377 410.1653 450.6942 410.4238 450.125 411.1999 450.4941 412.0002 450.8045 412.6731 450.7818 412.2564 450.9649 412.9523 451.4014 414.612 451.3263 413.8251 451.7456 414.9317L452.4659 417.0699C452.7439 418.4912 453.5555 419.6228 453.8659 420.5358 454.0133 420.9701 453.907 420.7876 453.9923 421.147 454.2129 422.0759 455.0794 422.7335 455.4391 423.8405L457.9705 428.7631C458.1465 429.0868 458.0274 428.8133 458.2556 429.1787 458.6831 429.8627 458.5275 430.6482 459.5357 432.112 459.8073 432.5066 459.8067 432.5641 460.0171 433.0244L462.8721 438.5959C463.3965 439.6946 465.6444 442.6852 466.2575 444.1363 466.5257 444.7706 466.6779 444.6595 467.0589 445.4263L473.3073 454.3727C473.7461 454.8923 473.5026 454.5867 473.8788 455.2138 474.173 455.7047 474.8117 456.2104 475.1668 456.7093L479.236 461.5676C479.6501 462.0149 479.6685 462.3806 480.0705 462.8282L481.7554 464.6358C482.0545 465.0106 482.3711 465.1784 482.5315 465.6515ZM215.9169 159.7966C216.301 159.8661 219.744 159.677 220.2704 159.5755 220.9071 159.4531 220.3089 159.5072 221.1409 159.2719L224.3548 158.9542C226.3054 158.7597 227.3732 158.4309 228.5374 158.3719 231.9403 158.1999 231.6118 157.8138 232.5521 157.7001 233.3446 157.6043 234.176 157.629 234.8289 157.5119 235.5721 157.3784 235.927 157.1431 236.5991 157.0283L242.8807 156.0881C243.2412 156.0552 243.1463 156.0787 243.4317 155.9818 243.5839 155.9302 243.3934 155.9829 243.7713 155.8227L248.3609 154.8147C249.0936 154.6809 250.0078 154.7155 250.5821 154.5642 251.4288 154.3405 251.2956 154.1563 252.3189 154.044 255.765 153.6653 254.2501 153.6707 256.3121 153.2976 257.802 153.0283 260.7021 152.5133 262.0562 152.0589 262.6243 151.8681 263.3746 151.8069 264.0416 151.7287 265.1377 151.6003 265.0178 151.3831 265.9195 151.177 266.5667 151.0291 267.2053 151.0696 267.8151 150.8193 269.0138 150.3272 268.242 150.5597 269.7571 150.2938 270.3696 150.186 270.9408 149.9644 271.5335 149.7949 272.1387 149.6217 272.8891 149.5208 273.4597 149.2977L276.8323 148.1644C278.022 147.9835 277.757 148.1803 278.6964 147.7267 279.5397 147.3199 279.8365 147.5212 280.7444 147.2817 281.45 147.0957 281.2005 146.9517 282.3942 146.6745 282.7335 146.5957 283.0028 146.5444 283.3254 146.3987 283.6449 146.2538 283.7486 146.1302 284.1951 146.0358 285.2419 145.8136 285.1393 146.0971 286.0566 145.6206 286.7338 145.2691 287.2505 145.2906 287.8676 144.9856 288.6299 144.6092 290.5946 143.7911 291.3392 143.727 293.0545 143.5791 291.9277 143.6196 293.0289 143.1556L294.8349 142.5059C295.5061 142.2842 296.085 142.3304 296.672 142.0563 297.322 141.753 296.6091 141.9265 297.6165 141.7102 298.1514 141.5957 298.1271 141.6277 298.4516 141.4123 299.2218 140.9009 299.2521 141.0695 300.0095 140.6889 300.5855 140.3994 300.2278 140.4731 300.7857 140.2549L303.3527 139.3143C305.2134 138.7757 307.8882 137.2731 309.8174 136.5273L312.45 135.4737C315.4793 133.8369 321.0486 131.4819 323.2854 130.0589L328.7534 127.2881C329.2781 126.9386 328.9995 127.1455 329.5644 126.8614L331.187 125.6536C331.2729 125.5448 331.3602 125.3364 331.3797 125.367 331.4004 125.3996 331.448 125.2641 331.4798 125.2111 332.1567 125.4937 331.9509 125.0629 332.6564 124.7545L340.67 119.9642C341.5337 119.5101 341.2672 120.0008 341.9612 119.3417L354.5201 110.3556C354.5637 110.3272 354.6938 110.2516 354.7372 110.2232L355.7126 109.4681C356.2826 108.9388 356.0913 108.6401 357.0389 108.0227L360.7804 105.2827C361.12 104.9063 361.33 104.6687 361.6569 104.3972 362.0166 104.0984 362.3902 103.847 362.751 103.5578L364.6191 101.939C364.9068 101.5991 365.0791 101.3919 365.2362 100.9831 364.6372 100.6339 364.8657 100.7456 364.3934 101.0007 364.032 101.196 364.3671 101.0716 363.9231 101.2666 361.8258 102.1881 362.9543 101.9543 361.7881 102.5989 360.2854 103.4297 357.4911 104.5621 356.1928 105.4035L346.6049 109.8278C343.5891 111.2706 344.3576 110.5892 343.495 110.9466 343.3263 111.0166 342.2078 111.9407 340.6601 112.3036 339.5378 112.5663 339.6095 112.6933 338.7603 113.1534 336.9118 114.1549 338.1976 113.4782 336.7638 113.9443L332.7885 115.3874C331.1328 115.7837 327.5626 117.3626 326.4996 117.4856 325.999 117.5434 325.7546 117.5615 325.3136 117.7325 323.1068 118.5877 324.0422 117.9901 323.0745 118.3105 322.3196 118.5602 323.5825 118.3552 320.997 119.0001L317.9367 120.1062C317.1144 120.4529 316.4732 120.2953 315.5238 120.5073 314.6037 120.7131 314.9334 120.9521 313.3539 121.1236 311.9179 121.2795 312.2138 121.5666 311.0987 121.6922 309.2664 121.8986 308.5929 122.3521 307.7243 122.5111 307.2696 122.5942 306.9187 122.563 306.4581 122.6659 305.7146 122.832 305.0362 123.0551 304.1855 123.1991 302.4643 123.4911 300.5076 124.1096 299.698 123.9389 297.97 123.8185 298.0332 124.2522 296.7574 124.4591 295.1005 124.7278 289.3385 125.5133 288.5984 125.816 287.8594 126.1182 286.5509 126.0828 285.7294 126.1573 284.4689 126.2718 284.1891 126.616 283.1221 126.7135L278.6315 126.9612C277.8866 127.129 278.5799 127.2104 277.5351 127.4026 276.6124 127.5724 275.4014 127.5114 274.5164 127.6586 273.6207 127.8077 272.8619 128.0086 271.8799 128.122L260.4606 129.1898C255.1626 129.9073 247.1913 129.3744 241.8715 129.8628 233.5178 130.6301 213.3011 130.3245 204.3975 130.3078L109.4125 130.3055C101.7275 130.3169 103.2197 129.2264 103.2146 135.7058L103.2126 151.9741C103.2622 256.212 102.9858 360.5173 103.2018 464.7424 103.2083 467.9263 102.9402 472.265 103.235 475.3015 104.0227 475.8316 104.3167 475.6663 105.5633 475.6504L135.485 475.6456C138.0807 475.6626 137.5305 474.8641 137.471 472.7988 137.4197 471.0189 137.4608 469.1546 137.4608 467.3662 137.4588 373.4643 137.1478 279.345 137.283 185.3847 137.2932 178.2561 137.0103 170.6647 137.2785 163.6021 146.8996 163.345 158.3881 163.5531 168.3626 163.5324 170.6851 163.5273 178.8114 163.4666 180.7872 163.2334 181.8794 163.1044 181.9928 162.9037 183.0489 162.8711 185.5386 162.7943 190.7802 162.7773 192.8245 162.3685L202.1236 161.4722C203.7118 161.3854 205.4517 161.3976 206.835 161.1281 208.8198 160.7409 214.9053 160.6354 215.9169 159.7966ZM315.1253 85.5079C317.3366 85.4768 317.7879 85.1703 319.0314 84.839 319.7106 84.6581 320.4539 84.6748 321.1534 84.4982 323.0756 84.0129 323.7846 83.9273 325.7453 83.194 328.2554 82.2552 328.2111 82.6529 330.2725 81.9493 330.9551 81.7163 331.6042 81.7364 332.3443 81.5536L335.9854 80.454C336.8169 80.2406 337.0045 80.2817 337.7568 79.9625L343.1262 78.1345C344.4426 77.9312 343.9307 77.8912 344.8576 77.5772 345.1995 77.4615 345.5082 77.4371 345.8151 77.3152 346.2443 77.1449 346.1309 77.089 346.6108 76.8957 347.2364 76.6437 347.8414 76.6539 348.3709 76.3761L350.8506 75.1932C352.5718 74.6748 352.1991 74.4885 353.0262 73.9171 353.5651 73.5449 353.3567 73.8349 353.9075 73.5778 354.5385 73.283 354.3236 73.2322 354.5028 73.1296 355.1207 72.7758 354.9994 73.2762 356.3921 72.5426 357.4026 72.0096 356.7283 72.6131 357.8692 71.75 358.2357 71.4725 358.2437 71.5533 358.6898 71.3625 359.1564 71.1632 358.8534 71.2936 359.1587 71.1162 360.6129 70.2711 360.5199 70.4409 361.5117 69.9698 361.8717 69.7989 361.6997 69.8715 361.8465 69.7697 362.2552 69.486 362.0047 69.5676 362.5569 69.2906L365.6001 67.6003C366.3034 67.189 366.4094 67.1709 367.0982 66.8256 367.8077 66.4702 368.9056 65.3644 369.7917 64.9987 370.3408 64.7719 370.1546 64.9522 370.6603 64.6021L370.9511 64.3725C370.9811 64.3521 371.0237 64.3249 371.0546 64.3051L371.793 63.798C372.3735 63.3093 372.0753 63.5944 372.8069 63.2781 373.6811 62.9002 373.2514 62.7562 375.0471 61.831 376.8883 60.8831 377.6479 60.0746 379.2549 59.0247L385.7253 54.2781C385.7567 54.2563 385.8009 54.2288 385.8321 54.2072L387.3705 52.9625C387.6775 52.6997 387.8048 52.6618 388.0862 52.4458L389.9534 50.8173C390.2352 50.563 390.3707 50.5128 390.632 50.2767L399.7174 41.6962C400.8847 40.3234 402.5571 38.8298 403.8647 37.622 405.4377 36.1689 405.3336 36.4844 406.5157 35.5473 406.9658 35.1901 406.6183 35.3696 407.2255 35.0388L410.3708 33.3054C410.4079 33.2872 410.4496 33.26 410.4859 33.2413 410.5216 33.2232 410.5627 33.1954 410.5984 33.1775 411.7465 32.6004 412.0608 33.0642 412.5991 32.3243H428.7033C429.8666 33.1257 431.5377 33.2169 433.9908 35.0317 434.3397 35.2896 434.5393 35.5243 434.8434 35.7347L435.8401 36.3283C436.1902 36.5896 436.3673 36.7829 436.6698 37.078L439.6629 40.5726C440.049 41.1931 440.6009 41.7093 441.0578 42.3099L442.23 44.303C442.7169 44.9957 443.1002 45.6123 443.6359 46.1976 445.2188 47.9273 446.0542 49.9859 447.3913 51.8992L448.5495 53.8974C450.2293 56.1991 451.8094 58.6528 453.7208 60.7887L454.2191 61.4979C454.2412 61.5302 454.269 61.5745 454.2919 61.6056L455.4028 62.9354C456.1203 63.9281 456.6569 64.3258 456.8618 64.6149 457.9977 66.2176 458.7477 67.3883 460.1186 68.9054L461.5866 70.6076C462.8327 71.6647 463.6395 73.0403 464.7217 74.2683L465.5273 75.0399C465.8068 75.3639 465.9046 75.6283 466.1649 75.9875 466.99 77.1256 468.5587 78.1826 469.3612 79.0761 469.6404 79.3868 469.8 79.5832 470.1144 79.901L476.4645 86.146C476.8024 86.4839 476.93 86.7362 477.2996 87.0582 479.6427 89.098 481.9813 91.7116 484.4078 93.2723L486.6877 95.1681C487.0372 95.457 486.9255 95.3416 487.2169 95.5355 488.1591 96.162 489.1416 97.4154 489.9614 98.1884L495.6996 102.0909C496.1713 102.3642 496.1914 102.4716 496.569 102.7763 498.64 104.4482 500.7061 106.0954 503.0269 107.3602 504.4184 108.1185 505.4808 109.2098 506.8967 109.9664 507.7417 110.4177 507.0679 109.9278 507.8256 110.5852L516.0702 115.8046C516.2774 115.9311 516.3245 115.9282 516.5388 116.0374 517.1374 116.3424 516.7219 116.1105 517.0796 116.3755L520.5481 118.3207C521.0147 118.5823 521.1887 118.7079 521.7282 118.9001 522.8368 119.2955 523.7464 119.9993 524.7853 120.5552L528.9914 122.6599C529.5042 122.9233 529.4721 122.9746 530.0212 123.2033L532.7065 124.5319C532.9488 124.6646 532.9069 124.626 533.1917 124.7414 533.5739 124.8962 533.4934 124.8534 533.7882 125.0229 534.3766 125.3614 534.8676 125.2613 535.515 125.5932 537.626 126.6761 537.857 126.6557 540.0292 127.5616 540.9683 127.9531 540.3039 127.8377 540.9496 128.1719 541.3793 128.3941 541.7362 128.3357 542.1878 128.5268 542.5447 128.6776 542.7686 128.9169 543.1771 129.0855 543.5923 129.257 543.9107 129.2791 544.3679 129.4826L546.4882 130.4864C547.0764 130.6865 547.3885 130.5295 547.9716 130.8013L552.3477 132.6824C552.7528 132.8216 553.1831 132.8315 553.6159 133.0084 554.7532 133.4733 555.9721 134.0164 557.2151 134.2848L560.6467 135.5624C561.1567 135.6999 561.5365 135.6378 562.0209 135.8014 562.6395 136.0097 562.5006 136.1645 563.0488 136.3122 563.8011 136.5151 564.4556 136.5568 564.9732 136.87 565.653 137.2819 567.2424 137.4613 567.9581 137.7096 568.8315 138.0129 569.075 137.8582 570.4132 138.3934 571.3217 138.7568 572.1151 138.4676 573.0625 138.9212 574.0313 139.3846 574.4293 139.2698 575.572 139.5207 576.0411 139.6239 576.4181 139.8234 576.9133 139.9365 577.3997 140.0474 577.8306 140.0397 578.2941 140.1525 579.0195 140.3294 580.1868 140.7294 580.733 140.826 581.2597 140.9193 581.6585 140.8476 582.1702 141.0089 582.6855 141.1713 582.5526 141.3091 583.304 141.4123 584.3458 141.5554 585.0573 141.6172 586.0037 141.88 587.9571 142.4225 588.6371 142.2136 589.9737 142.63 591.4536 143.0915 592.6958 142.956 594.0306 143.2851 595.5931 143.6703 597.9555 143.8177 599.6222 144.1684 601.6706 144.5995 606.4381 144.8467 608.1225 144.0955 608.9306 143.7352 609.5713 143.6457 610.4982 143.3163 611.3818 143.0025 611.9739 143.0152 612.8889 142.5574 613.3371 142.3327 614.7238 141.9228 615.2496 141.7572 616.5244 141.3556 615.6831 141.8885 617.6923 141.0452 618.1946 140.8343 618.6875 140.8541 619.1501 140.7163 619.8962 140.4935 619.5132 140.4425 620.1451 140.1885 620.608 140.0023 620.9983 140.0658 621.4414 139.8847 622.4587 139.4685 627.3598 137.4406 628.4336 137.2714 629.6006 137.0871 629.7647 136.6506 630.72 136.4391 632.3834 136.0709 633.8877 135.1996 635.5882 134.9493L638.0855 134.1329C638.8926 133.8973 638.5062 133.8956 639.1925 133.6714 639.5893 133.5419 640.1492 133.5416 640.5001 133.3916 640.8675 133.2349 640.8737 133.06 641.5157 132.8499 642.0393 132.6787 642.1864 132.6898 642.678 132.4528L650.9996 129.714C651.725 129.4512 651.2854 129.4231 652.0496 129.2043 652.8674 128.9704 652.4853 129.2471 653.205 128.8176 653.792 128.4678 654.8916 128.3743 655.6062 128.0435 658.0052 126.9337 658.0848 127.2898 659.4661 126.9422 660.17 126.7654 659.7388 126.6902 660.4741 126.4215 661.0419 126.214 661.1136 126.3696 661.6505 126.0527 662.3532 125.6374 661.6783 125.7177 662.8691 125.5924 664.2924 125.443 663.9386 125.4095 664.9693 124.9699L665.2553 124.8701C665.8778 124.6796 665.8019 124.7947 666.3756 124.4755 666.9 124.1833 666.2004 124.414 667.021 124.1906 667.0403 124.1855 667.5554 124.0954 667.6353 124.0801 668.7442 123.8683 668.1214 123.7584 669.0586 123.4553L672.2056 122.4221C672.8675 122.0995 672.2583 122.1919 673.3131 121.9243 673.9498 121.7631 673.9104 121.8027 674.4376 121.5213L676.8567 120.6011C678.1663 120.1323 678.0144 120.6873 679.2378 119.8763L681.5486 118.9786C682.706 118.7453 683.8875 118.1747 684.9448 117.7027 685.5945 117.4124 685.5659 117.54 686.2986 117.419L689.6826 116.1258C693.2166 114.9333 691.7159 115.6127 693.667 115.2575 694.2827 115.1453 693.2081 115.4795 694.0545 114.9199 694.0888 114.8973 694.1302 114.8649 694.1684 114.8434 694.6897 114.5492 695.2093 114.5908 695.755 114.3181 696.435 113.9786 697.4991 114.008 697.9884 113.6106 698.5261 113.1744 697.8722 113.47 698.6931 113.0695L704.8667 110.6957C705.9903 110.1223 709.5705 109.2419 711.1029 108.5261L716.4159 106.6487C716.8317 106.5555 717.1614 106.5521 717.448 106.45 717.9542 106.2703 717.7669 106.2286 718.251 106.0452 718.8508 105.8179 719.8115 105.9148 720.3206 105.6421 720.5142 105.5387 720.4881 105.5134 720.6721 105.3578 721.6968 104.4913 723.1323 104.3507 724.3815 103.7979 725.9958 103.0839 729.498 102.5342 730.8609 101.8514 732.56 101.0001 734.3541 100.5568 736.1966 99.9856 736.988 99.7401 737.1184 99.4884 737.9626 99.303 739.1256 99.0471 740.2757 98.2281 742.4328 97.6921L748.5814 95.4663C749.2263 95.2123 749.4962 95.0445 750.0872 94.8815 751.1876 94.8861 752.9797 94.2097 753.8808 93.7766 754.5271 93.4659 754.998 93.5929 755.6414 93.2417L759.1224 92.0157C759.7528 91.8337 760.0518 91.5783 760.7863 91.3966 762.3193 91.0179 762.4845 90.5267 763.3037 90.4941 764.7849 90.4354 763.988 91.1273 763.6949 92.0744 763.6102 92.3479 763.5555 92.7394 763.439 93.0654L762.2053 96.1909C762.0605 96.6631 762.1586 96.5254 761.9471 96.967 761.6917 97.5008 761.7759 97.0767 761.5942 97.9016 761.2016 99.6817 761.154 98.8455 760.7211 100.2832 760.3642 101.4701 759.7791 102.6573 759.6646 103.769 759.4489 104.3082 759.0736 105.2853 758.8505 105.9242 758.1756 107.858 757.7515 108.284 757.3969 109.1373L755.149 116.2157C754.9997 116.7466 755.0751 116.9989 754.8401 117.4901L750.9322 127.5463C750.7312 127.9993 750.7494 128.3278 750.581 128.7808 750.4347 129.1748 750.2185 129.3698 750.0813 129.8432 749.9381 130.3376 750.0189 130.5465 749.8239 131.0066 749.63 131.4638 749.4769 131.3521 749.2677 131.9893 749.0863 132.5412 749.1852 132.7465 748.95 133.2677 747.832 135.7427 747.7106 136.9857 746.9232 139.1289 746.7471 139.608 746.68 139.4467 746.4535 140.0437 746.3149 140.4091 746.2681 140.8921 746.1136 141.2864 745.7159 142.3043 745.2312 143.0717 744.8907 144.8189 744.6501 146.054 744.4655 145.2711 744.1583 146.4951L741.4347 153.7174C740.9826 154.9911 741.7035 154.0157 740.6578 156.1008L738.2843 163.0213C738.006 164.2861 738.0887 163.0267 737.3214 165.1533L736.5362 167.3566C735.8391 168.8786 736.3602 168.5441 735.7073 169.691 735.3238 170.3642 735.4154 170.754 734.8601 171.9754 734.6551 172.4258 734.648 172.7541 734.5267 173.2071 734.2563 174.217 734.313 173.5498 734.0454 174.3066 733.8668 174.8126 733.9218 175.026 733.701 175.5646 733.5351 175.9686 733.4155 176.0071 733.4067 176.4646 732.7256 177.1333 732.0574 179.2806 731.7592 180.104 731.4897 180.8484 731.4809 181.2036 731.1402 181.9335 730.9539 182.3323 730.9627 182.4656 730.8167 182.8199 730.5653 183.4296 730.6072 183.1088 730.3618 183.5532 729.9989 184.21 730.2745 184.5828 729.7722 185.4357L726.8287 193.5145C726.196 194.5089 726.7479 194.489 726.2654 195.4114 726.0625 195.7989 726.0046 195.5494 725.8473 196.1371 725.5945 197.0821 725.1812 199.1645 724.6843 199.9531 723.9781 201.0725 724.5763 200.3471 724.2219 201.3695 724.1448 201.5915 724.0445 201.7318 724.0382 201.7426 723.6281 202.4456 723.8843 201.4696 723.6536 202.5147 723.5858 202.822 723.6009 203.188 723.4821 203.5882 723.1442 204.7275 722.9242 203.7487 723.005 205.5013 723.5374 205.8715 724.3396 206.9254 724.8713 207.5397L734.9842 219.8197C735.857 220.801 736.5677 222.6654 737.7602 223.1683 739.029 225.125 740.8446 227.2371 742.0113 229.2321L747.9116 237.8171C748.527 239.3286 751.7197 243.9729 752.1151 244.8136 753.0576 246.8169 753.6818 247.4325 754.2479 248.6237L755.8183 251.4183C755.9433 251.657 755.9342 251.7086 756.0646 252.0295L757.372 254.9557C757.7257 255.7191 757.7538 255.1873 757.9687 256.0757 758.0611 256.4592 757.9709 256.4186 758.1351 256.8254 758.3267 257.3002 758.3085 257.1134 758.4134 257.256L759.5056 259.6558C759.994 260.6865 760.5476 261.5598 760.9008 262.6305L762.2059 265.7041C762.4831 266.2809 762.3303 266.4142 762.5316 266.9865 762.6793 267.4057 762.8706 267.4287 763.1277 268.1141L764.0212 270.7478C765.0298 272.9713 765.2925 272.5109 765.9672 275.6322L768.64 283.2559C768.8588 283.7489 768.8526 284.131 769.0173 284.6435L769.4909 285.944C769.695 286.9058 770.1299 287.4586 770.3082 288.4357 770.5043 289.5111 770.9754 289.997 771.1554 291.0677L772.3315 294.9525C772.7156 295.9288 772.5025 296.6119 772.9846 297.6279 773.2613 298.2104 773.2565 298.1889 773.4192 298.8986 773.5671 299.5441 773.7389 299.7085 773.8614 300.2031 774.2648 301.8311 774.5831 304.4971 775.0789 305.9923L777.1022 317.6476C777.5768 318.6692 777.6836 318.7497 777.7148 320.2455 777.7641 322.6031 778.3427 323.2015 778.4354 326.558 778.4739 327.962 778.8705 328.2364 778.9368 329.5244 779.1831 334.2997 779.8368 341.3999 779.8462 345.6125 779.8598 351.5397 780.234 360.0799 779.4414 365.8212 779.0703 368.509 779.2554 371.3145 778.9394 373.9215 778.883 374.387 778.7279 374.8652 778.646 375.3584 778.3274 377.2729 778.6346 379.8153 778.1386 381.693 777.6828 383.4196 777.7018 385.9631 777.2545 387.6358 776.9993 388.5885 777.0467 389.7281 776.8809 390.5915 776.6541 391.7718 776.3253 392.1347 776.2929 393.5449 776.2524 395.3231 776.2334 394.7564 775.6563 396.1205L775.0638 399.0586C774.8558 399.7511 774.8172 401.6934 774.6157 402.1123L774.0904 403.3514C773.7437 406.1222 773.4441 406.2342 772.7576 408.831 772.6054 409.407 772.6952 409.8685 772.5767 410.4371 772.4923 410.8422 772.2445 411.1676 772.0818 411.6606 771.9437 412.0787 771.9035 412.5025 771.7941 412.9534 771.622 413.6618 771.4879 413.5487 771.2708 414.1397 771.0446 414.7554 771.188 415.0902 771.0418 415.7107 770.8467 416.5379 770.7053 415.8125 770.5324 416.9795 770.4544 417.5045 770.4981 418.0017 770.3572 418.3464 770.0797 419.0253 769.9419 418.6134 769.7299 419.4479 769.5516 420.1503 769.6964 420.2671 769.3963 420.8516 768.8191 421.9753 769.2163 422.6389 768.5535 423.4762 768.1864 423.9394 766.2949 429.0163 766.1305 429.6339 765.9703 430.2369 766.101 430.5815 765.8606 431.1473 765.3898 432.2554 765.3016 432.9502 764.9546 433.5489 764.2502 434.7643 763.8565 436.2123 763.2867 437.485L759.1825 446.8346C759.0764 447.0012 758.9608 447.0622 758.8264 447.3414 758.6626 447.6813 758.7553 447.5857 758.643 447.8882 758.416 448.4996 758.6376 447.9012 758.3545 448.4597 758.1844 448.7956 758.3451 448.3468 758.1824 448.8463L757.5239 450.25C757.014 451.1052 756.7489 452.2204 756.127 453.0195 755.4696 453.8631 755.1255 455.0051 754.619 455.9156L753.2396 458.7001C753.2169 458.7259 753.1773 458.7602 753.154 458.7863 751.9439 460.1597 751.4209 462.0878 750.4381 463.6242L750.09 464.1619C749.9503 464.4179 749.9826 464.4422 749.785 464.718L745.3522 472.1709C745.0055 472.5955 745.2935 472.1216 744.9514 472.6664L742.8532 475.6306C742.625 475.9347 742.7429 475.8199 742.4898 476.136L739.5474 480.183C739.1741 480.5821 739.1027 480.767 738.777 481.1672L728.9461 493.5529C728.3426 494.2616 727.8627 494.5 727.2913 495.3835 726.8241 496.1058 726.3493 496.5486 725.7773 497.2042 725.2634 497.7935 724.7001 498.4359 724.1122 499.0351L718.8114 504.7489C718.6414 504.8926 718.5008 505.0151 718.3488 505.1639L718.0084 505.535C717.9843 505.5622 717.9542 505.6047 717.9301 505.6319L716.1015 507.3038C713.9251 509.8757 715.2576 508.1346 713.7096 509.275L711.4927 511.259C710.1839 512.3577 710.9161 511.9308 709.1144 513.2676 708.8372 513.4734 708.6178 513.7911 708.3652 514.0672 707.472 515.0446 706.3625 515.8052 705.2961 516.6153L704.6232 517.1553C704.2524 517.5133 704.1472 517.6687 703.707 517.9929 703.2988 518.2937 703.0797 518.3963 702.682 518.7186L700.759 520.2833C700.7321 520.3083 700.6929 520.3426 700.6652 520.3672L700.3692 520.6022C698.8003 521.9172 692.5842 526.5454 690.9707 527.4746 689.6126 528.2569 689.5171 528.6892 687.9762 529.5362L681.4361 533.52C680.8572 533.8593 681.1336 533.8545 680.5757 534.202L678.2601 535.3968C677.7536 535.7001 677.609 535.7055 677.071 535.968L673.4271 537.9228C673.382 537.9494 673.2459 538.0197 673.2009 538.0458 672.3782 538.5214 670.0263 539.941 669.3279 540.1089 668.6969 540.2611 668.3179 540.2923 667.9613 540.5083 667.9517 540.5139 667.643 540.7061 667.6353 540.7098 667.5962 540.7285 667.5503 540.7483 667.5094 540.7656 666.3991 541.2322 666.5675 541.3731 665.6236 541.6767 664.4636 542.0497 664.4265 542.3757 661.9935 543.1436 661.1474 543.4106 661.6894 543.4132 660.8925 543.7565L649.8743 548.1128C649.171 548.3021 649.1183 548.1584 648.4371 548.445 647.8583 548.6885 647.8359 548.7026 647.087 548.8722 646.3843 549.0315 646.357 549.0556 645.8287 549.3297 645.2957 549.606 645.1067 549.58 644.54 549.7843L637.9696 551.791C637.4333 551.9412 637.2281 551.9341 636.7677 552.1567 635.2123 552.9095 633.1175 552.9796 631.4363 553.625 630.2849 554.0672 629.3903 553.8436 628.3908 554.1262 627.4908 554.3804 626.777 554.7379 625.7886 554.8184L614.082 556.8284C612.9111 556.8792 611.8311 556.9313 610.9123 557.1323 608.1868 557.729 604.2203 557.5912 601.4795 558.0332 597.6811 558.6452 584.7426 558.6576 581.4204 558.3076 580.193 558.178 579.3698 558.2489 578.2473 558.0023 577.0644 557.7426 576.4175 557.7403 575.0671 557.7216 572.8116 557.6899 570.5286 557.6462 568.5327 557.3699L565.452 556.9733C562.9354 556.8948 553.102 555.1189 550.6257 554.6469 549.792 554.4879 549.8838 554.3884 549.3294 554.1948 548.943 554.0601 548.356 554.0596 547.7888 553.9938 546.5602 553.8512 546.5803 553.3968 545.1599 553.3155 543.9759 553.2474 543.3423 552.901 542.2728 552.6649 541.7368 552.5464 541.2484 552.5745 540.7038 552.4557 540.1834 552.342 539.9804 552.2321 539.4818 552.0889 538.467 551.7975 537.7708 551.5299 536.8399 551.2629L532.1134 550.0162C531.7557 549.8518 531.813 549.862 531.4856 549.7676L525.238 547.484C524.3987 547.1793 523.5934 547.0449 522.788 546.5874 522.1202 546.2079 522.5049 546.2178 521.6964 545.9913L519.1639 545.146C517.4297 544.3265 517.271 544.1199 515.4401 543.6374 514.2206 543.3163 510.7745 541.6435 509.4264 541.0242 508.557 540.6248 509.2291 540.7064 508.422 540.3246L498.3301 535.0414C497.507 534.6658 496.7776 534.4058 496.1313 533.8814L494.1244 532.5769C494.0912 532.5579 494.0521 532.5273 494.0186 532.5086 493.518 532.2331 493.2009 532.2796 492.7473 532.0114L491.654 531.3467C490.8322 530.945 490.392 530.4027 489.4937 530.0008L486.5743 528.2243C486.0425 527.7858 485.8707 527.9411 485.3273 527.379 484.2162 526.2299 482.7285 525.2868 481.5133 524.3596L478.7056 522.1052C478.4066 521.8877 477.9451 521.6661 477.6177 521.4356 474.5024 519.2396 467.0167 512.9649 464.6203 510.4616L462.7151 508.8728C462.1527 508.3132 461.6172 507.8594 461.0472 507.2185L454.288 500.3348C452.971 498.8242 451.588 497.4021 450.4493 495.7523 450.4283 495.7217 450.4039 495.6761 450.3824 495.6466L446.3107 490.9878C445.337 489.7913 444.0878 488.5432 443.2399 487.2348 442.8249 486.5939 443.0798 486.7398 442.5704 486.1636L438.2172 480.3579C437.972 479.8766 437.9873 479.6087 437.6594 479.1591L437.4227 478.8819C437.3997 478.8547 437.3649 478.8162 437.3416 478.7889L434.759 475.0795C434.3502 474.5228 434.4849 474.342 434.1628 473.9213 433.6089 473.1976 433.2254 473.0545 432.703 472.0827L424.0726 456.5962C423.6993 455.5094 423.8623 456.2779 423.4827 455.5967L421.399 450.8257C421.0515 450.1006 421.2247 450.3059 420.7907 449.6953 420.3825 449.121 420.5631 449.1428 420.2402 448.4985L419.2401 446.1752C418.9635 445.6947 418.4989 444.2029 418.2863 443.6087 417.702 441.978 416.7958 440.3903 416.2878 438.7799 416.0574 438.0497 416.2609 438.0673 415.906 437.4153L415.4391 436.2871C415.1018 434.9693 414.294 433.7402 413.9889 432.517 413.7925 431.729 413.8764 431.9762 413.5748 431.3639 412.8165 429.8261 412.8616 427.7103 411.8956 426.4328 411.8828 425.4012 411.0795 422.6034 410.8697 422.1629L406.9074 408.3335C406.749 407.516 406.6886 406.9791 406.518 406.2756 406.2969 405.3637 406.137 405.1179 406.0585 404.0427 405.9831 403.0126 405.9017 402.8366 405.6463 402.0143 405.2441 400.7197 405.3402 398.9993 404.8393 397.7311 404.464 396.7809 404.5827 396.5287 404.4481 395.4988 404.3319 394.6102 404.0198 394.3624 403.9044 393.692 403.7723 392.9238 403.8148 391.898 403.7482 391.098 403.681 390.2919 403.4049 389.8239 403.2757 389.1512 402.9809 387.6168 403.0767 386.1388 402.7056 384.6668 402.3286 383.1715 402.4769 381.6473 402.3113 379.9423 402.1676 378.4598 401.7708 376.9098 401.7243 375.537 401.5009 368.9263 400.9802 362.814 400.9717 356.1131L400.9275 118.3881C400.9311 114.2014 401.4309 112.2843 399.0008 114.7986L397.3119 116.3948C396.9386 116.945 397.1752 116.886 396.5981 117.4652L387.9026 125.9254C387.536 126.4017 387.8317 125.8948 387.5791 126.474 387.0748 126.6157 386.697 127.2206 386.2701 127.6058L383.3838 129.9702C382.9561 130.305 383.203 130.1902 382.5831 130.5867 381.4739 131.2954 380.0353 132.9228 379.006 133.8154L378.3983 134.2593C378.1304 134.4365 377.9501 134.5802 377.7035 134.7883 376.5237 135.7855 376.7091 135.4093 376.1966 135.7534 375.7516 136.0519 376.2207 135.7126 375.8539 136.0721L375.135 136.766C375.0335 136.8493 375.0367 136.8655 374.8039 136.9967L372.545 138.7233C371.9886 139.2307 372.7638 138.7964 371.8658 139.2993 370.0539 140.3133 370.8224 140.2464 369.75 141.0029 369.2662 141.3442 369.447 141.1659 368.9263 141.4392L361.3037 146.7309C359.4954 147.6901 356.1854 150.2969 354.6493 151.071 354.2 151.2975 354.5308 151.1084 354.2 151.3383L342.0091 158.3946C340.1186 159.5823 338.7234 160.1203 337.8107 160.6714L334.8632 162.2676C334.747 162.3563 334.823 162.3864 334.4746 162.5598 334.2317 162.6812 333.8674 162.7353 333.5559 162.8804 333.1259 163.0809 332.4461 163.4757 331.9274 163.7056L330.179 164.5719C329.2815 165.1133 328.2857 165.3789 327.2672 165.7134L317.4494 169.9002C316.9497 170.0595 316.9191 170.0365 316.4689 170.2936 316.4366 170.312 316.3952 170.3418 316.3629 170.3602L312.7725 171.858C311.7796 172.1991 312.1758 171.7466 310.9385 172.4638L306.2704 174.2817C305.4368 174.4838 305.1802 174.7681 304.3372 174.9711 302.2554 175.4722 303.5633 175.2009 302.521 175.5955 302.0593 175.7707 299.6169 176.3053 298.5364 176.8569L298.0531 177.0823C297.2812 177.3754 295.5183 177.8876 294.9055 178.2797 293.563 179.138 294.0809 178.5932 292.9958 178.9645 292.788 179.0357 292.1125 179.3982 292.0598 179.4161 291.6808 179.5459 291.4614 179.4895 291.0421 179.6363 290.0631 179.9785 291.42 179.89 289.0627 180.254 288.1372 180.3969 288.1704 180.7336 287.2505 180.9006 286.668 181.006 286.5427 180.9187 286.0384 181.1336 283.9524 182.0237 285.0911 181.4111 284.0686 181.7694 283.3926 182.0061 283.7271 182.0353 283.3112 182.2136 282.7046 182.4741 281.8363 182.2462 281.0299 182.5929 280.47 182.8338 280.0471 183.172 279.2083 183.1467 278.2174 183.064 277.1748 183.5972 276.1744 183.7551 275.4094 183.8752 275.1831 183.9163 274.5638 184.1329 274.0961 184.2962 273.7259 184.4535 273.2851 184.5116 271.1546 184.7934 269.4747 185.6072 267.3751 185.8215L252.2007 188.852C250.8165 189.1049 251.1366 189.2999 249.1727 189.4669 247.9728 189.5686 247.0893 189.8889 246.0317 190.0046L239.6835 190.9063C238.5334 191.0401 237.4809 190.9939 236.4491 191.2161L227.065 192.6159C225.8649 192.8387 225.2353 192.9453 223.8318 193.0816 221.5417 193.3044 218.7842 193.9541 217.7008 193.9623 214.7139 193.9847 214.0665 194.5284 212.7665 194.6537 212.2753 194.701 211.5641 194.6534 211.0453 194.6588L199.1534 195.6175C196.2173 196.0047 193.8969 196.1374 190.9287 196.2394 188.4161 196.3261 186.5758 196.6039 184.1063 196.655 177.4378 196.7924 176.4845 196.1067 176.5071 199.0264L176.5089 517.3951C176.508 517.9431 176.2486 527.1758 176.7594 527.6409 177.5443 528.3553 186.2249 527.682 188.3231 527.5366L189.7203 527.2713C190.8111 526.9521 194.7523 527.2277 196.3579 527.0868 196.926 527.0369 197.2395 526.8929 197.778 526.8453L202.3509 526.4898C204.5013 526.3121 206.6851 526.3024 208.7031 525.9759 211.1332 525.583 216.4779 525.8903 218.3678 525.3616 219.5442 525.0322 219.9489 525.1039 221.3249 524.9784 223.4407 524.7853 225.004 524.3726 227.1317 524.1912 228.3749 524.0852 228.7854 523.7949 230.0593 523.6452 232.0937 523.4063 232.458 523.669 234.4966 523.0086L241.9509 521.8946C244.3586 521.3588 248.2024 520.9767 250.2831 520.2624 251.3894 519.8822 252.1905 520.0123 253.3167 519.7584L256 519.1316C257.1987 518.9854 257.546 518.692 258.711 518.5009 259.998 518.29 260.4025 517.9878 261.2854 517.8078 263.9273 517.2693 267.1447 516.7891 269.5297 515.8721L277.5453 513.7381C279.3353 513.0805 281.0214 512.8444 282.7729 512.1448 283.356 511.9121 283.4785 511.9294 284.1401 511.774 284.7957 511.6204 284.8623 511.4599 285.3683 511.276 285.9131 511.0781 286.3545 511.1538 286.8684 510.9786 287.5096 510.7601 287.1941 510.6606 287.879 510.476 288.6976 510.2555 288.5241 510.4358 289.2453 510.0693 289.8641 509.7549 289.652 509.8408 290.4364 509.692 291.6652 509.459 292.7877 508.6366 294.1277 508.3209 294.7399 508.1766 294.9922 508.1749 295.5178 507.9334 296.4929 507.4852 300.7636 506.1634 301.6616 505.6716L304.024 504.7044C304.7179 504.5057 304.8077 504.6684 305.3974 504.326 306.1332 503.8988 305.6854 504.0264 306.7223 503.8404 307.6971 503.6658 307.048 503.7486 307.785 503.3778 308.34 503.0986 308.6532 503.2097 309.1538 502.9722 309.7304 502.6986 309.3633 502.6314 310.1003 502.3763L313.7136 500.8895C314.3412 500.6239 314.0606 500.5695 314.8155 500.2736L335.0038 490.083C336.4549 489.3021 337.7968 488.6289 339.2612 487.6478L341.4628 486.3694C342.9493 485.437 344.1566 484.8497 345.5785 483.8352L347.5755 482.3246 349.979 480.8815C350.9626 479.9835 351.3966 479.9364 351.8762 479.6169 351.9884 479.5421 352.1806 479.3244 352.3141 479.1951 353.0239 478.508 353.5753 478.3833 354.6703 477.5261 354.7389 477.4723 355.1953 477.1191 355.267 477.07L356.2903 476.5113C356.7566 476.1831 355.6899 476.9416 356.4845 476.3543L358.217 474.95C359.9745 473.3101 361.9925 472.1261 363.8693 470.632 365.959 468.968 372.4914 463.5862 374.2157 461.7388L379.3399 456.8933C379.9757 456.1503 379.4751 456.3326 380.8103 455.2021L382.3228 453.2822C383.1814 452.9577 383.3209 452.5804 384.0965 451.6688L385.5368 450.127C386.8305 448.9991 385.9863 449.6006 387.3022 448.0679 387.3257 448.0407 387.3597 448.0016 387.3832 447.9744L390.3993 444.5124C390.8707 443.9509 390.3588 444.3335 391.2318 443.4117L391.3903 443.2354C393.3621 440.8367 392.3651 440.6576 393.8431 440.4813L398.3712 451.1245C399.155 452.6167 399.3208 454.2797 400.1394 454.4175 400.3123 455.2078 400.7871 456.5421 401.2237 457.1921 401.7044 457.9075 401.9939 459.0196 402.4213 459.8464 402.7258 460.4352 402.5367 459.9442 402.8309 460.4729L407.5274 470.4809C407.751 470.9735 407.9767 471.1037 408.2876 471.7922 409.1437 473.6874 409.3656 474.1112 407.9143 475.6646 407.219 476.4087 406.6262 476.9365 406.0074 477.7894 405.4969 478.4933 404.788 479.105 404.1947 479.8191 401.8813 482.6018 400.5873 483.5265 398.3488 485.8676 397.0845 487.1897 395.7367 488.5325 394.257 489.6403L388.084 494.8401C388.046 494.875 387.93 494.9705 387.8901 495.0034 387.7577 495.112 387.4334 495.3606 387.2894 495.4589L385.5566 496.7011C385.5246 496.7243 385.4869 496.7578 385.4537 496.7804 385.4194 496.8043 385.3803 496.836 385.3446 496.8587 384.2748 497.5384 384.2368 497.3624 383.2172 498.3644L382.7387 498.7885C382.0303 499.3464 381.8996 499.7412 381.1895 500.3612 380.1438 501.2751 378.8719 501.8961 377.7146 502.6768L369.7872 508.3858C367.6839 509.9664 364.8915 511.8211 362.6059 513.0927L356.4547 516.7417C355.9071 517.0853 355.7761 517.3024 355.3404 517.534 355.1185 517.6519 354.8724 517.7177 354.6116 517.8634 354.3741 517.9958 354.282 518.0791 353.9687 518.2741L350.8605 520.0566C349.1362 521.2015 343.6671 523.3995 342.3526 524.338 341.5677 524.8984 340.8171 525.0929 339.7323 525.5906 338.8258 526.0062 338.0757 526.6185 337.0538 526.9501 335.7561 527.3711 331.1634 530.1488 329.9598 530.6287 329.7552 530.71 329.5074 530.7486 329.2846 530.8393L327.9226 531.5598C327.246 531.8651 327.6383 531.7104 327.2465 531.9394 326.7899 532.2064 326.2088 532.2084 325.1509 532.6682L315.4521 536.773C314.5207 537.2768 310.7829 538.4928 309.6816 538.888 307.6767 539.6071 305.8807 540.4632 303.7731 540.9014 301.9054 541.2898 298.1954 543.3758 295.0112 543.8426 294.2957 543.9472 294.0718 544.2026 293.4575 544.3764 292.9493 544.5201 292.36 544.5609 291.8818 544.7293 291.1382 544.9912 291.541 545.0649 290.5172 545.2713 289.8476 545.4065 289.6384 545.3949 288.9859 545.6684 287.6037 546.2484 285.4879 546.4962 284.2719 546.9097L281.05 547.719C280.6033 547.8905 280.1846 548.0368 279.6579 548.2321 279.2117 548.3976 278.7863 548.6678 278.3466 548.7945 277.8769 548.93 277.2278 549.0417 276.7689 549.1089 275.5695 549.2849 275.9014 549.3325 275.1163 549.5936 274.5978 549.7662 273.9095 549.6936 273.3245 549.7642L270.1865 550.4814C269.1125 550.728 268.198 551.0602 267.0344 551.192 265.9958 551.3097 265.0742 552.0132 263.8576 551.6943 262.2044 551.571 261.434 552.2854 259.8426 552.3486 259.1524 552.3761 254.1512 553.769 252.8487 553.862 249.6557 554.0896 251.3443 554.3833 249.4811 554.5324 246.6618 554.7577 247.911 554.7135 246.6757 555.1149 246.3599 555.2175 246.0172 555.2444 245.6864 555.2739 242.1485 555.5863 244.0794 555.4888 242.1711 555.9001 240.9157 556.1705 239.7098 555.9934 238.4524 556.3794 237.1113 556.791 236.2133 556.6459 234.9054 556.9157 234.2032 557.0609 233.6318 557.2967 233.14 557.3886 232.4704 557.5136 231.7963 557.3718 231.1447 557.5147 230.4295 557.6712 230.9397 557.6644 230.3804 557.7738L227.4905 558.0638C226.1775 558.2251 224.7945 558.2319 223.5557 558.4793 220.2599 559.1378 217.4366 558.8371 215.5119 559.188L204.0517 560.3519C199.618 560.4874 200.1053 560.3661 196.1773 560.9738 194.0975 561.2958 190.0621 561.1552 187.7794 561.2009 184.8061 561.2598 182.6583 561.7188 179.733 561.7681L162.9317 561.9643C161.5929 561.975 160.2748 562.1196 158.7351 562.1298 157.8365 562.136 157.5326 562.2355 156.8273 562.2851 152.5215 562.5865 142.2819 562.5933 137.7729 562.4793L137.7612 511.6116C131.6322 511.0447 125.0606 511.4183 118.8584 511.4279 99.9575 511.4574 80.9779 511.219 62.0955 511.4727 61.7066 507.6709 62.0612 502.147 62.0685 498.1533L62.0626 458.7948C62.0444 441.2443 62.0495 423.6925 62.0663 406.1421L62.0524 116.8138C62.0541 113.6421 61.8361 91.688 62.149 90.5635 72.8651 90.4652 83.6402 90.6344 94.369 90.5944L190.9284 90.599C212.3858 90.6049 233.8444 90.57 255.3012 90.6038 260.4087 90.6114 266.3436 90.8714 271.3578 90.544L282.6238 89.873C283.2982 89.8396 284.0335 89.9155 284.7053 89.8673 285.2612 89.8274 285.9307 89.6261 286.3497 89.5674 287.5666 89.3971 288.8254 89.354 290.1141 89.3551 292.7361 89.358 295.058 88.5382 297.284 88.469 298.4587 88.4327 300.2363 88.6059 301.3189 88.4299L304.636 87.7723C308.0027 87.6189 306.7021 87.3607 308.1416 87.2487 310.6548 87.0537 314.1754 86.0389 314.9501 86.0258 315.0476 85.909 315.1165 85.5281 315.1253 85.5079" fill="#022440" fill-rule="evenodd"/>
<path transform="matrix(1,0,0,-1,0,595.2756)" d="M655.9736 389.6991C655.9733 389.9483 656.1125 390.183 656.1232 390.7485 656.1471 392.8623 656.3268 395.1238 656.1224 397.2322 656.0572 397.9066 655.8435 398.014 655.5331 398.5214L639.2648 398.5021C625.9513 398.4965 612.6205 398.7173 599.3087 398.5109L599.2843 395.2967C599.3368 377.79 599.04 360.2656 599.3515 342.7614L620.1978 342.7464C622.1883 342.7438 627.7209 343.137 629.0076 342.1896 629.0915 341.1629 629.1315 338.9638 628.979 337.9853L628.1118 334.7079C627.535 333.4147 627.3833 331.2865 626.7404 329.7835L623.4233 322.4211C622.8193 321.2841 622.5693 321.3822 621.7308 319.9246L619.668 317.1217C618.2708 315.8631 617.1721 314.3974 615.7528 313.1651 615.2363 312.717 615.0285 312.747 614.425 312.4032 613.6835 311.9814 613.5602 311.4927 612.4326 310.9022 612.396 310.883 612.3521 310.858 612.3158 310.8379L607.9697 308.361C607.2211 308.0735 607.0734 308.2535 606.3602 307.8309 604.1662 306.5315 601.1702 306.1695 599.1868 304.5098 599.1058 297.6389 599.0131 290.7323 599.2013 283.8623 600.0072 283.7954 601.0279 283.792 601.8372 283.8436 603.3359 283.9394 605.7264 284.8201 607.1542 285.1532 607.5354 285.2419 607.8892 285.2133 608.2849 285.2634 609.0761 285.3638 609.4182 285.6455 610.3312 285.8479 611.1683 286.0339 611.7131 286.1062 612.4292 286.3984L615.299 287.528C615.7593 287.7185 615.6054 287.7316 616.11 287.9314 617.1605 288.3478 618.222 288.5769 619.2009 289.2271 619.2439 289.2557 619.3565 289.3465 619.3998 289.3731L622.5352 290.7856C622.9083 290.9769 623.0271 290.9585 623.4208 291.1229 624.8472 291.7193 626.3932 292.7041 627.6158 293.5905 628.3962 294.1566 629.4674 294.5381 630.0811 295.3539 630.5494 295.9764 630.7308 295.8497 631.3538 296.3256 631.889 296.7347 631.7697 297.0564 632.4537 297.4425L634.426 298.8476C635.478 299.723 636.4054 300.8846 637.3556 301.8728 637.6507 302.1792 637.6833 302.2452 637.9347 302.5179 638.9175 303.5849 640.0341 304.3789 640.8317 305.5782L642.2321 307.4924C642.454 307.7606 642.3012 307.5151 642.5498 307.8896L643.1956 308.7992C643.2199 308.827 643.2557 308.865 643.28 308.8933L646.9092 314.5504C647.3616 315.3042 648.1539 316.3952 648.3682 317.1237 648.4649 317.4531 648.4538 317.9741 648.4683 318.329 649.5625 318.8954 648.9485 318.5762 649.4854 319.665 649.6328 319.964 649.7546 320.1185 649.887 320.4904L651.5218 325.0023C651.9212 325.876 651.8965 325.1673 652.2812 326.6643 652.502 327.5235 652.6698 327.3565 652.8129 328.6426 652.9329 329.7212 653.2126 329.6874 653.4448 330.4165 653.6622 331.0997 653.5814 331.7332 653.7424 332.4144L654.376 334.1843C655.1019 336.6652 655.1631 337.6026 655.6065 340.2692 656.2766 344.2995 655.9804 383.0771 655.9736 389.6991" fill="#c4a249" fill-rule="evenodd"/>
<path transform="matrix(1,0,0,-1,0,595.2756)" d="M527.8357 308.2881C527.4694 307.7178 528.2694 307.8343 527.4859 307.8343 526.7259 306.9558 527.4816 308.141 525.6986 306.8152 525.0317 306.3195 522.8617 305.6984 522.5794 305.5272 521.0901 304.6235 521.6913 305.3313 520.4772 304.8012 520.0189 304.6011 520.1439 304.5135 519.3955 304.5098L519.0063 303.4698C518.6214 303.3292 518.6713 303.4769 518.6611 303.5341L518.7889 285.2365C519.1605 283.8898 521.5555 284.9162 523.6384 285.0922V285.368C524.5702 285.4911 525.3338 285.558 526.2996 285.7079 527.6367 285.9151 527.2339 286.2765 528.7113 286.3168L528.6597 286.3171C528.662 286.3227 528.6662 286.3616 528.6699 286.3701 528.7671 286.5917 528.7703 286.5838 528.8862 286.7488 529.4891 286.795 530.1269 286.9112 530.771 287.0169L533.8794 287.9838C534.8991 288.5601 536.5789 288.7486 537.7045 289.4236 539.0762 290.2462 538.0387 289.2671 540.4708 290.3618L540.7379 290.4647C540.7815 290.4812 540.8297 290.4939 540.8728 290.5098L544.2857 292.4685C544.8115 292.7815 545.2002 292.7381 546.3612 293.5412L550.6639 296.7849C551.9245 297.5193 551.0228 297.61 552.1669 297.5956 552.5671 297.633 552.731 297.8127 553.0292 298.0375L559.3243 304.5115C560.4083 305.8821 561.6028 306.7387 562.5595 308.4636 562.7991 308.8956 562.9065 308.9404 563.1883 309.2777L563.2075 309.9084C564.5015 310.8937 564.927 312.8956 565.6927 313.7017 566.0235 314.0498 565.7536 313.5461 566.0983 314.1839L568.9298 319.9292C569.1005 320.3651 569.0934 320.7226 569.2958 321.1418 570.2352 323.085 569.613 321.9919 570.1723 323.4197 570.3854 323.9631 570.3557 324.0587 570.5133 324.6775 570.7862 325.7515 570.6198 324.8657 571.0309 325.6815L573.4057 334.3005C573.6016 335.4562 573.6339 335.9387 573.9004 336.9651 574.0994 337.733 574.0869 339.1047 574.2062 339.8601 574.359 340.8299 574.6516 341.5737 574.725 342.4706 574.8803 344.3638 574.905 346.5261 574.916 348.4162L574.8803 398.0656C574.7783 398.5764 574.6377 398.5396 574.3372 398.6028L521.7143 398.664C520.1005 398.6634 518.4369 398.9497 518.2296 398.0631L518.1608 346.1423C518.1574 345.558 518.1588 344.9741 518.1588 344.3899L518.3206 342.9323C518.3223 342.9377 518.2639 342.6537 519.2529 342.5865L521.8892 342.5842C526.0708 342.5817 546.7989 342.7651 547.4693 342.504L547.8599 342.2021C548.028 340.7057 547.9123 340.2904 547.6156 339.1464 547.4656 338.5675 547.5076 338.2483 547.4336 337.574 547.3687 336.9798 547.27 336.8971 547.1266 336.342 546.8488 335.2674 546.8647 334.4292 546.6348 333.2526 546.5494 332.8155 546.3179 332.3735 546.1858 331.975 546.0437 331.5455 545.9791 331.105 545.8762 330.7158L542.2192 322.304C541.7603 321.6308 542.0455 322.3967 541.5565 321.4114L540.2339 319.2231C538.6768 316.9692 536.8082 314.7341 534.6017 313.1464Z" fill="#c4a249" fill-rule="evenodd"/>
</svg>
